<svg width="74" height="49" viewBox="0 0 74 49" xmlns="http://www.w3.org/2000/svg" xmlns:xlink="http://www.w3.org/1999/xlink">
    <g id="creditcard-smartripcard-copy">
        <g id="g513">
            <path id="path515" fill="#080e17" stroke="none" d="M 33.145447 38.714722 C 29.644104 38.486694 27.169434 35.686707 27.130768 32.184082 C 27.114777 30.684082 27.533447 29.33606 28.373444 28.122742 C 29.340088 26.72406 30.373444 25.368042 31.349426 23.974731 C 31.798767 23.334717 32.246765 22.680054 32.582764 21.977417 C 33.013428 21.073364 32.684113 20.104065 31.885437 19.57074 C 31.121429 19.061401 30.325439 19.158752 29.712097 19.717407 C 27.97345 21.305359 26.257446 22.922729 24.621429 24.614746 C 23.136108 26.149414 21.612091 27.412048 19.354767 27.740051 C 17.31076 28.036072 15.640106 29.337402 14.849426 31.202698 C 14.012115 34.461365 13.296112 37.722717 12.44278 41.426697 C 13.39209 41.692078 14.122772 41.978699 14.880096 42.096069 C 19.27478 42.774719 23.694763 43.305359 28.069427 44.096069 C 33.717438 45.120056 40.901428 42.346741 44.80545 38.022705 Z M 1.044098 26.890747 C 1.044098 26.890747 1.198761 25.457397 2.714783 24.866699 C 6.296112 24.278748 9.837433 26.292053 13.756104 27.558716 C 15.890778 26.696045 17.958771 25.92804 19.964111 25.021362 C 20.884094 24.604065 21.77478 24.010742 22.517426 23.324036 C 24.24411 21.726746 25.876099 20.025391 27.544098 18.362732 C 28.520111 17.390747 29.664093 16.916077 31.068115 16.956055 C 34.276093 17.044067 36.234772 20.161377 34.764099 23.030701 C 34.173431 24.184082 33.329437 25.209412 32.586761 26.284058 C 31.768097 27.465393 30.814758 28.572083 30.133423 29.828064 C 28.313446 33.185364 30.514771 36.57605 34.382782 36.437378 C 38.168091 36.301392 41.952118 36.097412 45.737427 35.956055 C 46.649445 35.922729 47.581421 35.920044 48.469421 36.090698 C 48.877441 36.169373 49.313446 36.6427 49.516113 37.049377 C 49.633423 37.282715 49.410767 37.842712 49.165436 38.069397 C 45.680115 41.542725 43.73877 42.577393 41.924103 43.849365 C 37.998779 46.602722 32.100098 47.05603 27.577423 46.430725 C 23.437439 45.858704 19.312103 45.164063 15.192108 44.456055 C 12.562775 44.004028 10.058777 43.962708 7.552094 45.196045 C 6.176117 45.873413 4.572113 46.136047 3.041443 46.432068 C 1.992096 46.634705 1.324097 46.002747 1.166779 44.92804"/>
        </g>
        <g id="g517">
            <path id="path519" fill="#080e17" stroke="none" d="M 53.262756 21.453369 L 39.842773 21.453369 C 39.24411 21.453369 38.756104 20.96405 38.756104 20.366699 C 38.756104 19.768005 39.24411 19.278687 39.842773 19.278687 L 53.262756 19.278687 C 53.86145 19.278687 54.349426 19.768005 54.349426 20.366699 C 54.349426 20.96405 53.86145 21.453369 53.262756 21.453369"/>
        </g>
        <g id="g521">
            <path id="path523" fill="#080e17" stroke="none" d="M 53.262756 27.306702 L 37.456116 27.306702 C 36.858765 27.306702 36.369446 26.817383 36.369446 26.218689 C 36.369446 25.621399 36.858765 25.132019 37.456116 25.132019 L 53.262756 25.132019 C 53.86145 25.132019 54.349426 25.621399 54.349426 26.218689 C 54.349426 26.817383 53.86145 27.306702 53.262756 27.306702"/>
        </g>
        <g id="g525">
            <path id="path527" fill="#080e17" stroke="none" d="M 66.582764 18.610718 L 58.136108 27.057373 C 57.71344 27.480042 57.021423 27.480042 56.600098 27.057373 C 56.176086 26.634705 56.176086 25.942688 56.600098 25.518677 L 65.044098 17.073364 C 65.466766 16.650696 66.158752 16.650696 66.582764 17.073364 C 67.005432 17.496033 67.005432 18.188049 66.582764 18.610718"/>
        </g>
        <g id="g529">
            <path id="path531" fill="#080e17" stroke="none" d="M 59.801422 18.012024 C 59.801422 18.616028 59.312103 19.106689 58.708099 19.106689 C 58.102753 19.106689 57.612091 18.616028 57.612091 18.012024 C 57.612091 17.40802 58.102753 16.917358 58.708099 16.917358 C 59.312103 16.917358 59.801422 17.40802 59.801422 18.012024"/>
        </g>
        <g id="g533">
            <path id="path535" fill="#080e17" stroke="none" d="M 66.500122 26.116028 C 66.500122 26.720032 66.010773 27.210693 65.406769 27.210693 C 64.801453 27.210693 64.31076 26.720032 64.31076 26.116028 C 64.31076 25.512024 64.801453 25.021362 65.406769 25.021362 C 66.010773 25.021362 66.500122 25.512024 66.500122 26.116028"/>
        </g>
        <g id="g537">
            <path id="path539" fill="#080e17" stroke="none" d="M 27.590759 10.536011 L 27.590759 7.721375 C 27.590759 6.384033 28.680115 5.294678 30.017426 5.294678 L 66.821442 5.294678 C 68.160095 5.294678 69.248108 6.384033 69.248108 7.721375 L 69.248108 10.536011 Z M 66.821442 3.000061 L 30.017426 3.000061 C 27.420105 3.000061 25.296112 5.124023 25.296112 7.721375 L 25.296112 16.002686 L 27.590759 16.002686 L 27.590759 14.152039 L 69.248108 14.152039 L 69.248108 28.304016 C 69.248108 29.641357 68.160095 30.72937 66.821442 30.72937 L 32.788116 30.72937 L 32.788116 33.024048 L 66.821442 33.024048 C 69.418762 33.024048 71.542755 30.900024 71.542755 28.304016 L 71.542755 7.721375 C 71.542755 5.124023 69.418762 3.000061 66.821442 3.000061"/>
        </g>
    </g>
</svg>
