<svg width="34" height="65" viewBox="0 0 34 65" xmlns="http://www.w3.org/2000/svg" xmlns:xlink="http://www.w3.org/1999/xlink">
    <g id="smartphone-copy">
        <path id="path429" fill="#080e17" stroke="none" d="M 3.081451 54.376038 L 3.081451 9.92804 L 30.262787 9.92804 L 30.262787 54.376038 Z M 3.081451 9.92804 Z M 13.000122 5.004028 L 20.348114 5.004028 C 20.846771 5.004028 21.346771 5.432068 21.346771 6.002686 C 21.346771 6.573364 20.91745 7.001404 20.348114 7.001404 L 13.000122 7.001404 C 12.500092 7.001404 12.000092 6.573364 12.000092 6.002686 C 12.000092 5.432068 12.500092 5.004028 13.000122 5.004028 M 16.709442 61.509399 C 15.566772 61.509399 14.640106 60.58136 14.640106 59.441406 C 14.640106 58.298706 15.566772 57.370728 16.709442 57.370728 C 17.850769 57.370728 18.777435 58.298706 18.777435 59.441406 C 18.777435 60.58136 17.850769 61.509399 16.709442 61.509399 M 3.653442 64.220032 L 29.693451 64.220032 C 31.264099 64.220032 32.548096 62.937378 32.548096 61.366699 L 32.548096 4.79071 C 32.548096 3.220032 31.264099 1.936035 29.693451 1.936035 L 3.653442 1.936035 C 2.084106 1.936035 0.798767 3.220032 0.798767 4.79071 L 0.798767 61.366699 C 0.798767 62.937378 2.084106 64.220032 3.653442 64.220032"/>
        <g id="g431">
            <path id="path433" fill="#080e17" stroke="none" d="M 10.216095 20.772034 C 11.28009 20.772034 12.142761 21.634705 12.142761 22.69873 C 12.142761 23.762695 11.28009 24.624023 10.216095 24.624023 C 9.1521 24.624023 8.289429 23.762695 8.289429 22.69873 C 8.289429 21.634705 9.1521 20.772034 10.216095 20.772034"/>
        </g>
        <g id="g435">
            <path id="path437" fill="#080e17" stroke="none" d="M 16.566772 20.772034 C 17.629425 20.772034 18.492096 21.634705 18.492096 22.69873 C 18.492096 23.762695 17.629425 24.624023 16.566772 24.624023 C 15.502777 24.624023 14.638763 23.762695 14.638763 22.69873 C 14.638763 21.634705 15.502777 20.772034 16.566772 20.772034"/>
        </g>
        <g id="g439">
            <path id="path441" fill="#080e17" stroke="none" d="M 22.986786 20.772034 C 24.050781 20.772034 24.913452 21.634705 24.913452 22.69873 C 24.913452 23.762695 24.050781 24.624023 22.986786 24.624023 C 21.92276 24.624023 21.06012 23.762695 21.06012 22.69873 C 21.06012 21.634705 21.92276 20.772034 22.986786 20.772034"/>
        </g>
        <g id="g443">
            <path id="path445" fill="#080e17" stroke="none" d="M 10.216095 27.192017 C 11.28009 27.192017 12.142761 28.054688 12.142761 29.118713 C 12.142761 30.184021 11.28009 31.044067 10.216095 31.044067 C 9.1521 31.044067 8.289429 30.184021 8.289429 29.118713 C 8.289429 28.054688 9.1521 27.192017 10.216095 27.192017"/>
        </g>
        <g id="g447">
            <path id="path449" fill="#080e17" stroke="none" d="M 16.566772 27.192017 C 17.629425 27.192017 18.492096 28.054688 18.492096 29.118713 C 18.492096 30.184021 17.629425 31.044067 16.566772 31.044067 C 15.502777 31.044067 14.638763 30.184021 14.638763 29.118713 C 14.638763 28.054688 15.502777 27.192017 16.566772 27.192017"/>
        </g>
        <g id="g451">
            <path id="path453" fill="#080e17" stroke="none" d="M 22.986786 27.192017 C 24.050781 27.192017 24.913452 28.054688 24.913452 29.118713 C 24.913452 30.184021 24.050781 31.044067 22.986786 31.044067 C 21.92276 31.044067 21.06012 30.184021 21.06012 29.118713 C 21.06012 28.054688 21.92276 27.192017 22.986786 27.192017"/>
        </g>
        <g id="g455">
            <path id="path457" fill="#080e17" stroke="none" d="M 10.216095 33.541382 C 11.28009 33.541382 12.142761 34.404053 12.142761 35.468018 C 12.142761 36.532043 11.28009 37.393372 10.216095 37.393372 C 9.1521 37.393372 8.289429 36.532043 8.289429 35.468018 C 8.289429 34.404053 9.1521 33.541382 10.216095 33.541382"/>
        </g>
        <g id="g459">
            <path id="path461" fill="#080e17" stroke="none" d="M 16.566772 33.541382 C 17.629425 33.541382 18.492096 34.404053 18.492096 35.468018 C 18.492096 36.532043 17.629425 37.393372 16.566772 37.393372 C 15.502777 37.393372 14.638763 36.532043 14.638763 35.468018 C 14.638763 34.404053 15.502777 33.541382 16.566772 33.541382"/>
        </g>
        <g id="g463">
            <path id="path465" fill="#080e17" stroke="none" d="M 22.986786 33.541382 C 24.050781 33.541382 24.913452 34.404053 24.913452 35.468018 C 24.913452 36.532043 24.050781 37.393372 22.986786 37.393372 C 21.92276 37.393372 21.06012 36.532043 21.06012 35.468018 C 21.06012 34.404053 21.92276 33.541382 22.986786 33.541382"/>
        </g>
        <g id="g467">
            <path id="path469" fill="#080e17" stroke="none" d="M 16.566772 39.962708 C 17.629425 39.962708 18.492096 40.825378 18.492096 41.889404 C 18.492096 42.953369 17.629425 43.814697 16.566772 43.814697 C 15.502777 43.814697 14.638763 42.953369 14.638763 41.889404 C 14.638763 40.825378 15.502777 39.962708 16.566772 39.962708"/>
        </g>
    </g>
</svg>
