<svg width="73" height="58" viewBox="0 0 73 58" xmlns="http://www.w3.org/2000/svg" xmlns:xlink="http://www.w3.org/1999/xlink">
    <g id="escalatorup-copy">
        <g id="g129">
            <path id="path131" fill="#080e17" stroke="none" d="M 30.296112 12.457397 C 32.785442 12.457397 34.802776 10.438721 34.802776 7.950684 C 34.802776 5.462708 32.785442 3.444031 30.296112 3.444031 C 27.806778 3.444031 25.789444 5.462708 25.789444 7.950684 C 25.789444 10.438721 27.806778 12.457397 30.296112 12.457397"/>
        </g>
        <g id="g133">
            <path id="path135" fill="#080e17" stroke="none" d="M 34.756111 20.568054 L 34.756111 17.72937 C 34.756111 11.678711 25.834778 11.744019 25.834778 17.72937 L 25.834778 29.312012 L 25.852112 29.312012 L 17.421446 37.742737 C 16.62678 38.537354 16.529446 38.570679 14.969446 38.570679 C 14.96678 38.573364 9.813444 38.570679 9.813444 38.570679 C 4.628112 38.570679 1.51878 43.232056 1.51878 47.184021 C 1.51878 51.134705 4.628112 56.128052 10.274778 56.128052 L 19.454779 56.128052 C 21.622778 56.128052 24.248112 55.301392 26.41478 53.261353 L 53.294777 26.462708 C 53.869446 25.953369 54.18811 25.793396 55.174782 25.793396 L 61.813446 25.793396 C 65.00811 25.793396 69.528114 22.173401 69.528114 16.953369 C 69.528114 11.788025 64.974777 8.344055 61.549446 8.333374 L 51.070778 8.333374 C 48.904114 8.333374 46.117447 9.218689 44.454781 10.880066"/>
        </g>
        <g id="g137">
            <path id="path139" fill="#080e17" stroke="none" d="M 54.408108 39.664063 L 44.994778 39.664063 C 42.400112 39.664063 42.301445 43.652039 44.994778 43.652039 L 49.82011 43.652039 L 40.642776 52.830688 C 38.608109 54.864014 41.485443 57.809387 43.646778 55.64801 L 52.686775 46.58136 L 52.686775 51.358704 C 52.673443 53.950684 56.696106 54.05072 56.702774 51.358704 L 56.702774 42.002686 C 56.702774 40.605347 55.765442 39.664063 54.408108 39.664063"/>
        </g>
        <g id="g141">
            <path id="path143" fill="#ffffff" stroke="none" d="M 51.708111 12.793396 L 61.137444 12.793396 C 63.430779 12.793396 64.974777 15.357361 64.974777 16.888062 C 64.974777 18.417358 63.880112 21.272034 61.076111 21.272034 L 55.406776 21.272034 C 53.006775 21.272034 51.942776 21.608032 50.560108 22.990723 L 23.476112 50.074707 C 22.381443 51.172058 20.992109 51.608032 19.206778 51.608032 L 10.274776 51.608032 C 7.980108 51.608032 5.958776 49.666687 5.958776 47.116028 C 5.958776 44.568054 7.886776 43.138733 9.881443 43.138733 L 16.009443 43.138733 C 17.793442 43.138733 18.968109 42.629395 19.98811 41.609375 L 47.529442 14.068054 C 48.662777 12.934692 49.782776 12.793396 51.708111 12.793396"/>
        </g>
    </g>
</svg>
