<svg width="56" height="47" viewBox="0 0 56 47" xmlns="http://www.w3.org/2000/svg" xmlns:xlink="http://www.w3.org/1999/xlink">
    <g id="cash-copy">
        <g id="g345">
            <path id="path347" fill="#080e17" stroke="none" d="M 10.38678 17.765381 L 10.38678 17.988037 C 10.38678 21.242676 7.748108 23.880066 4.494781 23.880066 L 4.105438 23.880066 L 4.105438 17.765381 Z M 49.910797 23.880066 L 49.520111 23.880066 C 46.288116 23.881348 43.658783 21.276062 43.629456 18.042725 L 43.629456 17.82135 L 49.910797 17.82135 Z M 43.629456 43.558716 L 43.629456 43.33606 C 43.629456 40.082703 46.266785 37.444031 49.520111 37.444031 L 49.910797 37.444031 L 49.910797 43.558716 Z M 13.722778 18.042725 L 13.722778 17.82135 L 40.293457 17.82135 L 40.293457 18.042725 C 40.324127 23.118713 44.445465 27.216064 49.520111 27.216064 L 49.910797 27.216064 L 49.910797 34.108032 L 49.520111 34.108032 C 44.424103 34.108032 40.293457 38.240051 40.293457 43.33606 L 40.293457 43.558716 L 13.722778 43.558716 L 13.722778 43.33606 C 13.722778 38.240051 9.589447 34.108032 4.494781 34.108032 L 4.105438 34.108032 L 4.105438 27.216064 L 4.494781 27.216064 C 9.569458 27.216064 13.690796 23.118713 13.722778 18.042725 M 4.105438 37.444031 L 4.494781 37.444031 C 7.748108 37.444031 10.38678 40.082703 10.38678 43.33606 L 10.38678 43.558716 L 4.105438 43.558716 Z M 0.770782 16.153381 L 0.770782 45.226685 C 0.770782 46.146729 1.517456 46.893372 2.437439 46.893372 L 51.577454 46.893372 C 52.498779 46.893372 53.245453 46.146729 53.245453 45.226685 L 53.245453 16.153381 C 53.245453 15.232056 52.498779 14.486694 51.577454 14.486694 L 2.437439 14.486694 C 1.517456 14.486694 0.770782 15.232056 0.770782 16.153381"/>
        </g>
        <g id="g349">
            <path id="path351" fill="#080e17" stroke="none" d="M 28.564117 34.608032 C 28.918793 34.282715 29.104126 33.81073 29.064117 33.329346 C 29.093445 32.870728 28.881439 32.429382 28.508118 32.16272 L 27.952118 31.828064 L 27.729462 31.717346 L 27.618774 31.717346 L 27.618774 35.052063 C 27.969452 34.998718 28.298798 34.845398 28.564117 34.608032"/>
        </g>
        <g id="g353">
            <path id="path355" fill="#080e17" stroke="none" d="M 22.616089 32.718689 L 24.784088 32.718689 L 24.784088 32.885376 C 24.740082 33.43335 24.876099 33.980042 25.173431 34.441345 C 25.436096 34.792053 25.848083 34.998718 26.284088 34.998718 L 26.284088 31.440002 L 25.561432 31.161377 L 25.228088 31.05072 C 24.790741 30.889343 24.378754 30.665344 24.005432 30.384033 C 23.676086 30.089355 23.412079 29.72937 23.228088 29.328003 C 22.994751 28.842712 22.880096 28.309326 22.893433 27.770691 C 22.893433 27.270691 23.008087 26.776001 23.228088 26.32666 C 23.42276 25.917358 23.708099 25.554688 24.061432 25.269348 C 24.722748 24.774719 25.516083 24.485352 26.340088 24.436035 L 26.340088 23.324036 L 27.674744 23.324036 L 27.674744 24.380005 C 28.03476 24.405334 28.390747 24.480042 28.730743 24.604004 C 29.156097 24.726685 29.553436 24.934692 29.89743 25.214661 C 30.232086 25.504028 30.497406 25.865356 30.676086 26.270691 C 30.878754 26.745361 30.973419 27.256042 30.95343 27.770691 L 30.95343 27.937378 L 28.785431 27.937378 L 28.785431 27.770691 C 28.794769 27.349365 28.65741 26.936035 28.39743 26.604004 C 28.210754 26.361328 27.925415 26.218689 27.618744 26.214661 L 27.618744 29.328003 L 28.39743 29.605347 L 28.730743 29.717346 C 29.190765 29.890686 29.622742 30.136047 30.00943 30.43866 C 30.377411 30.723999 30.680084 31.084045 30.898743 31.496033 C 31.133423 31.980042 31.248077 32.513367 31.232086 33.052002 C 31.237427 33.625366 31.122742 34.193359 30.898743 34.720032 C 30.708099 35.164001 30.424103 35.562683 30.064087 35.886719 C 29.708099 36.205383 29.292084 36.452026 28.842743 36.609375 C 28.449432 36.758667 28.037415 36.853333 27.618744 36.888 L 27.618744 38 L 26.284088 38 L 26.284088 36.888 C 25.828094 36.868042 25.377411 36.774719 24.949432 36.609375 C 24.476074 36.441345 24.0401 36.176025 23.672089 35.832031 C 23.309418 35.488037 23.024078 35.072021 22.838745 34.609375 C 22.638763 34.07605 22.544098 33.509338 22.560089 32.941345 Z M 27.006744 39.833374 C 32.073425 39.833374 36.178741 35.728027 36.178741 30.66272 C 36.178741 25.596008 32.073425 21.490662 27.006744 21.490662 C 21.942749 21.490662 17.834747 25.596008 17.834747 30.66272 C 17.834747 35.728027 21.942749 39.833374 27.006744 39.833374"/>
        </g>
        <g id="g357">
            <path id="path359" fill="#080e17" stroke="none" d="M 26.340088 26.214661 C 26.014771 26.222717 25.701416 26.340027 25.450775 26.548035 C 25.156097 26.837341 25.012085 27.249329 25.061432 27.660034 C 25.053436 27.852051 25.090759 28.041382 25.172089 28.216003 L 25.506775 28.660034 L 26.006775 28.93866 L 26.228088 29.049377 L 26.284088 29.049377"/>
        </g>
        <path id="path361" fill="#080e17" stroke="none" d="M 5.772095 8.314697 L 5.772095 11.650696 L 48.241455 11.650696 L 48.241455 8.314697 Z"/>
        <path id="path363" fill="#080e17" stroke="none" d="M 11.33075 1.756042 L 11.33075 5.092041 L 42.68277 5.092041 L 42.68277 1.756042 Z"/>
    </g>
</svg>
