<svg width="55" height="62" viewBox="0 0 55 62" xmlns="http://www.w3.org/2000/svg" xmlns:xlink="http://www.w3.org/1999/xlink">
    <g id="university-graduation-copy">
        <g id="g795">
            <path id="path797" fill="#080e17" stroke="none" d="M 2.202759 52.798706 C 2.492096 53.656067 3.06543 54.261353 3.821442 54.69873 C 4.450775 55.062683 5.184113 55.238708 5.742767 55.728027 C 5.91745 55.881348 6.074768 56.096069 6.148102 56.314697 C 6.264099 56.654724 6.332092 57.018677 6.36676 57.378723 C 6.424103 57.978699 6.436096 58.585388 6.477448 59.188049 C 6.498779 59.485352 6.924103 59.8974 7.205444 59.922729 C 7.566772 59.952026 7.929443 60.012024 8.292114 60.013367 C 13.162781 60.014709 18.033447 60.014709 22.905426 60.001343 C 23.262756 60.000061 23.637451 59.937378 23.972107 59.812012 C 24.174774 59.736023 24.385437 59.513367 24.460114 59.309387 C 24.585449 58.973389 24.649445 58.600037 24.65744 58.240051 C 24.694763 56.658691 24.720093 55.07605 24.718781 53.492065 C 24.717438 48.136047 24.700104 42.778687 24.700104 37.421387 C 24.700104 36.817383 24.76944 36.213379 24.821442 35.609375 C 24.853424 35.22406 25.406769 34.706726 25.809448 34.665344 C 26.170776 34.628052 26.533447 34.560059 26.894775 34.553345 L 46.677429 32.149353 C 47.598785 31.725403 48.204102 30.954712 48.60144 30.036011 C 48.848114 29.462708 48.896118 28.848022 48.74411 28.246704 C 48.536102 27.406677 48.130768 26.658691 47.490784 26.062683 C 47.036102 25.638733 46.512115 25.330688 45.870758 25.317383 L 7.530762 25.345398 C 6.161438 25.393372 4.928101 25.998718 3.972107 27.012024 C 3.028107 28.012024 2.429443 29.184021 2.38678 30.601379"/>
        </g>
        <g id="g799">
            <path id="path801" fill="#080e17" stroke="none" d="M 48.286774 34.385376 C 48.658752 34.205383 49.357422 34.582703 49.393433 34.978699 C 49.434753 35.462708 49.500092 35.948059 49.502777 36.43335 C 49.512085 41.060059 49.510773 45.685364 49.514771 50.312012 C 49.514771 51.170715 49.412109 52.006714 49.158752 52.832031 C 48.894775 53.685364 48.428101 54.370728 47.673431 54.840027 C 47.158752 55.161377 46.616089 55.441345 46.078766 55.726685 C 45.476105 56.046692 45.256104 56.580017 45.21344 57.218689 C 45.172089 57.824036 45.144104 58.430725 45.10144 59.034729 C 45.072113 59.453369 44.546753 59.921387 44.109436 59.946716 C 43.986755 59.953369 43.868103 59.988037 43.746765 59.988037 C 38.757446 59.988037 33.764099 59.985352 28.773438 59.977356 C 28.533447 59.976013 28.296112 59.8974 28.056091 59.861389 C 27.826752 59.826721 27.39743 59.330688 27.382751 59.074707 C 27.354767 58.590698 27.292084 58.106689 27.288086 57.622681 C 27.281433 54.578735 27.285431 51.536011 27.285431 48.490723 L 27.281433 48.490723 C 27.281433 45.446716 27.28009 42.40271 27.285431 39.358704 C 27.286774 38.99469 27.326752 38.630676 27.350769 38.266724 C 27.380096 37.817383 28.124084 37.113403 28.604095 37.090698"/>
        </g>
        <g id="g803">
            <path id="path805" fill="#080e17" stroke="none" d="M 43.194763 12.946716 C 43.45343 12.92804 43.956116 12.529358 43.994781 12.292053 C 44.049438 11.932068 44.06543 11.566711 44.129425 11.209351 C 44.292114 10.286682 44.880096 9.717407 45.717438 9.376038 C 46.461426 9.072021 47.229431 9.558716 47.253448 10.345398 C 47.278778 11.194702 47.354767 13.632019 47.368103 14.481384 C 47.382782 15.33606 47.341431 15.048035 47.114777 15.87738 C 46.988098 16.344055 46.921448 16.362732 46.873444 16.842712 C 46.837433 17.19873 46.890778 17.566711 46.941437 17.924072 C 47.018768 18.482727 47.5401 18.901367 48.176117 18.82135 C 48.658783 18.758728 49.109436 18.32135 49.130768 17.878723 C 49.245422 15.696045 49.230774 16.300049 48.764099 14.862732 C 48.653442 14.3974 48.737427 10.678711 48.764099 10.19873 C 48.80011 9.565369 49.076111 8.738708 49.704102 8.474731 C 50.145447 8.289368 50.650757 8.253357 51.03476 7.930725 C 51.120117 7.857361 51.194763 7.718689 51.194763 7.612061 C 51.193451 7.524048 51.086761 7.417358 51.001434 7.350708 C 50.605438 7.05072 50.128113 6.944031 49.661438 6.817383 C 47.789429 6.31073 45.898773 5.873352 44.024109 5.374695 C 42.1521 4.876038 40.256104 4.460022 38.398773 3.892029 C 37.573425 3.641357 36.706757 3.612061 35.878784 3.866699 C 33.441437 4.614685 30.926758 5.058716 28.47876 5.764038 C 27.665436 5.997375 26.834778 6.173401 26.021423 6.424072 C 25.212097 6.673401 24.365448 6.792053 23.536102 6.978699 C 23.30011 7.032043 23.072113 7.121399 22.842773 7.201355 C 22.57077 7.297363 22.414764 7.45874 22.454773 7.656067 C 22.476105 7.757385 22.584106 7.884033 22.68277 7.920044 C 23.134766 8.088074 23.589447 8.308044 24.058777 8.365356 C 25.517426 8.544067 26.900116 9.016052 28.289429 9.441406 C 29.130768 9.69873 29.761444 10.284058 29.820099 11.270691 C 29.828094 11.392029 29.829437 11.513367 29.840118 11.634705 C 29.849426 11.7547 29.862762 11.876038 29.880096 11.996033 C 29.952118 12.474731 30.390778 12.90802 30.822784 12.950684"/>
        </g>
        <g id="g807">
            <path id="path809" fill="#080e17" stroke="none" d="M 22.874786 15.242737 C 22.874786 10.968018 19.408112 7.501404 15.133453 7.501404 C 10.858765 7.501404 7.39209 10.968018 7.39209 15.242737 C 7.39209 19.517395 10.858765 22.985352 15.133453 22.985352 C 19.408112 22.985352 22.874786 19.517395 22.874786 15.242737"/>
        </g>
        <g id="g811">
            <path id="path813" fill="#080e17" stroke="none" d="M 30.080109 14.578735 C 29.876099 15.238708 29.765442 15.938721 29.765442 16.665405 C 29.765442 20.569397 32.930786 23.733398 36.834778 23.733398 C 40.740112 23.733398 43.904114 20.569397 43.904114 16.665405 C 43.904114 15.938721 43.794769 15.238708 43.590759 14.578735"/>
        </g>
    </g>
</svg>
