<svg width="67" height="59" viewBox="0 0 67 59" xmlns="http://www.w3.org/2000/svg" xmlns:xlink="http://www.w3.org/1999/xlink">
    <g id="bus2-copy">
        <g id="g181">
            <path id="path183" fill="#080e17" stroke="none" d="M 53.545441 41.005371 C 53.545441 40.343994 54.081436 39.808044 54.742767 39.808044 C 55.404114 39.808044 55.941437 40.343994 55.941437 41.005371 C 55.941437 41.666687 55.404114 42.202698 54.742767 42.202698 C 54.081436 42.202698 53.545441 41.666687 53.545441 41.005371"/>
        </g>
        <g id="g185">
            <path id="path187" fill="#080e17" stroke="none" d="M 53.686783 41.005371 C 53.686783 41.588013 54.16011 42.06134 54.742783 42.06134 C 55.324112 42.06134 55.798782 41.588013 55.798782 41.005371 C 55.798782 40.422668 55.324112 39.949341 54.742783 39.949341 C 54.16011 39.949341 53.686783 40.422668 53.686783 41.005371 M 53.404114 41.005371 C 53.404114 40.266663 54.004105 39.666687 54.742783 39.666687 C 55.481445 39.666687 56.082779 40.266663 56.082779 41.005371 C 56.082779 41.744019 55.481445 42.345337 54.742783 42.345337 C 54.004105 42.345337 53.404114 41.744019 53.404114 41.005371"/>
        </g>
        <g id="g189">
            <path id="path191" fill="#080e17" stroke="none" d="M 50.337448 41.410706 C 50.337448 41.992065 50.810776 42.466736 51.393448 42.466736 C 51.974777 42.466736 52.449448 41.992065 52.449448 41.410706 C 52.449448 40.828064 51.974777 40.354736 51.393448 40.354736 C 50.810776 40.354736 50.337448 40.828064 50.337448 41.410706 M 50.054779 41.410706 C 50.054779 40.672058 50.65477 40.070679 51.393448 40.070679 C 52.132111 40.070679 52.733444 40.672058 52.733444 41.410706 C 52.733444 42.149353 52.132111 42.74939 51.393448 42.74939 C 50.65477 42.74939 50.054779 42.149353 50.054779 41.410706"/>
        </g>
        <g id="g193">
            <path id="path195" fill="#080e17" stroke="none" d="M 46.97345 41.869385 C 46.97345 42.452026 47.446777 42.925354 48.029449 42.925354 C 48.610779 42.925354 49.085449 42.452026 49.085449 41.869385 C 49.085449 41.288025 48.610779 40.813354 48.029449 40.813354 C 47.446777 40.813354 46.97345 41.288025 46.97345 41.869385 M 46.690781 41.869385 C 46.690781 41.130676 47.290771 40.530701 48.029449 40.530701 C 48.768112 40.530701 49.369446 41.130676 49.369446 41.869385 C 49.369446 42.608032 48.768112 43.209351 48.029449 43.209351 C 47.290771 43.209351 46.690781 42.608032 46.690781 41.869385"/>
        </g>
        <g id="g197">
            <path id="path199" fill="#080e17" stroke="none" d="M 57.388107 53.79071 L 57.388107 56.572021 C 57.388107 56.769348 57.225449 56.932007 57.026779 56.932007 L 51.264114 56.932007 C 51.064102 56.932007 50.901443 56.769348 50.901443 56.572021 L 50.901443 53.79071"/>
        </g>
        <g id="g201">
            <path id="path203" fill="#080e17" stroke="none" d="M 12.968109 41.005371 C 12.968109 40.343994 12.430779 39.808044 11.76944 39.808044 C 11.109444 39.808044 10.572105 40.343994 10.572105 41.005371 C 10.572105 41.666687 11.109444 42.202698 11.76944 42.202698 C 12.430779 42.202698 12.968109 41.666687 12.968109 41.005371"/>
        </g>
        <g id="g205">
            <path id="path207" fill="#080e17" stroke="none" d="M 10.714775 41.005371 C 10.714775 41.588013 11.18811 42.06134 11.770775 42.06134 C 12.352112 42.06134 12.826775 41.588013 12.826775 41.005371 C 12.826775 40.422668 12.352112 39.949341 11.770775 39.949341 C 11.18811 39.949341 10.714775 40.422668 10.714775 41.005371 M 10.432114 41.005371 C 10.432114 40.266663 11.032112 39.666687 11.770775 39.666687 C 12.509445 39.666687 13.110779 40.266663 13.110779 41.005371 C 13.110779 41.744019 12.509445 42.345337 11.770775 42.345337 C 11.032112 42.345337 10.432114 41.744019 10.432114 41.005371"/>
        </g>
        <g id="g209">
            <path id="path211" fill="#080e17" stroke="none" d="M 14.06411 41.410706 C 14.06411 41.992065 14.537445 42.466736 15.12011 42.466736 C 15.701447 42.466736 16.176109 41.992065 16.176109 41.410706 C 16.176109 40.828064 15.701447 40.354736 15.12011 40.354736 C 14.537445 40.354736 14.06411 40.828064 14.06411 41.410706 M 13.781441 41.410706 C 13.781441 40.672058 14.381447 40.070679 15.12011 40.070679 C 15.85878 40.070679 16.460114 40.672058 16.460114 41.410706 C 16.460114 42.149353 15.85878 42.74939 15.12011 42.74939 C 14.381447 42.74939 13.781441 42.149353 13.781441 41.410706"/>
        </g>
        <g id="g213">
            <path id="path215" fill="#080e17" stroke="none" d="M 17.428108 41.869385 C 17.428108 42.452026 17.901443 42.925354 18.484108 42.925354 C 19.065445 42.925354 19.540108 42.452026 19.540108 41.869385 C 19.540108 41.288025 19.065445 40.813354 18.484108 40.813354 C 17.901443 40.813354 17.428108 41.288025 17.428108 41.869385 M 17.145439 41.869385 C 17.145439 41.130676 17.745445 40.530701 18.484108 40.530701 C 19.222778 40.530701 19.824112 41.130676 19.824112 41.869385 C 19.824112 42.608032 19.222778 43.209351 18.484108 43.209351 C 17.745445 43.209351 17.145439 42.608032 17.145439 41.869385"/>
        </g>
        <g id="g217">
            <path id="path219" fill="#080e17" stroke="none" d="M 9.124107 53.79071 L 9.124107 56.572021 C 9.124107 56.769348 9.286774 56.932007 9.485443 56.932007 L 15.249443 56.932007 C 15.448112 56.932007 15.610779 56.769348 15.610779 56.572021 L 15.610779 53.79071"/>
        </g>
        <g id="g221">
            <path id="path223" fill="#080e17" stroke="none" d="M 57.434769 32.733337 C 57.434769 32.733337 48.514771 33.46936 43.850769 33.46936 C 39.189438 33.46936 33.833443 33.277344 33.833443 33.277344 L 33.833443 11.617371 L 56.74144 11.617371 C 56.74144 11.617371 57.813446 17.289368 57.813446 21.956055 C 57.813446 26.620056 57.434769 32.733337 57.434769 32.733337 M 56.736115 43.308044 C 56.71077 43.613342 56.646774 43.686707 56.218781 43.728027 C 53.638779 43.978699 42.882782 45.086731 33.270775 45.088013 C 23.658775 45.086731 12.900108 43.978699 10.320114 43.728027 C 9.894775 43.686707 9.82811 43.613342 9.80278 43.308044 L 9.106781 34.87738 C 12.12944 36.766724 25.733444 37.460022 33.270775 37.398682 C 40.808105 37.460022 54.410782 36.766724 57.434769 34.87738 Z M 8.698776 21.956055 C 8.698776 17.289368 9.773445 11.617371 9.773445 11.617371 L 32.706779 11.617371 L 32.706779 33.277344 C 32.706779 33.277344 27.350777 33.46936 22.689445 33.46936 L 22.661446 33.46936 C 17.997444 33.46936 9.078781 32.733337 9.078781 32.733337 C 9.078781 32.733337 8.698776 26.620056 8.698776 21.956055 M 59.845444 21.828064 C 59.845444 16.701355 59.468109 13.852051 58.980103 11.950684 L 58.74144 11.116028 C 58.298782 9.717346 57.808105 8.858704 57.434769 7.709351 C 56.721436 5.525391 55.293442 4.930725 54.169449 4.781372 L 52.71344 2.789368 C 52.44278 2.345337 51.649445 2.108032 51.276108 2.108032 L 15.546776 2.108032 C 15.172112 2.108032 14.380112 2.345337 14.109444 2.789368 L 12.676109 4.750671 C 11.517441 4.833374 9.882774 5.32135 9.106781 7.709351 C 8.730774 8.860046 8.238777 9.718689 7.798775 11.117371 L 7.560112 11.952026 C 7.072113 13.853394 6.693443 16.702698 6.693443 21.828064 C 6.572113 33.364014 6.94278 41.43335 7.778778 44.358704 C 8.412109 46.160034 8.708115 46.424011 9.842773 46.424011 L 56.696106 46.424011 C 57.833435 46.424011 58.12677 46.160034 58.761444 44.358704 C 59.597443 41.43335 59.969437 33.364014 59.845444 21.828064"/>
        </g>
        <g id="g225">
            <path id="path227" fill="#080e17" stroke="none" d="M 8.570778 47.324036 C 7.877441 47.324036 7.309441 47.893372 7.309441 48.586731 L 7.309441 51.630737 C 7.309441 52.324036 7.877441 52.892029 8.570778 52.892029 L 57.969437 52.892029 C 58.662781 52.892029 59.230774 52.324036 59.230774 51.630737 L 59.230774 48.586731 C 59.230774 47.893372 58.662781 47.324036 57.969437 47.324036"/>
        </g>
        <g id="g229">
            <path id="path231" fill="#080e17" stroke="none" d="M 64.59877 21.221375 L 60.965439 21.221375 C 60.721436 21.221375 60.521439 21.022705 60.521439 20.778687 L 60.521439 15.244019 C 60.521439 15.001404 60.721436 14.800049 60.965439 14.800049 L 64.59877 14.800049 C 64.842773 14.800049 65.04277 15.001404 65.04277 15.244019 L 65.04277 20.778687 C 65.04277 21.022705 64.842773 21.221375 64.59877 21.221375"/>
        </g>
        <g id="g233">
            <path id="path235" fill="#080e17" stroke="none" d="M 5.420105 21.221375 L 1.786774 21.221375 C 1.542778 21.221375 1.342773 21.022705 1.342773 20.778687 L 1.342773 15.244019 C 1.342773 15.001404 1.542778 14.800049 1.786774 14.800049 L 5.420105 14.800049 C 5.664108 14.800049 5.864105 15.001404 5.864105 15.244019 L 5.864105 20.778687 C 5.864105 21.022705 5.664108 21.221375 5.420105 21.221375"/>
        </g>
    </g>
</svg>
