<svg width="71" height="59" viewBox="0 0 71 59" xmlns="http://www.w3.org/2000/svg" xmlns:xlink="http://www.w3.org/1999/xlink">
    <g id="wifi-copy">
        <path id="path489" fill="#080e17" stroke="none" d="M 0.549438 16.541382 L 5.456116 21.498657 C 21.716095 5.074707 48.080109 5.074707 64.338776 21.498657 L 69.246765 16.541382 C 50.276093 -2.621338 19.521454 -2.621338 0.549438 16.541382 M 10.364105 26.454712 L 15.270782 31.411987 C 26.110779 20.462769 43.685455 20.462769 54.524109 31.411987 L 59.433441 26.454712 C 45.882782 12.769409 23.913452 12.769409 10.364105 26.454712 M 20.177429 36.369385 L 25.084106 41.32666 C 30.50412 35.852051 39.292114 35.852051 44.712097 41.32666 L 49.617432 36.369385 C 41.489441 28.154663 28.308105 28.154663 20.177429 36.369385 M 34.898773 44.228027 C 31.066772 44.228027 27.960114 47.368042 27.960114 51.23999 C 27.960114 55.109375 31.066772 58.246704 34.898773 58.246704 C 38.730774 58.246704 41.837433 55.109375 41.837433 51.23999 C 41.837433 47.368042 38.730774 44.228027 34.898773 44.228027"/>
    </g>
</svg>
