<svg width="50" height="71" viewBox="0 0 50 71" xmlns="http://www.w3.org/2000/svg" xmlns:xlink="http://www.w3.org/1999/xlink">
    <g id="alarm-copy">
        <g id="g693">
            <path id="path695" fill="#080e17" stroke="none" d="M 38.71611 38.214722 C 38.71611 30.314697 32.250778 23.849365 24.349442 23.849365 C 16.446777 23.849365 9.98278 30.314697 9.98278 38.214722 L 9.98278 61.105347 L 38.71611 61.105347"/>
        </g>
        <g id="g697">
            <path id="path699" fill="#080e17" stroke="none" d="M 46.052109 68.970703 C 46.052109 66.324097 43.888107 64.160034 41.242783 64.160034 L 7.832108 64.160034 C 5.186775 64.160034 3.022781 66.324097 3.022781 68.970703 C 3.022781 69.244019 3.058777 69.508057 3.104111 69.769409 L 45.970779 69.769409 C 46.016113 69.508057 46.052109 69.244019 46.052109 68.970703"/>
        </g>
        <g id="g701">
            <path id="path703" fill="#080e17" stroke="none" d="M 24.349442 1.696045 C 23.470779 1.696045 22.750778 2.414673 22.750778 3.293335 L 22.750778 17.088013 C 22.750778 17.966675 23.470779 18.686768 24.349442 18.686768 C 25.226776 18.686768 25.946777 17.966675 25.946777 17.088013 L 25.946777 3.293335 C 25.946777 2.414673 25.226776 1.696045 24.349442 1.696045"/>
        </g>
        <g id="g705">
            <path id="path707" fill="#ffffff" stroke="none" d="M 17.448105 30.768066 C 16.110779 30.768066 14.966774 31.838745 13.813438 33.473389 C 13.813438 33.473389 12.878777 35.384033 12.878777 38.441406 L 12.878777 51.126709 C 12.878777 52.465332 13.973442 53.560059 15.310776 53.560059 C 16.650772 53.560059 17.74411 52.465332 17.74411 51.126709 L 17.74411 39.472046 C 17.74411 36.252075 18.60144 35.418701 19.494774 33.67334 C 20.386772 31.928101 18.785439 30.768066 17.448105 30.768066"/>
        </g>
        <g id="g709">
            <path id="path711" fill="#080e17" stroke="none" d="M 4.493446 9.17334 C 3.786781 9.696045 3.636108 10.700073 4.157448 11.408081 L 12.352112 22.504028 C 12.874779 23.212036 13.878777 23.362671 14.586777 22.841431 C 15.292114 22.318726 15.444115 21.313354 14.921448 20.608032 L 6.728111 9.509399 C 6.205444 8.802734 5.200111 8.650757 4.493446 9.17334"/>
        </g>
        <g id="g713">
            <path id="path715" fill="#080e17" stroke="none" d="M 45.26944 9.17334 C 45.976105 9.696045 46.12677 10.700073 45.605438 11.408081 L 37.410782 22.504028 C 36.889435 23.212036 35.884109 23.362671 35.176102 22.841431 C 34.470779 22.318726 34.318771 21.313354 34.841446 20.608032 L 43.034775 9.509399 C 43.557434 8.802734 44.562775 8.650757 45.26944 9.17334"/>
        </g>
    </g>
</svg>
