<svg width="55" height="65" viewBox="0 0 55 65" xmlns="http://www.w3.org/2000/svg" xmlns:xlink="http://www.w3.org/1999/xlink">
    <g id="constructionworker-copy">
        <g id="g965">
            <path id="path967" fill="#080e17" stroke="none" d="M 52.102768 29.549377 C 51.993439 29.414673 51.694778 29.104004 51.021439 28.457397 C 49.268112 25.688049 48.448105 21.67334 47.590775 18.826721 C 46.18811 11.340027 39.090775 8.368042 39.090775 8.368042 L 39.090775 13.992004 L 37.337433 13.952026 L 37.337433 7.481384 L 34.217438 6.740051 L 34.217438 14.577393 L 40.62944 18.300049 L 39.402771 19.996033 L 32.424103 15.517395 L 32.424103 3.270691 L 22.326767 3.270691 L 22.326767 15.277344 L 15.190781 19.957397 L 14.217438 18.280029 L 20.377441 14.498718 L 20.377441 6.584045 L 17.257446 7.558716 L 17.257446 14.109375 L 15.698776 14.109375 L 15.698776 8.368042 C 15.698776 8.368042 9.342773 10.98938 7.665436 16.800049 C 7.022766 19.110718 6.146774 23.193359 5.366776 25.064026 C 4.585434 26.936035 2.988113 28.96405 2.988113 28.96405 L 2.402771 29.58667 L 1.389435 29.938721 L 1.974777 32.706726 C 1.974777 32.706726 16.205444 29.860046 27.373444 29.860046 C 38.545441 29.860046 52.658768 32.706726 52.658768 32.706726 L 53.205444 29.938721"/>
        </g>
        <g id="g969">
            <path id="path971" fill="#080e17" stroke="none" d="M 27.394775 59.648071 C 42.385437 59.257385 50.222778 43.974731 45.79744 32.706726 C 47.106781 32.92804 47.981445 33.058716 49.384109 33.369385 C 52.777451 41.946716 48.020111 63.000061 27.394775 63.000061 C 6.341446 63.000061 1.740112 41.440063 5.21077 33.409363 C 6.824112 33.097412 6.341446 33.174744 8.836105 32.706726 C 4.816116 44.092041 12.424118 59.764038 27.394775 59.648071"/>
        </g>
    </g>
</svg>
