<svg width="64" height="65" viewBox="0 0 64 65" xmlns="http://www.w3.org/2000/svg" xmlns:xlink="http://www.w3.org/1999/xlink">
    <g id="map-copy">
        <g id="g915">
            <path id="path917" fill="#080e17" stroke="none" d="M 15.777405 36.776001 L 6.697449 43.004028 L 6.697449 15.812012 L 15.777405 9.584106 Z M 61.661438 12.822754 L 47.393433 3.034668 C 47.097412 2.832031 46.712097 2.832031 46.416077 3.034668 L 32.262756 12.745361 C 31.968079 12.946655 31.578735 12.946655 31.2854 12.745361 L 17.130737 3.034668 C 16.836121 2.832031 16.446777 2.832031 16.1521 3.034668 L 1.885437 12.822754 C 1.649414 12.984009 1.509399 13.252075 1.509399 13.536011 L 1.509399 51.213379 C 1.509399 51.534668 1.68811 51.830688 1.970764 51.980103 C 2.254761 52.129395 2.598755 52.109375 2.864075 51.926758 L 16.641418 42.474731 L 18.814758 43.965332 C 18.813416 43.908081 18.80542 43.854736 18.80542 43.797363 C 18.80542 41.866699 19.112061 40.008057 19.668091 38.258667 L 17.505432 36.776001 L 17.505432 9.584106 L 30.909424 18.780029 L 30.909424 26.612061 C 31.474731 26.409424 32.049438 26.233398 32.637451 26.085327 L 32.637451 18.778687 L 46.0401 9.584106 L 46.0401 27.876099 C 46.637451 28.216064 47.212097 28.593384 47.769409 28.994751 L 47.769409 9.584106 L 56.848083 15.812012 L 56.848083 43.004028 L 55.269409 41.921387 C 55.332092 42.538696 55.365417 43.164063 55.365417 43.797363 C 55.365417 45.206665 55.204102 46.594727 54.885437 47.947998 L 60.681396 51.926758 C 60.948059 52.109375 61.290771 52.129395 61.577393 51.980103 C 61.86145 51.830688 62.036072 51.534668 62.036072 51.213379 L 62.036072 13.536011 C 62.036072 13.252075 61.8974 12.984009 61.661438 12.822754"/>
        </g>
        <g id="g919">
            <path id="path921" fill="#080e17" stroke="none" d="M 37.082764 55.656006 C 30.548096 55.656006 25.228088 50.33606 25.228088 43.797363 C 25.228088 37.258667 30.548096 31.938721 37.082764 31.938721 C 43.62146 31.938721 48.941467 37.258667 48.941467 43.797363 C 48.941467 50.33606 43.62146 55.656006 37.082764 55.656006 M 55.401428 55.125366 L 50.44812 50.174683 C 51.374756 48.241333 51.908081 46.084106 51.908081 43.797363 C 51.908081 35.610718 45.269409 28.976074 37.082764 28.976074 C 28.900085 28.976074 22.262756 35.610718 22.262756 43.797363 C 22.262756 51.984009 28.900085 58.621338 37.082764 58.621338 C 39.369446 58.621338 41.528076 58.088013 43.464111 57.16272 L 48.413452 62.113403 C 49.376099 63.080078 50.644104 63.561401 51.908081 63.561401 C 53.172119 63.561401 54.437439 63.080078 55.401428 62.113403 C 57.332092 60.184082 57.332092 57.05603 55.401428 55.125366"/>
        </g>
    </g>
</svg>
