<svg width="70" height="62" viewBox="0 0 70 62" xmlns="http://www.w3.org/2000/svg" xmlns:xlink="http://www.w3.org/1999/xlink">
    <g id="speech-text-copy">
        <g id="g1061">
            <path id="path1063" fill="#080e17" stroke="none" d="M 34.00412 54.885376 C 19.334778 54.885376 7.444122 44.582703 7.444122 31.874695 C 7.444122 19.166687 19.334778 8.864014 34.00412 8.864014 C 48.673462 8.864014 60.56543 19.166687 60.56543 31.874695 C 60.56543 44.582703 48.673462 54.885376 34.00412 54.885376 M 60.038757 48.709351 C 63.913452 43.997375 66.206787 38.190674 66.206787 31.905334 C 66.206787 16.169373 51.864136 3.412048 34.170776 3.412048 C 16.47876 3.412048 2.136108 16.169373 2.136108 31.905334 C 2.136108 47.6427 16.47876 60.400024 34.170776 60.400024 C 40.068115 60.400024 45.588135 58.977356 50.333435 56.504028 L 65.7948 58.942688"/>
        </g>
        <g id="g1065">
            <path id="path1067" fill="#080e17" stroke="none" d="M 18.665436 24.332031 L 49.71344 24.332031 C 52.649414 24.332031 52.654785 19.768005 49.71344 19.768005 L 18.665436 19.768005 C 15.728088 19.768005 15.722748 24.332031 18.665436 24.332031"/>
        </g>
        <g id="g1069">
            <path id="path1071" fill="#080e17" stroke="none" d="M 49.714783 29.625366 L 18.665436 29.625366 C 15.728119 29.625366 15.724091 34.189392 18.665436 34.189392 L 49.714783 34.189392 C 52.649414 34.189392 52.656128 29.625366 49.714783 29.625366"/>
        </g>
        <g id="g1073">
            <path id="path1075" fill="#080e17" stroke="none" d="M 49.714783 38.974731 L 35.538757 38.974731 C 32.604095 38.974731 32.597443 43.540039 35.538757 43.540039 L 49.714783 43.540039 C 52.649414 43.540039 52.656128 38.974731 49.714783 38.974731"/>
        </g>
    </g>
</svg>
