<svg width="58" height="60" viewBox="0 0 58 60" xmlns="http://www.w3.org/2000/svg" xmlns:xlink="http://www.w3.org/1999/xlink">
    <g id="parking-copy">
        <g id="g397">
            <path id="path399" fill="#080e17" stroke="none" d="M 52.913452 53.518738 C 52.913452 54.05603 52.476135 54.492065 51.938782 54.492065 L 4.548096 54.492065 C 4.00946 54.492065 3.572144 54.05603 3.572144 53.518738 L 3.572144 6.526733 C 3.572144 5.988037 4.00946 5.552063 4.548096 5.552063 L 51.938782 5.552063 C 52.476135 5.552063 52.913452 5.988037 52.913452 6.526733 Z M 51.768127 2.640015 L 4.718811 2.640015 C 2.590759 2.640015 0.860107 4.370728 0.860107 6.498718 L 0.860107 53.548035 C 0.860107 55.674683 2.590759 57.406738 4.718811 57.406738 L 51.76947 57.406738 C 53.896118 57.406738 55.62677 55.676025 55.62677 53.548035 L 55.62677 6.498718 C 55.62677 4.370728 53.896118 2.640015 51.768127 2.640015"/>
        </g>
        <g id="g401">
            <path id="path403" fill="#080e17" stroke="none" d="M 33.136108 19.521362 C 32.564087 19.176025 31.902771 18.944031 31.153442 18.822693 C 30.400085 18.704041 29.620117 18.6427 28.809448 18.6427 L 23.31073 18.6427 L 23.31073 28.286682 L 28.809448 28.286682 C 29.620117 28.286682 30.400085 28.228027 31.153442 28.106689 C 31.902771 27.988037 32.564087 27.753357 33.136108 27.40802 C 33.706726 27.062683 34.164063 26.574707 34.509399 25.942688 C 34.856079 25.312012 35.028076 24.486694 35.028076 23.46405 C 35.028076 22.444031 34.856079 21.617371 34.509399 20.985352 C 34.164063 20.354736 33.706726 19.868042 33.136108 19.521362"/>
        </g>
        <g id="g405">
            <path id="path407" fill="#080e17" stroke="none" d="M 41.270752 27.273376 C 40.865417 28.52002 40.21875 29.625366 39.332092 30.585388 C 38.445435 31.546692 37.296082 32.32135 35.885437 32.906677 C 34.470764 33.493347 32.760071 33.7854 30.746765 33.7854 L 23.310791 33.7854 L 23.310791 45.322693 L 16.234741 45.322693 L 16.234741 13.144043 L 30.746765 13.144043 C 32.758789 13.144043 34.470764 13.437378 35.885437 14.022705 C 37.296082 14.609375 38.445435 15.38269 39.332092 16.345398 C 40.21875 17.306702 40.864075 18.40271 41.269409 19.634705 C 41.674744 20.866699 41.878784 22.1427 41.878784 23.465393 C 41.878784 24.757385 41.676086 26.026733 41.270752 27.273376 M 5.521423 7.500061 L 5.521423 52.544067 L 50.964111 52.544067 L 50.964111 7.500061 Z"/>
        </g>
    </g>
</svg>
