<svg width="51" height="72" viewBox="0 0 51 72" xmlns="http://www.w3.org/2000/svg" xmlns:xlink="http://www.w3.org/1999/xlink">
    <g id="greenlightbulb-copy">
        <g id="g605">
            <path id="path607" fill="#080e17" stroke="none" d="M 9.088104 31.353394 C 9.108093 28.89209 9.572113 26.446655 10.622772 24.06665 C 12.258759 20.359985 14.246765 16.861328 16.73877 13.657349 C 17.008087 13.312012 17.734772 13.145386 18.064087 13.368042 C 20.704102 15.150757 23.250763 17.040039 25.4841 19.334717 C 27.117432 21.010742 28.530762 22.832031 29.758789 24.821411 C 30.670776 26.300049 31.224121 27.900024 31.593445 29.57605 C 31.636108 29.774658 31.498779 30.052002 31.369446 30.241333 C 31.23877 30.432007 31.030762 30.588013 30.828125 30.712036 C 30.202759 31.096069 29.550781 31.434692 28.934753 31.829346 C 26.325439 33.501343 24.649445 35.789429 24.266754 38.932007 C 24.23877 39.166748 24.140106 39.397339 24.037445 39.613403 C 23.998779 39.69873 23.869446 39.768066 23.770782 39.790649 C 23.669434 39.813354 23.536102 39.798706 23.450775 39.745361 C 23.352112 39.684082 23.252106 39.57605 23.218781 39.468018 L 19.421448 25.744019 C 19.341431 25.668091 19.212097 25.614746 19.102753 25.604004 C 19.013428 25.596069 18.893433 25.646729 18.832092 25.712036 C 18.752106 25.796021 18.68277 25.914673 18.666779 26.028076 L 20.656097 43.829346 C 20.69342 44.090698 20.630768 44.318726 20.472107 44.501343 C 20.308105 44.693359 20.086761 44.748047 19.818756 44.665405 C 18.413422 44.221436 17.093445 43.577393 15.806763 42.878662 C 13.95343 41.870728 12.189423 40.606689 11.161438 38.782715 C 9.678772 36.1521 9.072113 33.324097 9.088104 31.353394"/>
        </g>
        <g id="g609">
            <path id="path611" fill="#080e17" stroke="none" d="M 31.306763 66.150757 C 31.377441 65.914673 30.970764 65.490723 30.71875 65.484009 L 19.477448 65.453369 C 19.169434 65.493408 18.904114 66.013428 19.032104 66.312012 C 20.048096 68.6427 21.906769 69.814697 24.357452 70.13208 C 24.95343 70.209351 25.569427 70.196045 26.170776 70.145386 C 28.640106 69.700073 30.45343 68.122681 31.306763 66.150757"/>
        </g>
        <g id="g613">
            <path id="path615" fill="#080e17" stroke="none" d="M 24.946777 3.385376 C 11.788116 3.385376 1.084106 14.090698 1.084106 27.248047 C 1.084106 35.253418 5.668091 43.046753 13.044098 47.58667 C 14.064117 48.213379 14.709442 49.614746 15.389435 51.100098 C 16.468109 53.444092 17.808105 56.359985 21.266785 56.359985 C 22.77478 56.400024 24.049438 56.417358 25.133453 56.417358 C 30.784119 56.417358 31.178772 55.918701 31.622742 55.356079 C 33.234741 53.30542 34.109436 51.317383 34.764099 49.476074 C 34.790771 49.441406 34.945435 48.897339 34.972107 48.862671 C 35.349426 48.352051 35.781433 48.008057 36.440125 47.968018 C 37.052124 47.930664 38.162781 47.810669 38.740112 47.649414 C 40.169434 47.24939 40.514771 47.074707 41.577454 46.001343 C 45.50946 41.901367 45.36145 40.395996 45.690796 35.293335 C 45.68811 34.069336 45.665466 32.84668 45.644104 31.622681 C 45.634766 31.13208 44.901428 30.430664 44.414795 30.430664 C 44.172119 30.430664 43.925415 30.40271 43.684082 30.424072 C 35.897461 30.506714 34.184082 31.745361 31.985413 33.005371 C 29.406799 34.63208 27.796112 37.644043 27.625427 39.452026 C 27.456116 41.262695 27.498779 42.113403 28.506775 44.706665 C 28.712097 45.232056 29.292114 45.426758 29.6828 45.081421 C 29.956116 44.838745 30.230774 44.598755 30.502747 44.354736 C 32.052124 42.961426 33.593445 41.562744 35.150757 40.178711 C 35.150757 40.178711 36.461426 38.898682 36.921448 39.273438 C 37.249451 39.494751 36.18811 40.644043 35.70813 41.273438 C 34.12146 43.001343 33.053467 44.110718 31.969421 46.180054 C 31.344116 47.373413 31.140076 48.798706 30.628113 50.650757 L 30.634766 50.657349 C 30.269409 51.39209 29.944092 52.622681 29.28009 52.88269 C 28.616119 53.141357 24.388092 53.077393 21.31076 53 C 20.090759 53 19.500092 51.992065 18.445435 49.697388 C 17.624115 47.909424 16.693451 45.884033 14.808105 44.722656 C 8.414764 40.789429 4.444092 34.094727 4.444092 27.248047 C 4.444092 15.944092 13.642761 6.746704 24.946777 6.746704 C 36.252075 6.746704 45.449463 15.944092 45.449463 27.248047 C 45.449463 28.177368 46.201416 28.929321 47.129456 28.929321 C 48.058777 28.929321 48.810791 28.177368 48.810791 27.248047 C 48.810791 14.090698 38.105469 3.385376 24.946777 3.385376"/>
        </g>
        <g id="g617">
            <path id="path619" fill="#080e17" stroke="none" d="M 31.729431 59.208008 L 18.245422 60.226685 C 17.764099 60.264038 17.340118 59.900024 17.30545 59.417358 C 17.26944 58.936035 17.632111 58.512085 18.113434 58.476074 L 31.594788 57.457397 C 32.077454 57.421387 32.500122 57.7854 32.536133 58.266724 C 32.573425 58.748047 32.209412 59.171997 31.729431 59.208008"/>
        </g>
        <g id="g621">
            <path id="path623" fill="#080e17" stroke="none" d="M 32.013428 62.972046 L 18.530762 63.990723 C 18.050751 64.028076 17.625427 63.664063 17.590759 63.181396 C 17.553436 62.700073 17.917419 62.277344 18.398773 62.23999 L 31.880127 61.221436 C 32.36145 61.185425 32.7854 61.549316 32.822754 62.030762 C 32.858765 62.512085 32.494751 62.936035 32.013428 62.972046"/>
        </g>
    </g>
</svg>
