<svg width="63" height="66" viewBox="0 0 63 66" xmlns="http://www.w3.org/2000/svg" xmlns:xlink="http://www.w3.org/1999/xlink">
    <g id="identification-beonthelookout-search-copy">
        <g id="g625">
            <path id="path627" fill="#080e17" stroke="none" d="M 58.384094 56.422729 L 48.590759 46.629395 C 46.584106 48.837402 44.228088 50.718689 41.617432 52.204041 L 52.109436 62.697388 C 53.83606 64.422729 56.658752 64.422729 58.384094 62.697388 C 60.110779 60.972046 60.110779 58.14801 58.384094 56.422729"/>
        </g>
        <g id="g629">
            <path id="path631" fill="#080e17" stroke="none" d="M 34.233459 19.086731 C 34.23877 19.73468 34.234741 20.38269 34.234741 21.029358 L 34.241455 21.029358 C 34.241455 21.462708 34.246765 21.894714 34.240112 22.325378 C 34.229431 22.976013 34.125427 23.606689 33.922791 24.232056 C 33.589417 25.262695 33.225464 26.273376 32.62677 27.184021 C 32.388123 27.545349 32.140076 27.900024 31.930786 28.276062 C 31.658752 28.764038 31.576111 29.297363 31.704102 29.84137 C 32.032104 31.221375 33.252075 32.354736 34.620117 32.540039 C 35.044128 32.597351 35.480103 32.609375 35.909424 32.610718 C 37.14679 32.618713 38.226746 33.073364 39.21875 33.762695 C 39.929443 34.258728 40.550781 34.856018 41.080078 35.548035 C 41.257446 35.778687 41.321411 36.212036 41.185425 36.458679 C 41.133423 36.553345 41.098755 36.657349 41.042786 36.74939 C 41.042786 36.74939 36.236084 44.737366 27.616089 44.738708 C 18.997437 44.738708 16.181427 40.232056 14.056091 36.549377 C 13.834778 36.185364 13.865448 35.664063 14.148102 35.357361 C 14.293427 35.200012 14.421448 35.018738 14.586761 34.884033 C 15.088104 34.476013 15.598785 34.078735 16.116089 33.688049 C 16.914764 33.084045 17.822784 32.778687 18.821442 32.745361 C 19.254761 32.732056 19.692108 32.762695 20.116089 32.700012 C 21.613434 32.478699 22.720093 31.686707 23.328094 30.292053 C 23.594757 29.684021 23.600098 29.02002 23.306763 28.405396 C 23.076111 27.918701 22.760101 27.474731 22.526764 26.98938 C 22.153442 26.212036 21.812103 25.420044 21.465424 24.629395 C 21.066772 23.725403 20.908112 22.772034 20.909424 21.79071 C 20.909424 20.925354 20.921448 20.062683 20.937439 19.200012 C 21.250763 15.952026 24.180115 13.416016 27.616089 13.416016 C 31.053467 13.416016 34.233459 16.701355 34.233459 19.086731"/>
        </g>
        <g id="g633">
            <path id="path635" fill="#080e17" stroke="none" d="M 27.617462 2.220032 C 13.628113 2.220032 2.288116 13.560059 2.288116 27.548035 C 2.288116 41.537354 13.628113 52.876038 27.617462 52.876038 C 41.605469 52.876038 52.945435 41.537354 52.945435 27.548035 C 52.945435 13.560059 41.605469 2.220032 27.617462 2.220032 M 27.617462 7.628052 C 38.60144 7.628052 47.537476 16.564026 47.537476 27.548035 C 47.537476 38.533386 38.60144 47.46936 27.617462 47.46936 C 16.632111 47.46936 7.696106 38.533386 7.696106 27.548035 C 7.696106 16.564026 16.632111 7.628052 27.617462 7.628052"/>
        </g>
    </g>
</svg>
