<svg width="63" height="63" viewBox="0 0 63 63" xmlns="http://www.w3.org/2000/svg" xmlns:xlink="http://www.w3.org/1999/xlink">
    <g id="clock-copy">
        <g id="g273">
            <path id="path275" fill="#080e17" stroke="none" d="M 30.504089 8.132019 C 17.474762 8.132019 6.872101 18.733398 6.872101 31.762695 C 6.872101 44.792053 17.474762 55.394714 30.504089 55.394714 C 43.533447 55.394714 54.134766 44.792053 54.134766 31.762695 C 54.134766 18.733398 43.533447 8.132019 30.504089 8.132019 M 30.504089 61.634705 C 14.032104 61.634705 0.630768 48.23468 0.630768 31.762695 C 0.630768 15.289368 14.032104 1.889343 30.504089 1.889343 C 46.976105 1.889343 60.377441 15.289368 60.377441 31.762695 C 60.377441 48.236023 46.976105 61.634705 30.504089 61.634705"/>
        </g>
        <g id="g277">
            <path id="path279" fill="#080e17" stroke="none" d="M 30.504089 10.948059 C 31.700104 10.948059 32.669434 11.917358 32.669434 13.113342 C 32.669434 14.309387 31.700104 15.278687 30.504089 15.278687 C 29.308105 15.278687 28.338776 14.309387 28.338776 13.113342 C 28.338776 11.917358 29.308105 10.948059 30.504089 10.948059"/>
        </g>
        <g id="g281">
            <path id="path283" fill="#080e17" stroke="none" d="M 30.504089 48.294739 C 31.700104 48.294739 32.669434 49.264038 32.669434 50.460022 C 32.669434 51.656067 31.700104 52.625366 30.504089 52.625366 C 29.308105 52.625366 28.338776 51.656067 28.338776 50.460022 C 28.338776 49.264038 29.308105 48.294739 30.504089 48.294739"/>
        </g>
        <g id="g285">
            <path id="path287" fill="#080e17" stroke="none" d="M 49.177429 29.621338 C 50.373444 29.621338 51.342773 30.590698 51.342773 31.786682 C 51.342773 32.982666 50.373444 33.952026 49.177429 33.952026 C 47.981445 33.952026 47.012115 32.982666 47.012115 31.786682 C 47.012115 30.590698 47.981445 29.621338 49.177429 29.621338"/>
        </g>
        <g id="g289">
            <path id="path291" fill="#080e17" stroke="none" d="M 11.83078 29.621338 C 13.026764 29.621338 13.996094 30.590698 13.996094 31.786682 C 13.996094 32.982666 13.026764 33.952026 11.83078 33.952026 C 10.634766 33.952026 9.665436 32.982666 9.665436 31.786682 C 9.665436 30.590698 10.634766 29.621338 11.83078 29.621338"/>
        </g>
        <g id="g293">
            <path id="path295" fill="#080e17" stroke="none" d="M 21.326782 13.358704 C 22.522766 13.358704 23.492096 14.328064 23.492096 15.524048 C 23.492096 16.720032 22.522766 17.689392 21.326782 17.689392 C 20.130768 17.689392 19.161438 16.720032 19.161438 15.524048 C 19.161438 14.328064 20.130768 13.358704 21.326782 13.358704"/>
        </g>
        <g id="g297">
            <path id="path299" fill="#080e17" stroke="none" d="M 39.681427 45.88269 C 40.877441 45.88269 41.846771 46.852051 41.846771 48.048035 C 41.846771 49.244019 40.877441 50.213379 39.681427 50.213379 C 38.485443 50.213379 37.516113 49.244019 37.516113 48.048035 C 37.516113 46.852051 38.485443 45.88269 39.681427 45.88269"/>
        </g>
        <g id="g301">
            <path id="path303" fill="#080e17" stroke="none" d="M 46.766785 20.442688 C 47.962769 20.442688 48.932098 21.412048 48.932098 22.608032 C 48.932098 23.804016 47.962769 24.773376 46.766785 24.773376 C 45.57077 24.773376 44.60144 23.804016 44.60144 22.608032 C 44.60144 21.412048 45.57077 20.442688 46.766785 20.442688"/>
        </g>
        <g id="g305">
            <path id="path307" fill="#080e17" stroke="none" d="M 14.241455 38.798706 C 15.437439 38.798706 16.406769 39.768005 16.406769 40.96405 C 16.406769 42.160034 15.437439 43.129333 14.241455 43.129333 C 13.045441 43.129333 12.076111 42.160034 12.076111 40.96405 C 12.076111 39.768005 13.045441 38.798706 14.241455 38.798706"/>
        </g>
        <g id="g309">
            <path id="path311" fill="#080e17" stroke="none" d="M 39.873444 13.468018 C 41.069427 13.468018 42.038788 14.437378 42.038788 15.633362 C 42.038788 16.830688 41.069427 17.800049 39.873444 17.800049 C 38.677429 17.800049 37.708099 16.830688 37.708099 15.633362 C 37.708099 14.437378 38.677429 13.468018 39.873444 13.468018"/>
        </g>
        <g id="g313">
            <path id="path315" fill="#080e17" stroke="none" d="M 21.134766 45.773376 C 22.329437 45.773376 23.298767 46.742676 23.298767 47.93866 C 23.298767 49.134705 22.329437 50.104004 21.134766 50.104004 C 19.937439 50.104004 18.968109 49.134705 18.968109 47.93866 C 18.968109 46.742676 19.937439 45.773376 21.134766 45.773376"/>
        </g>
        <g id="g317">
            <path id="path319" fill="#080e17" stroke="none" d="M 46.656097 38.990662 C 47.852112 38.990662 48.821442 39.960022 48.821442 41.156006 C 48.821442 42.352051 47.852112 43.32135 46.656097 43.32135 C 45.460114 43.32135 44.490784 42.352051 44.490784 41.156006 C 44.490784 39.960022 45.460114 38.990662 46.656097 38.990662"/>
        </g>
        <g id="g321">
            <path id="path323" fill="#080e17" stroke="none" d="M 14.350769 20.250732 C 15.546783 20.250732 16.516113 21.220032 16.516113 22.416016 C 16.516113 23.612061 15.546783 24.58136 14.350769 24.58136 C 13.154785 24.58136 12.185455 23.612061 12.185455 22.416016 C 12.185455 21.220032 13.154785 20.250732 14.350769 20.250732"/>
        </g>
        <g id="g325">
            <path id="path327" fill="#080e17" stroke="none" d="M 29.161438 32.812012 C 28.524109 32.097351 28.549438 30.993347 29.217438 30.361389 L 46.334778 16.557373 L 31.536102 32.961365 C 30.868103 33.594727 29.798767 33.526672 29.161438 32.812012"/>
        </g>
        <g id="g329">
            <path id="path331" fill="#080e17" stroke="none" d="M 40.237427 41.126709 L 38.1521 42.937378 L 28.957428 32.348022 L 31.041443 30.540039"/>
        </g>
    </g>
</svg>
