<svg width="61" height="69" viewBox="0 0 61 69" xmlns="http://www.w3.org/2000/svg" xmlns:xlink="http://www.w3.org/1999/xlink">
    <g id="accessible-copy">
        <g id="g417">
            <path id="path419" fill="#080e17" stroke="none" d="M 41.594772 44.661377 C 41.596115 44.756042 41.60144 44.849365 41.60144 44.944031 C 41.60144 54.625366 33.726776 62.501404 24.045441 62.501404 C 14.365448 62.501404 6.488113 54.625366 6.488113 44.944031 C 6.488113 39.093384 9.368103 33.904053 13.781448 30.713379 L 13.184113 25.466736 C 6.360107 29.286682 1.736115 36.584045 1.736115 44.944031 C 1.736115 57.246704 11.742783 67.253357 24.045441 67.253357 C 34.47345 67.253357 43.249435 60.060059 45.681442 50.37738"/>
        </g>
        <g id="g421">
            <path id="path423" fill="#080e17" stroke="none" d="M 21.180099 1.990723 C 24.314774 1.990723 26.85611 4.533386 26.85611 7.666687 C 26.85611 10.801392 24.314774 13.344055 21.180099 13.344055 C 18.045441 13.344055 15.504105 10.801392 15.504105 7.666687 C 15.504105 4.533386 18.045441 1.990723 21.180099 1.990723"/>
        </g>
        <g id="g425">
            <path id="path427" fill="#080e17" stroke="none" d="M 57.77478 51.653381 L 45.037445 33.842712 C 44.370773 32.909363 43.258774 32.46936 42.12944 32.565369 C 42.044113 32.557373 41.960114 32.55072 41.874771 32.55072 L 27.325439 32.55072 L 26.964111 29.38269 L 37.780106 29.38269 C 39.036102 29.38269 40.056107 28.364075 40.056107 27.105408 C 40.056107 25.848022 39.036102 24.829407 37.780106 24.829407 L 26.445435 24.829407 L 25.854767 19.628052 C 25.508102 16.585388 22.760101 14.400024 19.718781 14.746704 C 16.674774 15.092041 14.490768 17.838684 14.837448 20.881348 L 16.508102 35.57074 C 16.832108 38.412048 19.24678 40.502686 22.041443 40.486694 C 22.050781 40.486694 22.060104 40.48938 22.069443 40.48938 L 41.108109 40.48938 L 52.032104 55.762695 C 53.074768 57.222717 55.206772 57.486694 56.794769 56.350708 C 58.378769 55.217407 58.818771 53.113403 57.77478 51.653381"/>
        </g>
    </g>
</svg>
