<svg width="59" height="59" viewBox="0 0 59 59" xmlns="http://www.w3.org/2000/svg" xmlns:xlink="http://www.w3.org/1999/xlink">
    <g id="maintenance-copy">
        <path id="path935" fill="#080e17" stroke="none" d="M 7.71611 47.64801 C 5.978775 47.613342 4.464111 49.102722 4.432106 50.878723 C 4.397446 52.661377 5.83744 54.194702 7.576111 54.226685 C 9.342773 54.261353 10.850777 52.794678 10.876106 51.018677 C 10.901443 49.226685 9.453445 47.682678 7.71611 47.64801 M 29.420113 20.701355 C 28.30011 14.498718 29.662773 9.398682 34.474777 5.721375 C 38.10144 2.952026 42.616104 1.796021 47.498779 3.92804 C 46.962769 4.796021 46.174774 5.470703 45.60144 6.090698 C 44.118774 7.694702 42.480103 9.158691 41.009445 10.773376 C 39.016113 12.962708 39.080109 14.692017 41.094772 16.925354 C 41.512115 17.388062 41.953445 17.83606 42.420105 18.248047 C 44.506775 20.089355 46.585449 20.138733 48.642776 18.26001 C 50.372116 16.684021 51.970779 14.962708 53.65477 13.333374 C 54.088104 12.914734 54.622772 12.602722 55.169449 12.19873 C 55.57077 12.641357 56.054779 12.92804 56.141449 13.305359 C 58.164108 22.084045 51.838776 30.136047 42.844116 30.273376 C 42.220108 30.282715 41.582779 30.297363 40.97345 30.185364 C 39.061447 29.834717 37.73877 30.700012 36.446777 32.006714 C 30.630775 37.8974 19.784111 47.925354 13.917442 53.769348 C 12.92411 54.76001 11.969444 55.82135 10.846779 56.64801 C 7.049446 59.453369 1.973442 57.604065 0.80011 53.074707 C 0.288109 51.101379 0.762779 49.33606 1.95211 47.786682 C 2.801445 46.677368 3.820107 45.690735 4.810776 44.696045 C 10.214775 39.273376 20.604111 29.673401 26.010773 24.2547 C 27.108109 23.153381 28.165443 22.010681 29.420113 20.701355"/>
    </g>
</svg>
