<svg width="67" height="66" viewBox="0 0 67 66" xmlns="http://www.w3.org/2000/svg" xmlns:xlink="http://www.w3.org/1999/xlink">
    <g id="construction-copy">
        <g id="g589">
            <path id="path591" fill="#080e17" stroke="none" d="M 40.464111 41.548035 C 41.865448 38.045349 47.538773 32.205383 47.538773 32.205383 C 48.658768 30.73468 50.38678 30.185364 52.200104 30.24939 C 53.208115 30.284058 54.21611 30.298706 55.222778 30.342712 C 55.784103 30.366699 56.474777 31.121399 56.521439 31.714722 C 56.540115 31.938721 56.578781 32.16272 56.578781 32.385376 C 56.585434 34.96405 56.588104 37.541382 56.582779 40.118713 C 56.582779 40.453369 56.573441 40.801392 56.482773 41.117371 C 56.392105 41.432068 56.425446 41.745361 56.09877 41.900024 C 55.786774 42.173401 55.30011 42.228027 54.981445 42.268066 L 42.885437 42.246704 C 42.438782 42.23468 40.072113 42.525391 40.464111 41.548035 M 63.230774 54.541382 C 63.220108 54.32135 63.12677 54.106689 63.074768 53.888062 C 62.974777 53.477356 62.242767 52.858704 61.832108 52.87207 C 61.161438 52.892029 60.486771 52.982727 59.817444 52.960022 C 58.35611 52.905396 56.898773 52.800049 55.440109 52.709351 C 55.329437 52.702698 55.224106 52.649353 55.113449 52.629395 C 54.928101 52.594727 54.510773 52.122681 54.496109 51.890686 C 54.481445 51.66803 54.444107 51.444031 54.460114 51.225403 C 54.504105 50.665344 55.016113 50.157349 55.553436 50.141357 C 56.564102 50.110718 57.574768 50.100037 58.585434 50.066711 C 61.932114 50.066711 61.766769 48.309387 61.766769 45.340027 C 61.766769 41.656067 61.786774 49.845398 61.785446 27.537354 C 61.592102 26.398682 60.198776 25.049377 58.925446 25.05603 L 48.798782 25.040039 C 47.973434 25.036011 47.256104 25.361389 46.616104 25.833374 C 46.166779 26.164063 45.785446 26.585388 45.374771 26.96936 C 45.128113 27.197388 44.888107 27.430725 44.638779 27.653381 C 44.380112 27.885376 43.656113 27.900024 43.364105 27.690735 C 43.18277 27.560059 42.984116 27.450684 42.817444 27.304016 L 14.10144 2.212036 C 13.725449 1.93335 12.864105 1.98938 12.508118 2.288025 L 9.469437 5.42804 C 9.270782 5.712036 9.24411 6.465393 9.430771 6.72406 L 11.420105 8.996033 L 11.420105 29.458679 C 11.420105 29.830688 11.725449 30.134705 12.097443 30.134705 L 13.912109 30.134705 C 14.284103 30.134705 14.588104 29.830688 14.588104 29.458679 L 14.588104 12.613403 L 34.742783 35.63739 C 35.114777 36.05603 35.464111 36.501404 35.764114 36.974731 C 36.008102 37.357361 36.137436 37.82135 35.890778 38.253357 C 35.693436 39.141357 34.60144 42.6427 33.349442 46.512024 C 32.192108 50.092041 35.068115 50.108032 36.514771 50.108032 L 40.994781 50.085388 C 41.445435 50.092041 42.036102 50.657349 42.165436 51.166687 C 42.322769 51.792053 41.793442 52.650696 41.201447 52.717346 C 40.868103 52.756042 40.532104 52.806702 40.200104 52.806702 L 24.748108 52.766724 C 24.045441 52.766724 23.558777 53.530701 23.540115 53.864014 C 23.528107 54.089355 23.472107 54.312012 23.481445 54.534729 C 23.578781 57.23468 23.554779 60.070679 23.464111 62.770691 C 23.458771 62.880066 23.504105 62.990723 23.509445 63.102722 C 23.524109 63.465393 24.001434 63.949402 24.35611 64.038696 L 62.150772 64.102722 C 62.664108 64.08136 63.193436 63.521362 63.220108 62.974731 C 63.364105 60.16272 63.357437 57.352051 63.230774 54.541382"/>
        </g>
        <g id="g593">
            <path id="path595" fill="#080e17" stroke="none" d="M 22.850784 47.13739 L 3.040115 47.13739 C 2.296112 47.13739 1.689438 46.529358 1.689438 45.786682 L 1.689438 28.905396 C 1.689438 28.16272 2.296112 27.553406 3.040115 27.553406 L 22.850784 27.553406 C 23.593445 27.553406 24.201447 28.16272 24.201447 28.905396 L 24.201447 45.786682 C 24.201447 46.529358 23.593445 47.13739 22.850784 47.13739"/>
        </g>
        <g id="g597">
            <path id="path599" fill="#ffffff" stroke="none" d="M 20.27478 44.74939 L 5.349442 44.74939 C 4.809448 44.74939 4.368103 44.309387 4.368103 43.769348 L 4.368103 31.105347 C 4.368103 30.565369 4.809448 30.124023 5.349442 30.124023 L 20.27478 30.124023 C 20.813446 30.124023 21.254776 30.565369 21.254776 31.105347 L 21.254776 43.769348 C 21.254776 44.309387 20.813446 44.74939 20.27478 44.74939"/>
        </g>
        <g id="g601">
            <path id="path603" fill="#080e17" stroke="none" d="M 21.88678 46.6427 L 1.934769 29.780029 L 3.420105 27.814697 L 23.372101 44.678711"/>
        </g>
    </g>
</svg>
