<svg width="57" height="69" viewBox="0 0 57 69" xmlns="http://www.w3.org/2000/svg" xmlns:xlink="http://www.w3.org/1999/xlink">
    <g id="business-shirt-copy">
        <path id="path739" fill="#080e17" stroke="none" d="M 14.014771 9.292053 C 14.396088 8.800049 14.694763 8.32135 14.974762 7.862732 C 15.365417 7.228027 15.701447 6.678711 16.250763 6.1427 C 16.30542 6.086731 16.368103 6.032043 16.434753 5.978699 L 26.058777 15.865356 L 20.966766 22.965393 Z M 24.433441 26.528015 L 24.849426 27.025391 C 25.221436 28.05072 24.976105 28.016052 24.505432 30.856018 C 23.854767 34.79071 19.146759 61.297363 18.560089 64.974731 L 6.868103 64.974731 C 6.57077 64.973389 5.537445 64.906677 4.708099 64.07605 C 4.129425 63.498718 3.812103 62.73468 3.812103 61.925354 L 3.812103 19.297363 C 3.812103 16.872009 4.904114 15.448059 5.821442 14.682678 C 6.420105 14.180054 7.24411 13.796021 8.222778 13.34137 C 9.245422 12.866699 10.39743 12.334717 11.625427 11.502686 L 20.510773 28.974731 L 23.160095 25.282715 C 23.528107 25.638733 24.134766 26.172058 24.433441 26.528015 M 30.940125 30.856018 C 30.470764 28.016052 30.240112 28.1427 30.613403 27.117371 L 31.014771 26.52002 C 31.350769 26.033386 32.04541 25.446716 32.553406 25.038696 L 35.389404 29.030701 L 44.186768 11.468018 C 45.192078 12.133362 46.306763 12.822693 47.373413 13.478699 L 47.501404 13.558716 C 48.198792 13.988037 48.817444 14.368042 49.265442 14.664063 C 50.282776 15.334717 51.690735 17.318726 51.690735 19.297363 L 51.690735 61.925354 C 51.690735 63.606689 50.324097 64.974731 48.642761 64.974731 L 36.885437 64.974731 C 36.30011 61.298706 31.590759 34.792053 30.940125 30.856018 M 38.609436 6.626709 L 38.777405 6.72406 C 40.373413 7.64801 40.642761 8.070679 40.95343 8.561401 C 41.114746 8.813354 41.324097 9.140015 41.664124 9.513367 L 34.925415 22.968018 L 29.87207 15.856018 Z M 19.69342 4.83606 C 21.544098 4.536011 24.145447 4.398682 27.905457 4.398682 C 32.496094 4.398682 34.341431 4.624023 35.717407 5.122681 L 27.956116 13.325378 Z M 50.990784 12.05072 L 50.989441 12.049377 C 50.492126 11.72406 49.794739 11.293396 48.998779 10.804016 C 47.544067 9.906677 45.733459 8.792053 44.530762 7.896057 C 43.982788 7.486694 43.829407 7.245361 43.594788 6.878723 C 43.053406 6.026733 42.437439 5.225403 40.349426 4.016052 L 39.837402 3.717346 C 36.782776 1.934692 35.640076 1.268066 27.905457 1.268066 C 19.562775 1.268066 16.066772 1.93335 14.056091 3.90802 C 13.226776 4.722717 12.734772 5.525391 12.302765 6.233398 C 11.74942 7.133362 11.272095 7.910706 10.118774 8.736023 C 9.018768 9.521362 7.944092 10.018677 6.902771 10.501343 C 5.785431 11.02002 4.729431 11.508057 3.808105 12.281372 C 1.790771 13.970703 0.678772 16.462708 0.678772 19.297363 L 0.678772 61.925354 C 0.678772 63.569397 1.324097 65.121399 2.496094 66.292053 C 4.12677 67.922729 6.090759 68.104065 6.86142 68.105347 L 48.642761 68.105347 C 52.052124 68.105347 54.825439 65.332031 54.825439 61.925354 L 54.825439 19.297363 C 54.825439 16.23468 52.849426 13.278687 50.990784 12.05072"/>
    </g>
</svg>
