<svg width="52" height="65" viewBox="0 0 52 65" xmlns="http://www.w3.org/2000/svg" xmlns:xlink="http://www.w3.org/1999/xlink">
    <g id="schedule-timesheet-copy">
        <g id="g669">
            <path id="path671" fill="#080e17" stroke="none" d="M 45.576111 59.272034 L 4.469437 59.272034 L 4.469437 12.854736 L 9.272095 12.854736 C 9.39743 14.54541 10.804108 15.894714 12.524109 15.894714 L 37.068115 15.894714 C 38.789429 15.894714 40.196106 14.54541 40.318787 12.854736 L 45.576111 12.854736 Z M 45.940094 9.214722 L 40.06543 9.214722 C 39.557434 8.061401 38.404114 7.248047 37.068115 7.248047 L 29.036102 7.248047 C 28.994781 4.937378 27.116119 3.07605 24.796112 3.07605 C 22.476105 3.07605 20.598785 4.937378 20.556122 7.248047 L 12.524109 7.248047 C 11.18811 7.248047 10.036102 8.061401 9.528107 9.214722 L 4.105438 9.214722 C 2.302765 9.214722 0.829437 10.689392 0.829437 12.490723 L 0.829437 59.636047 C 0.829437 61.438721 2.302765 62.913391 4.105438 62.913391 L 45.940094 62.913391 C 47.742767 62.913391 49.217438 61.438721 49.217438 59.636047 L 49.217438 12.490723 C 49.217438 10.689392 47.742767 9.214722 45.940094 9.214722"/>
        </g>
        <g id="g673">
            <path id="path675" fill="#080e17" stroke="none" d="M 30.56012 22.866699 C 23.94278 22.866699 18.576111 28.232056 18.576111 34.849365 C 18.576111 41.468018 23.94278 46.833374 30.56012 46.833374 C 37.177429 46.833374 42.544098 41.468018 42.544098 34.849365 C 42.544098 28.232056 37.177429 22.866699 30.56012 22.866699 M 30.56012 25.597351 C 35.661438 25.597351 39.813446 29.748047 39.813446 34.849365 C 39.813446 39.952026 35.661438 44.102722 30.56012 44.102722 C 25.458771 44.102722 21.306763 39.952026 21.306763 34.849365 C 21.306763 29.748047 25.458771 25.597351 30.56012 25.597351"/>
        </g>
        <g id="g677">
            <path id="path679" fill="#080e17" stroke="none" d="M 35.504089 34.064026 L 31.621429 34.064026 L 31.621429 27.513367 C 31.621429 27.054688 31.246765 26.678711 30.788116 26.678711 C 30.329437 26.678711 29.95343 27.054688 29.95343 27.513367 L 29.95343 35.808044 C 29.95343 36.266724 30.329437 36.6427 30.788116 36.6427 C 30.850769 36.6427 30.906769 36.620056 30.965424 36.606689 C 31.06012 36.628052 31.15744 36.6427 31.256104 36.6427 L 35.504089 36.6427 C 36.21344 36.6427 36.793427 36.062683 36.793427 35.353394 C 36.793427 34.644043 36.21344 34.064026 35.504089 34.064026"/>
        </g>
        <g id="g681">
            <path id="path683" fill="#080e17" stroke="none" d="M 13.50943 36.6427 L 9.261444 36.6427 C 8.552094 36.6427 7.97345 36.062683 7.97345 35.353333 C 7.97345 34.644043 8.552094 34.064026 9.261444 34.064026 L 13.50943 34.064026 C 14.218781 34.064026 14.798767 34.644043 14.798767 35.353333 C 14.798767 36.062683 14.218781 36.6427 13.50943 36.6427"/>
        </g>
        <g id="g685">
            <path id="path687" fill="#080e17" stroke="none" d="M 15.474762 30.272034 L 9.261444 30.272034 C 8.552094 30.272034 7.972107 29.692017 7.972107 28.982727 C 7.972107 28.272034 8.552094 27.693359 9.261444 27.693359 L 15.474762 27.693359 C 16.184113 27.693359 16.764099 28.272034 16.764099 28.982727 C 16.764099 29.692017 16.184113 30.272034 15.474762 30.272034"/>
        </g>
        <g id="g689">
            <path id="path691" fill="#080e17" stroke="none" d="M 15.474762 43.013367 L 9.261444 43.013367 C 8.552094 43.013367 7.972107 42.43335 7.972107 41.723999 C 7.972107 41.014709 8.552094 40.434692 9.261444 40.434692 L 15.474762 40.434692 C 16.184113 40.434692 16.764099 41.014709 16.764099 41.723999 C 16.764099 42.43335 16.184113 43.013367 15.474762 43.013367"/>
        </g>
    </g>
</svg>
