<svg width="63" height="63" viewBox="0 0 63 63" xmlns="http://www.w3.org/2000/svg" xmlns:xlink="http://www.w3.org/1999/xlink">
    <g id="steeringwheel-copy">
        <path id="path415" fill="#080e17" stroke="none" d="M 11.038757 37.049377 C 19.056091 37.052063 25.636108 43.394714 25.928101 51.408081 L 25.928101 52.010742 C 25.950745 52.746704 25.37207 53.360046 24.637451 53.38269 C 24.490784 53.388062 24.342773 53.368042 24.204102 53.325378 C 17.317444 51.106689 11.942749 45.676025 9.797424 38.766724 C 9.577454 38.072083 9.961426 37.33075 10.65741 37.110718 C 10.781433 37.072083 10.909424 37.052063 11.038757 37.049377 M 11.100098 22.373413 C 16.536072 11.437378 29.80542 6.980042 40.740112 12.416077 C 45.054749 14.561401 48.550781 18.058716 50.696106 22.373413 C 51.038757 23.064026 50.757446 23.904053 50.064087 24.245361 C 49.87207 24.340027 49.661438 24.392029 49.449402 24.392029 C 49.18811 24.390747 48.932068 24.313416 48.71344 24.173401 C 44.613403 21.600037 38.158752 19.954712 30.894775 19.954712 C 23.63208 19.954712 17.174744 21.617371 13.076111 24.173401 C 12.857422 24.313416 12.60144 24.390747 12.341431 24.392029 C 11.568115 24.385376 10.946777 23.753357 10.95343 22.982727 C 10.956116 22.770691 11.005432 22.561401 11.100098 22.373413 M 51.992126 38.766724 C 49.842773 45.678711 44.462769 51.110718 37.574768 53.325378 C 36.874756 53.554749 36.12146 53.174744 35.890747 52.476074 C 35.842773 52.328064 35.821411 52.173401 35.824097 52.017395 L 35.824097 51.413391 C 36.114746 43.390747 42.709412 37.037415 50.73877 37.049377 C 51.468079 37.053406 52.056091 37.645386 52.053406 38.374695 C 52.053406 38.508057 52.033447 38.640076 51.992126 38.766724 M 30.894775 37.954712 C 27.878784 37.954712 25.433411 35.508057 25.433411 32.492065 C 25.433411 29.477356 27.878784 27.030701 30.894775 27.030701 C 33.910767 27.030701 36.356079 29.477356 36.356079 32.492065 C 36.356079 35.508057 33.910767 37.954712 30.894775 37.954712 M 30.894775 61.764038 C 47.208069 61.764038 60.430786 48.541382 60.430786 32.228027 C 60.430786 15.914734 47.208069 2.690735 30.894775 2.690735 C 14.582764 2.690735 1.357422 15.914734 1.357422 32.228027 C 1.378784 48.530701 14.589417 61.74408 30.894775 61.764038"/>
    </g>
</svg>
