<svg width="58" height="78" viewBox="0 0 58 78" xmlns="http://www.w3.org/2000/svg" xmlns:xlink="http://www.w3.org/1999/xlink">
    <g id="elevator-copy">
        <g id="g145">
            <path id="path147" fill="#080e17" stroke="none" d="M 20.98811 22.370728 L 26.860111 16.54541 C 28.477444 14.940063 26.070778 12.389404 24.390778 14.05603 L 21.381443 17.042725 L 21.426777 5.638672 C 21.436111 3.110718 17.82011 3.054688 17.808109 5.741333 L 17.780109 16.990723 L 14.82411 14.010742 C 13.228109 12.385376 10.657444 14.812012 12.32011 16.496094 L 18.109444 22.332031 C 18.973442 23.202759 20.141445 23.210693 20.98811 22.370728"/>
        </g>
        <g id="g149">
            <path id="path151" fill="#080e17" stroke="none" d="M 36.113441 4.356079 L 30.241444 10.182739 C 28.624107 11.786743 31.030777 14.337402 32.710777 12.670654 L 35.720108 9.684082 L 35.674774 21.089355 C 35.665443 23.616089 39.281441 23.671997 39.293442 20.985352 L 39.321442 9.736084 L 42.277443 12.716064 C 43.873444 14.341431 46.444111 11.914673 44.781441 10.230713 L 38.992107 4.394653 C 38.128109 3.525391 36.96011 3.515991 36.113441 4.356079"/>
        </g>
        <g id="g153">
            <path id="path155" fill="#080e17" stroke="none" d="M 45.410778 24.569336 L 11.298779 24.569336 C 6.270779 24.569336 2.158779 28.682739 2.158779 33.709351 L 2.158779 66.050659 C 2.158779 71.077393 6.270779 75.190674 11.298779 75.190674 L 45.410778 75.190674 C 50.437447 75.190674 54.550781 71.077393 54.550781 66.050659 L 54.550781 33.709351 C 54.550781 28.682739 50.437447 24.569336 45.410778 24.569336 M 45.410778 27.742676 C 48.701443 27.742676 51.377441 30.420044 51.377441 33.709351 L 51.377441 66.050659 C 51.377441 69.340088 48.701443 72.015991 45.410778 72.015991 L 11.298779 72.015991 C 8.008112 72.015991 5.332111 69.340088 5.332111 66.050659 L 5.332111 33.709351 C 5.332111 30.420044 8.008112 27.742676 11.298779 27.742676 L 45.410778 27.742676"/>
        </g>
        <g id="g157">
            <path id="path159" fill="#080e17" stroke="none" d="M 13.324112 41.414673 C 13.998779 41.726685 14.756113 41.757324 15.453445 41.5 C 16.894779 40.96936 17.636112 39.364014 17.102779 37.924072 C 16.848112 37.226685 16.33478 36.670654 15.657446 36.359985 C 15.286779 36.186768 14.889446 36.101318 14.492113 36.101318 C 14.168112 36.101318 13.841446 36.157349 13.529446 36.274658 C 12.83078 36.530762 12.274778 37.044067 11.96278 37.720093 C 11.65078 38.394653 11.621447 39.1521 11.877445 39.849365 C 12.136112 40.54541 12.649446 41.102661 13.324112 41.414673"/>
        </g>
        <g id="g161">
            <path id="path163" fill="#080e17" stroke="none" d="M 16.37878 42.134766 L 12.709446 42.134766 C 10.17078 42.138672 8.101446 44.26001 8.09478 46.864014 L 8.09478 46.88269 L 8.112114 54.216064 C 8.113447 55.040039 8.741446 55.41333 9.325447 55.41333 C 9.91078 55.41333 10.53878 55.038696 10.536114 54.216064 L 10.520113 46.786743 L 10.522779 46.786743 C 10.53878 46.328003 10.692114 45.88269 10.96678 45.497437 L 11.140114 45.256104 L 11.141447 45.552002 L 11.152113 67.223999 C 11.152113 67.996094 11.780113 68.624023 12.550779 68.624023 C 13.322779 68.624023 13.949446 67.996094 13.949446 67.223999 L 13.936113 56.604004 L 15.138779 56.602661 L 15.138779 56.69873 L 15.153446 67.223999 C 15.153446 67.996094 15.781446 68.624023 16.552113 68.624023 C 17.324112 68.624023 17.950779 67.996094 17.950779 67.223999 L 17.946781 45.256104 L 18.120113 45.498657 C 18.410778 45.905396 18.565445 46.377319 18.56678 46.864014 L 18.565445 46.961426 L 18.549446 54.216064 C 18.549446 55.038696 19.176113 55.41333 19.760113 55.41333 L 19.761448 55.41333 C 20.345448 55.41333 20.973446 55.040039 20.974781 54.216064 L 20.99078 46.864014 C 20.984112 44.26001 18.91478 42.138672 16.37878 42.134766"/>
        </g>
        <g id="g165">
            <path id="path167" fill="#080e17" stroke="none" d="M 27.229443 41.414673 C 27.90411 41.726685 28.661446 41.757324 29.358776 41.5 C 30.80011 40.96936 31.540112 39.364014 31.00811 37.924072 C 30.75211 37.226685 30.238777 36.670654 29.562778 36.359985 C 29.192112 36.186768 28.794777 36.101318 28.397442 36.101318 C 28.072109 36.101318 27.746777 36.157349 27.434776 36.274658 C 26.736111 36.530762 26.180111 37.044067 25.868111 37.720093 C 25.55611 38.394653 25.526775 39.1521 25.782776 39.849365 C 26.041443 40.54541 26.554779 41.102661 27.229443 41.414673"/>
        </g>
        <g id="g169">
            <path id="path171" fill="#080e17" stroke="none" d="M 30.284111 42.134766 L 26.614777 42.134766 C 24.077442 42.138672 22.006779 44.26001 22.000111 46.864014 L 22.000111 46.88269 L 22.017445 54.216064 C 22.020111 55.040039 22.646778 55.41333 23.230778 55.41333 C 23.816113 55.41333 24.444111 55.038696 24.442776 54.216064 L 24.425446 46.786743 L 24.428112 46.786743 C 24.444111 46.328003 24.597443 45.88269 24.872112 45.497437 L 25.045444 45.256104 L 25.046776 45.552002 L 25.057446 67.223999 C 25.057446 67.996094 25.685444 68.624023 26.457443 68.624023 C 27.228111 68.624023 27.854778 67.996094 27.854778 67.223999 L 27.841446 56.604004 L 29.044109 56.602661 L 29.044109 56.69873 L 29.058777 67.223999 C 29.058777 67.996094 29.686779 68.624023 30.458778 68.624023 C 31.230778 68.624023 31.857445 67.996094 31.857445 67.223999 L 31.853443 45.256104 L 32.025444 45.498657 C 32.317444 45.905396 32.470776 46.377319 32.472111 46.864014 L 32.470776 46.961426 L 32.454777 54.216064 C 32.454777 55.038696 33.081444 55.41333 33.665443 55.41333 L 33.666779 55.41333 C 34.25211 55.41333 34.878777 55.040039 34.880112 54.216064 L 34.896111 46.864014 C 34.890778 44.26001 32.82011 42.138672 30.284111 42.134766"/>
        </g>
        <g id="g173">
            <path id="path175" fill="#080e17" stroke="none" d="M 41.134781 41.414673 C 41.809444 41.726685 42.56678 41.757324 43.264114 41.5 C 44.705444 40.96936 45.445446 39.364014 44.913445 37.924072 C 44.657444 37.226685 44.145447 36.670654 43.468113 36.359985 C 43.097446 36.186768 42.700111 36.101318 42.30278 36.101318 C 41.977448 36.101318 41.652111 36.157349 41.340111 36.274658 C 40.641445 36.530762 40.085445 37.044067 39.773445 37.720093 C 39.461445 38.394653 39.432114 39.1521 39.688114 39.849365 C 39.946781 40.54541 40.460114 41.102661 41.134781 41.414673"/>
        </g>
        <g id="g177">
            <path id="path179" fill="#080e17" stroke="none" d="M 44.190777 42.134766 L 40.521442 42.134766 C 37.982777 42.138672 35.913445 44.26001 35.906776 46.864014 L 35.906776 46.88269 L 35.92411 54.216064 C 35.925446 55.040039 36.553444 55.41333 37.137444 55.41333 C 37.722778 55.41333 38.349442 55.038696 38.34811 54.216064 L 38.332111 46.786743 L 38.333443 46.786743 C 38.349442 46.328003 38.504108 45.88269 38.778778 45.497437 L 38.95211 45.256104 L 38.95211 45.552002 L 38.964111 67.223999 C 38.964111 67.996094 39.59211 68.624023 40.362778 68.624023 C 41.134777 68.624023 41.761444 67.996094 41.761444 67.223999 L 41.748112 56.604004 L 42.950775 56.602661 L 42.950775 56.69873 L 42.965443 67.223999 C 42.965443 67.996094 43.593445 68.624023 44.364109 68.624023 C 45.136108 68.624023 45.762775 67.996094 45.762775 67.223999 L 45.758778 45.256104 L 45.93211 45.498657 C 46.222778 45.905396 46.377441 46.377319 46.378777 46.864014 L 46.377441 46.961426 L 46.361443 54.216064 C 46.361443 55.038696 46.98811 55.41333 47.572109 55.41333 L 47.573444 55.41333 C 48.157444 55.41333 48.785442 55.040039 48.785442 54.216064 L 48.802776 46.864014 C 48.796108 44.26001 46.726776 42.138672 44.190777 42.134766"/>
        </g>
    </g>
</svg>
