<svg width="49" height="73" viewBox="0 0 49 73" xmlns="http://www.w3.org/2000/svg" xmlns:xlink="http://www.w3.org/1999/xlink">
    <g id="ribbon-award-copy">
        <g id="g775">
            <path id="path777" fill="#080e17" stroke="none" d="M 4.600128 27.048096 C 4.732117 26.640015 4.786774 26.397339 4.88678 26.174683 C 5.27478 25.308105 5.069458 24.502686 4.665436 23.709351 C 4.388123 23.165405 4.094788 22.624023 3.86145 22.062744 C 3.608124 21.453369 3.724121 20.854736 4.10144 20.32666 C 4.385437 19.929321 4.706787 19.558716 5.026794 19.187988 C 5.804108 18.289429 6.088104 17.2854 5.732117 16.121338 C 5.62677 15.773438 5.56012 15.408081 5.508118 15.046753 C 5.436127 14.522705 5.666779 14.098755 6.012115 13.730713 C 6.094788 13.6427 6.204102 13.577393 6.308105 13.512085 C 9.1521 11.730713 8.597443 12.124023 9.620117 9.408081 C 9.748108 9.06543 9.882782 8.720093 10.077454 8.41333 C 10.201447 8.220093 10.420105 8.062744 10.630768 7.957397 C 11.193451 7.676025 11.822784 7.713379 12.428101 7.640015 C 13.202789 7.546753 13.818787 7.150757 14.309448 6.593384 C 14.876099 5.952026 15.344116 5.225342 15.909454 4.582764 C 16.240112 4.205322 16.71344 4.029419 17.236115 4.13208 C 17.47345 4.180054 17.701447 4.278687 17.932098 4.352051 C 18.280121 4.463989 18.625458 4.606689 18.981445 4.678711 C 19.594788 4.801392 20.214783 4.768066 20.770782 4.470703 C 21.525452 4.066772 22.241455 3.596069 22.990784 3.180054 C 23.456116 2.921387 23.957458 3.004028 24.400116 3.233398 C 24.940125 3.514771 25.465454 3.838745 25.962769 4.192017 C 26.850769 4.821411 27.790771 4.784058 28.76944 4.498657 C 29.236115 4.361328 29.698792 4.190674 30.174774 4.106689 C 30.538788 4.042725 30.930786 4.130737 31.186768 4.417358 C 31.673431 4.963989 32.129456 5.540039 32.580109 6.116089 C 33.053436 6.722656 33.684113 7.08667 34.398773 7.296021 C 34.9841 7.468018 35.588104 7.584106 36.189453 7.685425 C 37.017456 7.828003 37.457458 8.370728 37.709442 9.104004 C 37.906769 9.684082 38.046783 10.281372 38.24411 10.859985 C 38.405457 11.329346 38.685455 11.732056 39.097443 12.026733 C 39.893433 12.596069 40.701447 13.146729 41.477448 13.742676 C 41.772125 13.968018 41.885437 14.348022 41.905457 14.720093 C 41.920105 14.962769 41.885437 15.209351 41.840118 15.449341 C 41.773438 15.809326 41.68277 16.166748 41.59079 16.522705 C 41.422791 17.168091 41.624115 17.754761 41.97345 18.26001 C 42.529449 19.064087 43.172119 19.809326 43.74411 20.602661 C 43.960114 20.901367 44.050781 21.296021 43.877441 21.644043 C 43.606781 22.190674 43.293457 22.71875 42.962769 23.233398 C 42.385437 24.130737 42.372101 25.078735 42.669434 26.05603 C 42.812103 26.522705 43.008118 26.973389 43.1521 27.441406 C 43.345459 28.074707 43.216125 28.664063 42.757446 29.135986 C 42.332123 29.57605 41.858765 29.966675 41.404114 30.376099 C 40.733459 30.982666 40.382782 31.720093 40.377441 32.640015 C 40.374786 33.24939 40.321442 33.865356 40.224121 34.466675 C 40.166779 34.824097 39.945435 35.125366 39.598785 35.318726 C 38.954773 35.677368 38.284119 35.963989 37.588104 36.210693 C 36.874786 36.461426 36.313446 36.932007 35.94278 37.601318 C 35.648102 38.135986 35.374786 38.684082 35.07077 39.214722 C 34.952118 39.425415 34.788116 39.614746 34.62677 39.796021 C 34.377441 40.074707 34.073456 40.272095 33.701447 40.349365 C 33.580109 40.373413 33.458771 40.40271 33.338776 40.40271 C 30.069458 40.389404 30.933441 39.928101 28.092102 42.286743 C 27.998779 42.364014 27.888123 42.418701 27.784119 42.485352 C 27.454773 42.69873 27.07077 42.752075 26.729431 42.633423 C 26.038788 42.393433 25.369446 42.090698 24.698792 41.790771 C 24.104126 41.524048 23.526794 41.529419 22.930786 41.789429 C 22.258789 42.082764 21.593445 42.405396 20.896118 42.621338 C 20.430786 42.765381 19.909454 42.716064 19.497437 42.386719 C 19.020111 42.005371 18.546783 41.613403 18.112122 41.184082 C 17.457458 40.534668 16.681458 40.284058 15.778778 40.328003 C 15.168121 40.357422 14.550781 40.406738 13.944122 40.356079 C 13.453461 40.314697 12.996124 40.089355 12.73877 39.621338 C 12.44278 39.088013 12.161438 38.54541 11.89212 37.998657 C 11.550781 37.30542 11.002777 36.834717 10.328125 36.505371 C 9.670776 36.184082 8.9841 35.920044 8.333435 35.58667 C 7.750793 35.288086 7.440125 34.768066 7.382782 34.118652 C 7.348114 33.753418 7.353455 33.384033 7.35611 33.015991 C 7.36145 32.096069 6.94812 31.368042 6.310791 30.750732 C 5.781433 30.241333 5.201447 29.782715 4.694794 29.252075 C 4.35611 28.897339 4.145447 28.440063 4.301453 27.916016 C 4.406769 27.564087 4.538788 27.220093 4.600128 27.048096"/>
        </g>
        <g id="g779">
            <path id="path781" fill="#080e17" stroke="none" d="M 19.83078 70.156006 C 20.021454 70.277344 20.26944 70.377319 20.486786 70.368042 C 20.741455 70.356079 20.94278 70.140015 20.992126 69.88269 C 21.174774 68.922729 21.292114 68.010742 21.520111 66.998657 L 25.768097 46.505371 C 25.908112 45.765381 25.817444 45.077393 25.394775 44.806763 C 24.884125 44.47876 24.553436 44.368042 23.988098 44.134766 C 23.776123 44.046753 23.054779 43.993408 22.848114 44.067993 C 21.928101 44.400024 21.0961 44.585327 20.18277 44.93335 C 19.553436 45.174683 19.002777 45.082764 18.418793 44.794678 C 18.138763 44.55603 17.909454 44.121338 17.665436 43.848022 C 16.689453 42.753418 16.506775 42.46936 15.002777 42.502686 C 14.761444 42.533325 13.480103 42.725342 13.234772 42.733398 C 12.722778 42.748047 12.24411 43.078735 12.100098 43.52002 L 6.696106 66.761353 C 6.653442 66.866699 6.662781 67.014771 6.701447 67.125366 C 6.740112 67.22937 6.844116 67.385376 6.925446 67.389404 C 7.161438 67.404053 7.420105 67.401367 7.634766 67.320068 C 9.577454 66.577393 11.804108 65.80542 13.748108 65.067993 C 14.229431 64.885376 14.729431 65.010742 15.158783 65.264038"/>
        </g>
        <g id="g783">
            <path id="path785" fill="#080e17" stroke="none" d="M 35.296112 43.629395 C 35.153442 43.150757 34.730774 42.837402 34.221436 42.733398 C 33.374786 42.560059 32.517456 42.580078 31.662781 42.680054 C 31.037445 42.753418 30.490784 43.018677 30.033447 43.450684 C 29.766785 43.702759 29.492126 43.953369 29.272125 44.244019 C 29.053436 44.530762 28.80545 44.848022 28.730774 45.186768 L 25.140106 60.921387 C 24.924103 61.638672 24.854767 62.37207 25.002777 63.101318 C 25.466766 65.373413 25.814789 67.674683 26.569458 69.880005 C 26.650787 70.114746 26.94278 70.212036 27.17746 70.069336 C 28.125458 69.484009 28.786774 68.577393 29.597443 67.837402 C 30.501434 67.010742 31.328125 66.102661 32.218781 65.261353 C 32.690765 64.814697 33.320099 64.665405 33.926788 64.864014 C 34.972107 65.206665 35.988098 65.640015 36.470795 65.824097 C 38.03479 66.436035 39.053436 66.840088 40.077454 67.226685 C 40.164124 67.26001 40.312103 67.193359 40.402771 67.13208 C 40.496124 67.067993 40.612122 66.957397 40.620117 66.859985 C 40.672119 66.098755 40.47345 65.369385 40.360107 64.641357"/>
        </g>
        <g id="g787">
            <path id="path789" fill="#ffffff" stroke="none" d="M 23.60675 11.657349 L 26.449432 19.189331 L 34.492096 19.56543 L 28.208099 24.597412 L 30.334747 32.361328 L 23.60675 27.941406 L 16.878754 32.361328 L 19.005432 24.597412 L 12.721405 19.56543 L 20.764099 19.189331"/>
        </g>
        <g id="g791">
            <path id="path793" fill="#ffffff" stroke="none" d="M 23.71344 9.573364 C 16.334778 9.573364 10.332123 15.57605 10.332123 22.954712 C 10.332123 30.333374 16.334778 36.337402 23.71344 36.337402 C 31.092102 36.337402 37.094788 30.333374 37.094788 22.954712 C 37.094788 15.57605 31.092102 9.573364 23.71344 9.573364 M 23.71344 37.842651 C 15.50412 37.842651 8.825439 31.164063 8.825439 22.954712 C 8.825439 14.745361 15.50412 8.066772 23.71344 8.066772 C 31.922791 8.066772 38.60144 14.745361 38.60144 22.954712 C 38.60144 31.164063 31.922791 37.842651 23.71344 37.842651"/>
        </g>
    </g>
</svg>
