<svg width="62" height="60" viewBox="0 0 62 60" xmlns="http://www.w3.org/2000/svg" xmlns:xlink="http://www.w3.org/1999/xlink">
    <g id="location-copy">
        <g id="g649">
            <path id="path651" fill="#080e17" stroke="none" d="M 30.740112 2.22406 C 15.177429 2.22406 2.562744 14.840027 2.562744 30.401367 C 2.562744 45.96405 15.177429 58.580017 30.740112 58.580017 C 46.302734 58.580017 58.917419 45.96405 58.917419 30.401367 C 58.917419 14.840027 46.302734 2.22406 30.740112 2.22406 M 30.740112 7.258728 C 43.501404 7.258728 53.884094 17.641357 53.884094 30.401367 C 53.884094 43.16272 43.501404 53.545349 30.740112 53.545349 C 17.97876 53.545349 7.596069 43.16272 7.596069 30.401367 C 7.596069 17.641357 17.97876 7.258728 30.740112 7.258728"/>
        </g>
        <g id="g923">
            <path id="path925" fill="#080e17" stroke="none" d="M 36.568115 44.244019 L 32.208069 29.106689 L 17.561401 24.600037 L 45.616089 15.246704"/>
        </g>
    </g>
</svg>
