<svg width="64" height="61" viewBox="0 0 64 61" xmlns="http://www.w3.org/2000/svg" xmlns:xlink="http://www.w3.org/1999/xlink">
    <g id="instructor-copy">
        <g id="g721">
            <path id="path723" fill="#080e17" stroke="none" d="M 21.660095 40.225403 C 21.660095 44.817383 21.658783 49.409363 21.661438 54.001404 C 21.662781 54.74939 21.614777 55.490723 21.438782 56.218689 C 21.18277 57.270691 20.517426 57.970703 19.496094 58.282715 C 18.505432 58.586731 17.532104 58.508057 16.645447 57.913391 C 16.234772 57.636047 15.844116 57.330688 15.433441 57.053406 C 15.10144 56.829407 14.733429 56.834717 14.38678 57.009399 C 14.169434 57.117371 13.976105 57.280029 13.780121 57.42804 C 13.481445 57.650696 13.21344 57.92804 12.890778 58.101379 C 11.27478 58.972046 9.673431 59.033386 8.364105 57.112061 C 7.941437 56.490723 7.621429 55.82135 7.614777 55.045349 C 7.609436 54.300049 7.602783 53.554688 7.602783 52.812073 C 7.60144 48.342712 7.604095 43.874695 7.60144 39.406738 C 7.600098 38.913391 7.608093 38.421387 7.472107 37.932068 C 7.36145 37.532043 7.098785 37.236023 6.768097 37.130737 C 6.185425 36.944031 5.557434 36.900024 4.954773 36.765381 C 4.717438 36.713379 4.4841 36.605408 4.276093 36.481384 C 3.716095 36.149353 3.357452 35.653381 3.245453 35.012024 C 3.181427 34.646729 3.161438 34.272034 3.161438 33.901367 C 3.156097 29.804016 3.15744 25.708069 3.158783 21.612061 C 3.160095 21.364075 3.178772 21.116028 3.185425 20.868042 C 3.208099 19.950684 3.614777 19.205383 4.214783 18.542725 C 4.736115 17.966736 5.376099 17.630737 6.138763 17.508057 C 7.002777 17.368042 7.869446 17.345398 8.734772 17.442688 C 9.365448 17.512024 9.920105 17.746704 10.382782 18.210693 C 11.084106 18.912048 11.790771 19.612061 12.538788 20.262695 C 12.906769 20.582703 13.35611 20.824036 13.80011 21.038696 C 14.133453 21.200073 14.510773 21.213379 14.880096 21.065369 C 15.933441 20.646729 16.852112 20.028076 17.636108 19.210693 C 18.06543 18.764038 18.454773 18.277405 18.901428 17.849365 C 19.068115 17.689392 19.337433 17.608032 19.574768 17.557373 C 19.936096 17.477356 20.309448 17.413391 20.678772 17.413391 C 25.766785 17.409363 30.85611 17.412048 35.945435 17.432068 C 36.433441 17.434692 36.921448 17.57074 37.408112 17.653381 C 37.662781 17.697388 37.85611 17.844055 38.03476 18.029358 C 39.506775 19.55072 39.301453 21.448059 38.236115 22.74939 C 38.000092 23.036072 37.669434 23.253357 37.293427 23.298706 C 36.680115 23.373352 36.06012 23.42804 35.444092 23.430725 C 31.720093 23.446716 27.996094 23.440063 24.272095 23.457397 C 23.781433 23.460022 23.290771 23.533386 22.802765 23.592041 C 22.405426 23.638733 21.876099 24.201355 21.820099 24.604065 C 21.786774 24.846741 21.714783 25.088074 21.705444 25.333374 C 21.676117 26.07605 21.65744 26.82135 21.656097 27.566711 C 21.6521 31.7854 21.654785 36.005371 21.654785 40.225403"/>
        </g>
        <g id="g725">
            <path id="path727" fill="#080e17" stroke="none" d="M 60.432098 27.196045 C 60.432098 32.406738 60.432098 37.618713 60.430786 42.829407 C 60.430786 43.325378 60.449432 43.824036 60.418793 44.318726 C 60.362793 45.236023 59.928101 45.961365 59.222778 46.540039 C 58.832123 46.862732 58.401459 47.113403 57.898773 47.165405 C 57.160126 47.240051 56.416107 47.305359 55.674774 47.308044 C 52.820099 47.320068 49.966766 47.300049 47.113434 47.300049 C 41.158783 47.301392 35.204102 47.314697 29.249451 47.308044 C 28.260101 47.308044 27.265442 47.354736 26.281433 47.16272 C 25.846771 47.077393 25.372101 46.609375 25.334778 46.152039 C 25.282776 45.533386 25.272125 44.917358 25.44812 44.31073 C 25.522797 44.058716 25.976105 43.656067 26.248108 43.613403 C 26.492126 43.577393 26.733459 43.500061 26.97879 43.49469 C 28.341461 43.462708 29.706787 43.42804 31.069458 43.42804 C 38.141449 43.424072 45.214783 43.429382 52.286774 43.42804 C 52.65744 43.42804 53.032104 43.394714 53.397461 43.337402 C 54.865448 43.105347 55.876099 42.282715 56.464111 40.926697 C 56.513458 40.812073 56.574768 40.700073 56.5961 40.580017 C 56.642792 40.33606 56.697449 40.089355 56.697449 39.844055 C 56.697449 33.02002 56.689453 26.197388 56.68811 19.373352 C 56.68811 17.884033 56.722778 16.396057 56.720123 14.90802 C 56.720123 13.865356 56.278778 12.981384 55.610779 12.214722 C 55.105438 11.636047 54.458771 11.276062 53.67746 11.217346 C 53.306793 11.189392 52.934784 11.178711 52.562775 11.178711 C 44.745453 11.194702 36.928101 11.216064 29.110779 11.225403 C 28.245453 11.226685 27.378784 11.173401 26.512115 11.138733 C 26.061462 11.120056 25.482788 10.632019 25.437439 10.252014 C 25.320129 9.266724 25.258789 8.2854 25.47879 7.302734 C 25.536102 7.045349 25.97879 6.586731 26.233459 6.568054 C 26.726776 6.530701 27.221436 6.46936 27.714783 6.46405 C 29.328125 6.445374 30.940125 6.450684 32.553436 6.442688 C 33.373444 6.438721 33.954773 6.057373 34.326782 5.326721 C 34.494781 4.996033 34.676117 4.664063 34.910767 4.380066 C 35.222778 3.998718 35.604126 3.690735 36.06012 3.45874 C 37.205444 2.87738 38.413452 2.690735 39.673462 2.82135 C 41.106781 2.96936 42.282776 3.573364 43.025452 4.866699 C 43.210785 5.189392 43.362793 5.534729 43.584106 5.828064 C 43.809448 6.126709 44.140106 6.334717 44.518768 6.376038 C 45.00946 6.42804 45.508118 6.445374 46.001434 6.446716 C 48.730774 6.453369 51.461456 6.448059 54.190765 6.452026 C 54.934784 6.453369 55.680115 6.462708 56.424103 6.490723 C 57.44812 6.526733 58.345459 6.941406 59.17746 7.500061 C 59.824127 7.937378 60.228119 8.562683 60.325439 9.33606 C 60.402771 9.948059 60.420105 10.572021 60.420105 11.190735 C 60.428101 16.524048 60.424103 21.861389 60.424103 27.196045"/>
        </g>
        <g id="g729">
            <path id="path731" fill="#080e17" stroke="none" d="M 38.288116 49.08136 C 39.038757 49.08136 39.288116 49.05603 39.533447 49.086731 C 40.033447 49.149353 40.506775 49.325378 40.869446 49.681396 C 41.39743 50.204041 41.912109 50.741394 42.39209 51.305359 C 44.318756 53.57605 46.272095 55.822693 48.393433 57.916016 C 48.593445 58.113403 48.609436 58.34137 48.44809 58.572021 C 48.293427 58.792053 48.072113 58.894714 47.801422 58.849365 C 47.433441 58.786682 47.07077 58.702698 46.704102 58.630737 C 45.957428 58.485352 45.30545 58.178711 44.781433 57.593384 C 43.706757 56.392029 42.621429 55.197388 41.506775 54.032043 C 40.825439 53.31604 40.192108 52.548035 39.370758 51.972046 C 39.130768 51.804016 38.536102 51.786682 38.324097 51.985352 C 38.145447 52.152039 37.946777 52.302734 37.784088 52.48407 C 36.370758 54.049377 34.933441 55.594727 33.56543 57.197388 C 32.661438 58.257385 31.545441 58.55603 30.23877 58.40802 C 30.125427 58.394714 29.998779 58.322693 29.920105 58.240051 C 29.757446 58.070679 29.710785 57.801392 29.89209 57.596069 C 31.03476 56.293396 32.21344 55.021362 33.353424 53.717346 C 34.414764 52.502686 35.438782 51.256042 36.486755 50.029358 C 36.645447 49.842712 36.828094 49.657349 37.038757 49.538696 C 37.357422 49.357361 37.700104 49.208069 38.050781 49.104065 C 38.281433 49.034729 38.541443 49.068054 38.288116 49.08136"/>
        </g>
        <g id="g733">
            <path id="path735" fill="#080e17" stroke="none" d="M 20.572113 9.962708 C 20.572113 6.640076 17.877441 3.945374 14.553436 3.945374 C 11.228119 3.945374 8.533447 6.640076 8.533447 9.962708 C 8.533447 13.288025 11.228119 15.982727 14.553436 15.982727 C 17.877441 15.982727 20.572113 13.288025 20.572113 9.962708"/>
        </g>
    </g>
</svg>
