<svg width="60" height="60" viewBox="0 0 60 60" xmlns="http://www.w3.org/2000/svg" xmlns:xlink="http://www.w3.org/1999/xlink">
    <g id="speedometer-copy">
        <g id="g637">
            <path id="path639" fill="#080e17" stroke="none" d="M 29.469421 2.22406 C 13.908081 2.22406 1.292114 14.840027 1.292114 30.401367 C 1.292114 45.96405 13.908081 58.580017 29.469421 58.580017 C 45.032104 58.580017 57.646729 45.96405 57.646729 30.401367 C 57.646729 14.840027 45.032104 2.22406 29.469421 2.22406 M 29.469421 7.258728 C 42.230774 7.258728 52.613403 17.641357 52.613403 30.401367 C 52.613403 43.16272 42.230774 53.545349 29.469421 53.545349 C 16.708069 53.545349 6.326721 43.16272 6.326721 30.401367 C 6.326721 17.641357 16.708069 7.258728 29.469421 7.258728"/>
        </g>
        <g id="g641">
            <path id="path643" fill="#080e17" stroke="none" d="M 13.044128 30.714722 C 13.041443 30.609375 13.028137 30.508057 13.028137 30.40271 C 13.028137 21.33606 20.404114 13.95874 29.472107 13.95874 C 38.538757 13.95874 45.914795 21.33606 45.914795 30.40271 C 45.914795 30.589355 45.894775 30.770691 45.888123 30.956055 L 50.10144 30.086731 C 49.933472 18.834717 40.765442 9.762695 29.472107 9.762695 C 18.258789 9.762695 9.141479 18.708069 8.848145 29.850708"/>
        </g>
        <g id="g645">
            <path id="path647" fill="#080e17" stroke="none" d="M 29.469421 45.014709 C 28.158752 45.014709 27.093445 43.949402 27.093445 42.63739 C 27.093445 41.326721 28.158752 40.261353 29.469421 40.261353 C 30.781433 40.261353 31.846741 41.326721 31.846741 42.63739 C 31.846741 43.949402 30.781433 45.014709 29.469421 45.014709 M 30.002747 36.932068 L 24.564087 23.6427 C 24.312073 23.028015 23.602722 22.72937 22.989441 22.982727 L 20.436096 24.026733 C 19.820068 24.277405 19.524109 24.988037 19.77478 25.601379 L 25.190735 38.832031 C 24.289429 39.845398 23.737427 41.176025 23.737427 42.63739 C 23.737427 45.804016 26.304077 48.370728 29.469421 48.370728 C 32.636108 48.370728 35.202759 45.804016 35.202759 42.63739 C 35.202759 39.652039 32.918762 37.200012 30.002747 36.932068"/>
        </g>
    </g>
</svg>
