<svg width="71" height="63" viewBox="0 0 71 63" xmlns="http://www.w3.org/2000/svg" xmlns:xlink="http://www.w3.org/1999/xlink">
    <g id="monitorwithgraph-copy">
        <g id="g541">
            <path id="path543" fill="#080e17" stroke="none" d="M 52.421448 9.104065 C 53.033447 9.108032 53.633453 9.752075 53.662781 10.421387 C 53.692108 12.961365 53.71344 15.189392 53.602783 17.572021 C 53.586761 17.90271 53.408112 18.072021 53.085449 18.057373 C 52.964111 18.052063 52.836121 18.02002 52.725433 17.968018 C 52.228119 17.732056 51.956116 17.2547 51.584106 16.880066 C 51.309448 16.604065 50.985443 16.374695 50.674774 16.132019 C 50.452118 15.957397 49.752106 16.006714 49.5401 16.193359 L 42.190765 23.465393 C 40.588104 25.049377 39.382782 25.173401 37.786774 23.49469 C 37.056122 22.726685 36.325439 21.95874 35.59079 21.193359 C 35.285431 20.876038 34.474762 20.912048 34.129456 21.253357 C 33.940125 21.438721 33.74411 21.617371 33.561432 21.808044 C 32.465454 22.96405 31.378784 24.129395 30.278778 25.278687 C 29.360107 26.237366 28.437439 27.192017 27.496124 28.125366 C 27.121429 28.497375 26.706787 28.838684 26.273438 29.140076 C 25.266785 29.83606 24.008118 30.017395 22.965454 29.07074 C 20.605438 26.930725 18.405457 24.628052 16.262787 22.273376 C 15.989441 21.973389 15.990784 21.486694 16.225433 21.182739 C 16.712097 20.545349 17.284119 19.998718 17.94278 19.540039 C 18.162781 19.386719 18.865448 19.425354 19.074768 19.626709 C 20.312103 20.826721 21.544098 22.034729 22.785431 23.230713 C 23.164124 23.598694 23.566772 23.941406 23.957458 24.296021 C 24.30011 24.605408 25.057434 24.585388 25.434784 24.258728 C 25.834778 23.910706 26.254791 23.585388 26.630768 23.213379 C 28.708099 21.161377 30.768097 19.092041 32.848114 17.042725 C 33.318787 16.578735 33.841431 16.169373 34.346771 15.742737 C 34.600098 15.528015 35.170776 15.541382 35.468109 15.752075 C 35.792114 15.981384 36.138763 16.184021 36.432098 16.449402 C 36.924103 16.893372 37.378784 17.378723 37.849457 17.845398 C 38.226776 18.218689 38.600098 18.594727 38.981445 18.96405 C 39.445435 19.414734 40.350769 19.460022 40.801453 19.066711 L 46.658783 13.124023 C 46.817444 12.926697 46.785431 12.186707 46.650787 11.978699 C 46.210785 11.293396 45.50943 10.878723 44.954773 10.312073 C 44.621429 9.973389 44.366791 9.405396 44.522766 9.265381 C 44.730774 9.080017 44.9841 9.021362 45.257446 9.029358"/>
        </g>
        <g id="g545">
            <path id="path547" fill="#080e17" stroke="none" d="M 53.680115 37.409363 C 53.677429 38.066711 53.045441 38.661377 52.382782 38.63739 C 50.933441 38.585388 49.482758 38.684021 48.032104 38.614685 C 47.430756 38.585388 46.801422 37.744019 46.776093 37.132019 C 46.764099 36.868042 46.737427 36.605347 46.737427 36.342712 L 46.742767 23.273376 C 46.740112 22.29071 47.109436 21.48407 47.814758 20.812073 C 48.288086 20.360046 48.677429 19.81073 49.296112 19.525391 C 49.541443 19.413391 49.797424 19.386719 50.060089 19.485352 C 50.181427 19.530701 50.31076 19.584045 50.404114 19.66803 C 50.894775 20.108032 51.39209 20.541382 51.85611 21.008057 C 53.709442 22.88269 53.708099 22.886719 53.717438 25.528015"/>
        </g>
        <g id="g549">
            <path id="path551" fill="#080e17" stroke="none" d="M 43.408112 37.593384 C 43.398773 38.026733 42.78009 38.625366 42.357422 38.621399 C 40.776093 38.610718 39.194763 38.598694 37.614777 38.578735 C 37.486755 38.57605 37.364105 38.49469 37.234772 38.46936 C 36.950775 38.40802 36.494781 37.909363 36.480103 37.629395 C 36.461426 37.238708 36.408112 36.84668 36.406769 36.453369 L 36.253448 26.956055 C 36.172089 26.438721 36.368103 26.044067 36.644104 25.96405 C 36.908112 25.888062 37.156097 25.925354 37.405426 26.060059 C 37.9841 26.373352 38.554779 26.702698 39.149445 26.981384 C 39.648102 27.214722 40.189423 27.201355 40.68811 26.990723 C 41.294769 26.73468 41.870758 26.412048 42.464111 26.122681 C 42.846771 25.937378 43.294769 26.170715 43.378754 26.526733 C 43.560089 27.31073 43.482758 28.100037 43.496094 28.886719"/>
        </g>
        <g id="g553">
            <path id="path555" fill="#080e17" stroke="none" d="M 15.986755 31.96936 C 15.986755 30.250732 15.9841 28.532043 15.990753 26.812073 C 15.992096 26.686707 16.046753 26.552063 16.105438 26.438721 C 16.158752 26.33606 16.23877 26.225403 16.334747 26.170715 C 16.441437 26.110718 16.588104 26.074707 16.705414 26.094727 C 16.828094 26.114685 16.957428 26.194702 17.048096 26.284058 C 18.944092 28.126709 20.840088 29.968018 22.71875 31.828064 C 23.098755 32.204041 23.321411 32.696045 23.334747 33.248047 C 23.368103 34.700073 23.442749 36.152039 23.268097 37.601379 C 23.226746 37.938721 22.525421 38.613403 22.173431 38.636047 C 22.041412 38.645386 21.910767 38.685364 21.778748 38.684021 C 20.194763 38.652039 18.609436 38.616028 17.025421 38.580017 C 16.624084 38.572021 16.00943 37.940063 16.010773 37.521362 C 16.010773 37.389404 15.982758 37.258728 15.982758 37.128052 C 15.981415 35.40802 15.982758 33.689392 15.982758 31.96936"/>
        </g>
        <g id="g557">
            <path id="path559" fill="#080e17" stroke="none" d="M 33.234772 37.616028 C 33.181458 38.061401 32.573456 38.630737 32.138794 38.616028 C 30.553436 38.568054 28.969452 38.673401 27.384125 38.610718 C 26.965454 38.594727 26.314789 37.98407 26.272125 37.608032 C 26.089447 36.025391 26.077454 34.281372 26.224121 32.697388 C 26.260132 32.29071 26.468109 31.930725 26.749451 31.653381 C 28.544128 29.892029 30.350769 28.146729 32.15744 26.400024 C 32.35611 26.209351 32.665436 26.112061 32.889465 26.264038 C 33.073456 26.388062 33.236115 26.682678 33.245453 26.90802"/>
        </g>
        <g id="g561">
            <path id="path563" fill="#080e17" stroke="none" d="M 66.660095 1.806702 L 2.689423 1.806702 C 2.252106 1.806702 1.893433 2.165405 1.893433 2.604065 L 1.893433 45.314697 C 1.893433 45.753357 2.252106 46.113403 2.689423 46.113403 L 24.586761 49.052063 L 45.816101 49.052063 L 66.660095 46.113403 C 67.097443 46.113403 67.457428 45.753357 67.457428 45.314697 L 67.457428 2.604065 C 67.457428 2.165405 67.097443 1.806702 66.660095 1.806702 M 64.136108 5.126709 L 64.136108 42.793396 L 5.212097 42.793396 L 5.212097 5.126709 Z"/>
        </g>
        <g id="g565">
            <path id="path567" fill="#080e17" stroke="none" d="M 46.30011 59.644043 L 40.170776 59.644043 L 39.374786 52.330688 C 39.374786 51.893372 39.016113 51.533386 38.576111 51.533386 L 32.232117 51.533386 C 31.793457 51.533386 31.434784 51.893372 31.434784 52.330688 L 30.638794 59.644043 L 24.288116 59.644043 C 23.8508 59.644043 23.493469 60.002686 23.493469 60.441406 L 23.493469 61.150696 C 23.493469 61.589355 23.8508 61.948059 24.288116 61.948059 L 46.30011 61.948059 C 46.7388 61.948059 47.097443 61.589355 47.097443 61.150696 L 47.097443 60.441406 C 47.097443 60.002686 46.7388 59.644043 46.30011 59.644043"/>
        </g>
    </g>
</svg>
