<svg width="49" height="75" viewBox="0 0 49 75" xmlns="http://www.w3.org/2000/svg" xmlns:xlink="http://www.w3.org/1999/xlink">
    <g id="seatedperson-copy">
        <g id="g385">
            <path id="path387" fill="#080e17" stroke="none" d="M 16.638779 17.570679 C 20.71077 17.570679 24.010773 14.270752 24.010773 10.200073 C 24.010773 6.129395 20.71077 2.829346 16.638779 2.829346 C 12.566772 2.829346 9.266785 6.129395 9.266785 10.200073 C 9.266785 14.270752 12.566772 17.570679 16.638779 17.570679"/>
        </g>
        <g id="g389">
            <path id="path391" fill="#080e17" stroke="none" d="M 11.038773 26.537354 C 9.71344 18.052002 21.946777 15.477417 23.91745 24.1521 L 27.249435 40.768066 L 39.68544 40.793335 C 43.316101 40.793335 45.204102 43.697388 45.204102 46.384033 L 45.204102 68.977417 C 45.204102 74.462708 37.390778 74.437378 37.390778 68.878662 L 37.390778 51.296021 L 21.509445 51.296021 C 17.805435 51.296021 15.482773 48.754761 14.902771 45.850708"/>
        </g>
        <g id="g393">
            <path id="path395" fill="#080e17" stroke="none" d="M 29.71077 53.522705 C 33.837448 53.522705 33.817444 59.625366 29.768112 59.625366 L 18.362778 59.625366 C 12.818771 59.625366 7.288116 55.460083 5.842773 49.021362 L 2.288116 31.74939 C 1.568115 27.82666 7.212112 26.522705 8.045441 30.536011 L 11.41478 47.061401 C 12.35878 51.272095 15.481445 53.522705 19.257446 53.522705"/>
        </g>
    </g>
</svg>
