<svg width="66" height="54" viewBox="0 0 66 54" xmlns="http://www.w3.org/2000/svg" xmlns:xlink="http://www.w3.org/1999/xlink">
    <g id="share-rightarrow-copy">
        <g id="g815">
            <path id="path817" fill="#080e17" stroke="none" d="M 27.122772 36.814697 C 24.945435 36.814697 22.76944 36.817383 20.594757 36.813354 C 20.136078 36.812012 19.677429 36.797363 19.220093 36.778687 C 18.481415 36.752014 17.924103 36.380066 17.465424 35.834717 C 17.164093 35.477356 16.981415 35.060059 16.930756 34.594727 C 16.893433 34.253357 16.865417 33.909363 16.865417 33.568054 C 16.862762 29.329346 16.86676 25.090698 16.873413 20.853394 C 16.873413 20.510681 16.905426 20.166687 16.926758 19.824036 C 16.994751 18.805359 17.906769 17.826721 18.894745 17.746704 C 19.580078 17.692017 20.266754 17.653381 20.952087 17.652039 C 24.732086 17.646729 28.512085 17.660034 32.292084 17.660034 C 33.206757 17.660034 34.124084 17.638733 35.037415 17.612061 C 35.721436 17.592041 36.346771 16.997375 36.414764 16.317383 C 36.458771 15.862732 36.513428 15.405396 36.513428 14.949402 C 36.516083 13.232056 36.48941 11.513367 36.492096 9.794739 C 36.493439 8.765381 36.501434 7.732056 36.56543 6.705383 C 36.5961 6.258728 36.721436 5.797363 36.900085 5.385376 C 37.18808 4.722717 37.728088 4.282715 38.442749 4.158691 C 38.761414 4.104065 39.13208 4.177368 39.441437 4.293396 C 39.754761 4.410706 40.050751 4.620056 40.302765 4.84668 C 40.985413 5.456055 41.658752 6.080017 42.306763 6.728027 C 48.061432 12.474731 53.809418 18.228027 59.556091 23.982727 C 60.121429 24.549377 60.685425 25.125366 61.19342 25.742737 C 61.477417 26.089355 61.678772 26.518738 61.854767 26.936035 C 61.933411 27.124023 61.918762 27.398682 61.845428 27.593384 C 61.726746 27.912048 61.558746 28.225403 61.348083 28.492065 C 60.993439 28.937378 60.60675 29.364014 60.202759 29.768066 C 53.972076 36.010681 47.737427 42.24939 41.498749 48.48407 C 41.013428 48.96936 40.502747 49.432068 39.968079 49.862732 C 39.708099 50.072021 39.370758 50.193359 39.058746 50.332031 C 38.961426 50.376038 38.829437 50.368042 38.720093 50.348022 C 37.424103 50.104065 36.457428 48.992065 36.485413 47.685364 C 36.505432 46.769348 36.432098 45.853394 36.460083 44.942688 C 36.522766 42.766724 36.324097 40.593384 36.425415 38.418701 C 36.434753 38.196045 36.350769 37.96936 36.31076 37.745361 C 36.240082 37.354736 35.741425 36.88269 35.36676 36.865356 C 34.796082 36.837402 34.224091 36.801392 33.6521 36.798706 C 31.476105 36.792053 29.300079 36.796021 27.122772 36.796021"/>
        </g>
        <g id="g819">
            <path id="path821" fill="#080e17" stroke="none" d="M 2.390778 27.104065 C 2.390778 23.325378 2.384125 19.549377 2.394775 15.772034 C 2.398773 14.513367 2.41745 13.253357 2.480103 11.996033 C 2.556122 10.472046 3.104126 9.096069 3.97345 7.854736 C 4.834778 6.626709 5.896118 5.585388 7.113434 4.709351 C 7.95343 4.104065 8.880096 3.685364 9.882782 3.389404 C 11.546783 2.898682 13.228119 2.692017 14.960114 2.712036 C 18.165436 2.750732 21.369446 2.721375 24.576111 2.748047 C 24.902771 2.74939 25.262787 2.864014 25.546783 3.029358 C 25.946777 3.261353 26.202789 3.653381 26.332123 4.109375 C 26.524109 4.786682 26.485443 5.468018 26.35611 6.149353 C 26.262787 6.6427 25.653442 7.220032 25.172119 7.245361 C 24.488098 7.280029 23.801453 7.313354 23.116119 7.314697 C 19.912109 7.322693 16.706787 7.304016 13.500122 7.322693 C 11.837433 7.332031 10.380096 7.958679 9.076111 8.958679 C 8.806763 9.165405 8.562775 9.420044 8.352112 9.686707 C 7.333435 10.977356 6.694763 12.434692 6.641449 14.090698 C 6.585449 15.806702 6.586792 17.525391 6.586792 19.241394 C 6.589447 25.99469 6.602783 32.748047 6.604126 39.501404 C 6.604126 40.306702 6.649445 41.097351 6.849457 41.88269 C 7.110779 42.900024 7.573456 43.806702 8.218781 44.626709 C 8.574768 45.08136 9.008118 45.449402 9.486786 45.770691 C 10.45343 46.424072 11.496124 46.854736 12.680115 46.869385 C 13.480103 46.878723 14.281433 46.890686 15.082764 46.890686 C 18.288116 46.892029 21.493439 46.885376 24.696106 46.890686 C 25.460114 46.890686 26.242767 47.594727 26.376099 48.353394 C 26.47879 48.922729 26.481445 49.488037 26.385437 50.058716 C 26.272095 50.72937 25.662781 51.378723 25.049438 51.449402 C 24.709442 51.48938 24.366791 51.545349 24.026764 51.545349 C 20.593445 51.548035 17.158783 51.538696 13.725433 51.538696 C 12.806763 51.538696 11.900116 51.434692 10.990784 51.31604 C 9.593445 51.134705 8.346771 50.594727 7.202789 49.804016 C 5.966766 48.950684 4.904114 47.906738 4.046783 46.677368 C 3.116119 45.34137 2.512115 43.865356 2.458771 42.212036 C 2.422791 41.069397 2.405457 39.924072 2.404114 38.780029 C 2.396118 34.888062 2.400116 30.996033 2.400116 27.104065"/>
        </g>
    </g>
</svg>
