<svg width="78" height="57" viewBox="0 0 78 57" xmlns="http://www.w3.org/2000/svg" xmlns:xlink="http://www.w3.org/1999/xlink">
    <g id="handshake-copy">
        <path id="path719" fill="#080e17" stroke="none" d="M 31.256104 46.160034 C 31.233429 46.048096 31.222778 45.930664 31.18277 45.825317 C 30.873444 45.009399 30.26944 44.501343 29.454773 44.23999 C 29.116089 44.13208 28.754761 44.165405 28.428101 44.288086 C 27.470764 44.645386 26.758759 45.7854 26.85611 46.764038 C 26.960114 47.798706 28.173431 48.580078 29.177429 48.278687 C 30.12677 47.993408 30.817444 47.434692 31.178772 46.5 C 31.220093 46.390747 31.232117 46.274658 31.256104 46.160034 M 25.654755 41.750732 C 25.584106 41.166748 25.334778 40.6427 24.850769 40.278687 C 24.118774 39.725342 22.926758 39.797363 22.246765 40.368042 C 21.608093 40.90271 21.110779 41.538696 20.817444 42.31604 C 20.598785 42.895996 20.654785 43.454712 21.077423 43.945435 C 21.574768 44.524048 22.216095 44.777344 22.946777 44.600098 C 24.285431 44.274658 25.204102 43.453369 25.614777 42.114746 C 25.648102 42.006714 25.640106 41.886719 25.654755 41.750732 M 20.508118 36.986694 C 20.388092 36.658691 20.322784 36.301392 20.140106 36.021362 C 19.681427 35.318726 19.020111 34.866699 18.189423 34.684082 C 18.077423 34.660034 17.956116 34.657349 17.842773 34.674683 C 17.732117 34.692017 17.621429 34.73877 17.516113 34.784058 C 16.862762 35.064087 16.313446 35.486694 15.916107 36.074707 C 15.290771 36.997437 15.21344 37.861328 16.130768 38.911987 C 16.853424 39.73877 17.960114 39.712036 18.680115 39.365356 C 19.314758 39.060059 19.849426 38.597412 20.205444 37.986694 C 20.373444 37.69873 20.408112 37.332031 20.508118 36.986694 M 43.112091 10.641357 C 41.909424 10.570679 40.778778 10.828003 39.726776 11.389404 C 37.033447 12.82666 34.517426 14.510742 32.388092 16.722656 C 30.768097 18.405396 29.15744 20.098755 27.548096 21.790771 C 27.388092 21.95874 27.26944 22.164063 27.130768 22.350708 C 26.770782 22.829346 26.846771 23.757324 27.294769 24.318726 C 27.706757 24.83606 28.617432 25.08667 29.193451 24.82666 C 29.510773 24.684082 29.837433 24.546753 30.125427 24.356079 C 32.066772 23.060059 33.994781 21.741333 35.941437 20.452026 C 37.012115 19.742676 38.078766 19.021362 39.200104 18.401367 C 40.874756 17.476074 42.700104 17.081421 44.608093 17.318726 C 46.112091 17.502686 47.605438 17.781372 49.092102 18.07605 C 49.665436 18.189331 50.190765 18.502686 50.572113 18.963989 C 51.061432 19.557373 50.929443 20.401367 50.134766 20.657349 C 49.91745 20.726685 49.677429 20.716064 49.452118 20.765381 C 49.233429 20.812012 48.997437 20.848022 48.808105 20.957397 C 48.585449 21.082764 48.4841 21.357422 48.614777 21.577393 C 49.272095 22.704102 50.329437 23.476074 51.212097 24.401367 C 53.633423 26.937378 56.226776 29.296021 58.83078 31.641357 C 59.174774 31.952026 59.57077 32.202759 59.950775 32.470703 C 60.236115 32.67334 61.002777 32.497437 61.221436 32.193359 C 61.289429 32.100098 61.406769 32.030762 61.44809 31.930664 C 61.718781 31.2854 62.022766 30.646729 62.222778 29.97876 C 62.389435 29.426758 62.456116 28.838745 62.518768 28.261353 C 62.580109 27.671997 62.466766 27.096069 62.217438 26.55603 C 62.07077 26.23877 61.908112 25.926758 61.730774 25.625366 C 59.71344 22.206665 57.694763 18.789429 55.670776 15.373413 C 55.492096 15.072021 55.289429 14.786743 55.088104 14.5 C 54.248108 13.308105 53.093445 12.510742 51.729431 12.094727 C 50.618774 11.756104 49.497437 11.409424 48.325439 11.290771 C 47.396088 11.197388 46.474762 11.028076 45.548096 10.909424 C 44.73877 10.808105 43.924103 10.730713 43.112091 10.641357 M 14.402771 28.769409 C 14.425446 28.977417 14.457428 29.561401 14.544098 30.135986 C 14.633423 30.725342 14.904114 31.252075 15.292114 31.697388 C 15.605438 32.054688 16.006775 32.293335 16.516113 32.206665 C 16.86145 32.146729 17.198761 32.041382 17.542786 31.990723 C 18.129425 31.905396 18.702759 31.972046 19.268097 32.165405 C 20.764099 32.681396 21.937439 33.585327 22.705444 34.982666 C 22.930756 35.39209 23.141449 35.809326 23.372101 36.213379 C 23.552094 36.522705 23.829437 36.744019 24.150757 36.893433 C 24.573425 37.089355 25.008118 37.261353 25.438782 37.445435 C 26.324097 37.822754 27.006775 38.449341 27.561432 39.220093 C 27.764099 39.502686 27.944092 39.809326 28.093445 40.122681 C 28.418762 40.810669 28.993439 41.166748 29.677429 41.405396 C 30.117432 41.558716 30.566772 41.701416 30.980103 41.911987 C 32.273438 42.573364 33.222778 43.573364 33.789429 44.920044 C 33.877441 45.130737 33.941437 45.364014 33.961426 45.592041 C 34.000092 46.05603 33.993439 46.524048 34.018768 46.98938 C 34.045441 47.488037 34.30545 47.862671 34.68811 48.161377 C 34.872101 48.30542 35.041443 48.474731 35.241425 48.589355 C 37.264099 49.756104 39.272095 50.952026 41.328094 52.05603 C 42.293427 52.574707 43.357422 52.524048 44.378784 52.080078 C 44.726776 51.928101 44.809448 51.117432 44.538757 50.848022 C 44.117432 50.428101 43.616089 50.1427 43.112091 49.854736 C 42.39743 49.449341 41.714783 49.001343 41.162781 48.385376 C 41.014771 48.220093 40.904114 47.998657 40.840118 47.784058 C 40.724091 47.394653 40.9841 46.87207 41.39209 46.594727 C 41.798767 46.318726 42.242767 46.182739 42.68811 46.466675 C 43.572113 47.030762 44.441437 47.621338 45.31076 48.210693 C 45.900116 48.606689 46.542755 48.877319 47.228088 49.046753 C 47.450775 49.104004 47.694763 49.150757 47.918762 49.121338 C 49.124115 48.962769 50.166779 48.513428 50.80545 47.395996 C 50.925446 47.184082 50.832092 46.56665 50.650757 46.416016 C 50.470764 46.268066 50.308105 46.092041 50.110779 45.974731 C 49.406769 45.560059 48.674774 45.192017 47.986755 44.754761 C 47.39743 44.380005 46.848114 43.937378 46.434784 43.356079 C 46.145447 42.949341 46.120117 42.517334 46.236115 42.034668 C 46.348114 41.574707 47.224091 41.050659 47.641449 41.300049 C 48.141449 41.598755 48.649445 41.884033 49.146759 42.189331 C 49.842773 42.616089 50.522766 43.069336 51.225433 43.488037 C 51.838776 43.853394 52.521423 44.025391 53.232117 44.014771 C 54.104095 44 54.806763 43.661377 55.248108 42.858765 C 55.432098 42.522705 55.292114 41.770752 54.985443 41.58667 C 54.186768 41.100098 53.372101 40.6427 52.593445 40.126709 C 52.110779 39.80542 51.660095 39.425415 51.23877 39.024048 C 50.992096 38.788086 50.821442 38.468018 50.638763 38.170654 C 50.44809 37.859985 50.693451 37.135986 51.029449 36.93335 C 51.581451 36.600098 52.154755 36.58667 52.68277 36.905396 C 53.582764 37.446655 54.436096 38.06543 55.334778 38.608032 C 55.829437 38.908081 56.36676 39.1521 56.908112 39.364014 C 57.35611 39.541382 57.829437 39.473389 58.265442 39.269409 C 58.801422 39.02002 59.245422 38.6521 59.624115 38.192017 C 60.254761 37.421387 60.273438 36.65332 59.629425 36.005371 C 59.218781 35.592041 58.802765 35.181396 58.364105 34.794678 C 53.889435 30.853394 49.573425 26.74939 45.528107 22.364014 C 45.053436 21.849365 44.549438 21.361328 44.048096 20.87207 C 43.413422 20.252075 42.65744 20.058716 41.792114 20.254761 C 41.220093 20.38269 40.65744 20.514771 40.158783 20.848022 C 38.993439 21.628052 37.818756 22.390747 36.656097 23.17334 C 34.910767 24.34668 33.169434 25.522705 31.434784 26.709351 C 30.653442 27.244019 29.797424 27.610718 28.905426 27.893433 C 28.694763 27.960083 28.433441 27.960083 28.216095 27.904053 C 26.80011 27.549438 25.640106 26.7854 24.86676 25.54541 C 24.501434 24.960083 24.26944 24.280029 24.044098 23.621338 C 23.89209 23.177368 23.954773 22.701416 24.12677 22.250732 C 24.421448 21.481323 24.785431 20.757324 25.33609 20.133423 C 27.964111 17.149414 30.644104 14.223999 33.937439 11.937378 C 34.112091 11.81604 34.226776 11.578735 34.316101 11.373413 C 34.428101 11.118652 34.345428 10.889404 34.113434 10.782715 C 33.909424 10.687988 33.673431 10.56543 33.466766 10.590698 C 31.032104 10.885376 28.613434 11.266724 26.234772 11.895996 C 25.317444 12.137329 24.477448 12.532104 23.670776 12.994751 C 22.957428 13.401367 22.353424 13.962769 21.873444 14.641357 C 21.670776 14.925415 21.500092 15.232056 21.312103 15.528076 C 19.058777 19.078735 17.068115 22.786743 14.885437 26.380005 C 14.506775 27.001343 14.39743 27.682739 14.402771 28.769409 M 62.80011 36.536011 C 62.81076 36.65332 62.825439 36.769409 62.829437 36.886719 C 62.885437 38.404053 62.218781 39.605347 61.112091 40.564087 C 60.496094 41.096069 59.789429 41.52002 59.125427 41.996094 C 58.737427 42.273438 58.449432 42.634766 58.246765 43.06543 C 58.046783 43.488037 57.874756 43.926758 57.637421 44.32666 C 57.27478 44.93335 56.817444 45.463989 56.189423 45.820068 C 55.885437 45.994751 55.586761 46.182739 55.26944 46.329346 C 54.501434 46.685425 53.88678 47.178711 53.574768 48.002686 C 53.450775 48.32666 53.253448 48.624023 53.092102 48.936035 C 52.588104 49.914673 51.766785 50.550659 50.816101 51.042725 C 50.610779 51.149414 50.389435 51.234741 50.165436 51.300049 C 48.894775 51.668091 47.876099 52.376099 47.00943 53.389404 C 46.402771 54.098755 45.578766 54.56543 44.672089 54.880005 C 42.982758 55.465332 42.660095 55.490723 40.952118 54.843994 C 40.408112 54.638672 39.865448 54.417358 39.348114 54.150757 C 38.372101 53.645386 37.398773 53.409424 36.324097 53.864014 C 36.017426 53.994751 35.634766 53.966675 35.285431 53.977417 C 34.062775 54.017334 32.985443 53.610718 32.062775 52.82666 C 31.618774 52.450684 31.226776 52.010742 30.820099 51.593384 C 30.472107 51.23877 30.03476 51.092041 29.560089 51.070679 C 29.21344 51.053345 28.860107 51.149414 28.513428 51.130737 C 28.169434 51.112061 27.820099 51.048096 27.490784 50.942749 C 26.342773 50.57605 25.426758 49.873413 24.712097 48.904053 C 24.437439 48.530762 24.168091 48.149414 23.873444 47.790771 C 23.642761 47.509399 23.302765 47.373413 22.958771 47.31604 C 22.384094 47.223999 21.794769 47.220093 21.221436 47.118652 C 19.992096 46.898682 19.105438 46.15332 18.476105 45.118652 C 18.176117 44.625366 17.977448 44.062744 17.776093 43.517334 C 17.518768 42.818726 17.146759 42.270752 16.350769 42.146729 C 16.234772 42.128052 16.118774 42.102661 16.00943 42.064087 C 14.480103 41.505371 13.489441 40.395996 12.932098 38.909424 C 12.597443 38.017334 12.634766 37.072021 12.86145 36.148071 C 12.945435 35.809326 13.086761 35.485352 13.201447 35.154663 C 13.445435 34.446655 13.352112 33.773438 12.97345 33.138672 C 12.797424 32.841431 12.589447 32.560059 12.389435 32.274658 C 12.225433 32.040039 11.696106 32.030762 11.461426 32.291992 C 11.153442 32.633423 10.894775 33.017334 10.590759 33.362671 C 10.436096 33.537354 10.162781 33.645386 9.964111 33.538696 C 8.730774 32.874756 7.508118 32.193359 6.30011 31.486694 C 5.292114 30.897339 4.302765 30.276001 3.318787 29.650757 C 3.128113 29.530762 2.94278 29.34668 2.846771 29.148071 C 2.754761 28.957397 2.732117 28.700073 2.765442 28.485352 C 2.802765 28.264038 2.924103 28.046753 3.042786 27.849365 C 4.833435 24.83606 6.696106 21.864014 8.406769 18.808105 C 11.032104 14.116089 13.878784 9.558716 16.53476 4.886719 C 16.880096 4.278687 17.232117 3.671997 17.586761 3.067993 C 17.846771 2.625366 18.376099 2.450684 18.77478 2.660034 C 20.949432 3.797363 23.064117 5.037354 25.148102 6.329346 C 25.720093 6.685425 25.842773 7.208008 25.641449 7.840088 C 25.573425 8.052002 25.552094 8.294678 25.573425 8.517334 C 25.594757 8.750732 25.758759 8.932007 25.97345 9.034668 C 26.074768 9.082764 26.212097 9.124023 26.313446 9.096069 C 28.808105 8.43335 31.35611 8.133423 33.921448 7.945435 C 35.224091 7.850708 36.4841 7.965332 37.690765 8.512085 C 38.36145 8.817383 39.060089 8.764038 39.737427 8.505371 C 40.62677 8.164063 41.553436 8.074707 42.492096 8.074707 C 44.012115 8.07605 45.516113 8.160034 47.022766 8.447998 C 48.277435 8.687988 49.537445 8.93335 50.801422 9.129395 C 51.092102 9.174683 51.522766 8.752075 51.454773 8.465332 C 51.374756 8.128052 51.27478 7.796021 51.198761 7.457397 C 51.134766 7.177368 51.350769 6.701416 51.588104 6.544067 C 51.782776 6.414673 51.965424 6.265381 52.166779 6.148071 C 54.185425 4.974731 56.205444 3.804077 58.226776 2.633423 C 58.521423 2.463989 58.980103 2.561401 59.173431 2.824097 C 59.378754 3.106689 59.616089 3.368042 59.792114 3.668091 C 60.569427 4.972046 61.322754 6.290771 62.0961 7.598755 C 63.464111 9.910767 64.838776 12.220093 66.210754 14.529419 C 66.628113 15.232056 67.050781 15.932007 67.462769 16.638672 C 69.754761 20.574707 72.044098 24.512085 74.334778 28.452026 C 74.505432 28.74939 74.400116 29.213379 74.138763 29.395996 C 73.945435 29.528076 73.766754 29.680054 73.568115 29.800049 C 71.477448 31.080078 69.349426 32.297363 67.209442 33.492065 C 66.961426 33.63208 66.488098 33.510742 66.260101 33.254761 C 65.878754 32.825317 65.68277 32.236084 65.122772 31.962769 C 64.864105 31.838745 64.658783 31.862671 64.505432 32.083984 C 64.037445 32.753418 63.753448 33.522705 63.332092 34.217407 C 62.734772 35.205322 62.753448 35.216064 62.80011 36.536011"/>
    </g>
</svg>
