<svg width="70" height="63" viewBox="0 0 70 63" xmlns="http://www.w3.org/2000/svg" xmlns:xlink="http://www.w3.org/1999/xlink">
    <g id="payment-copy">
        <g id="g569">
            <path id="path571" fill="#080e17" stroke="none" d="M 52.53476 58.002686 C 56.122742 56.268066 59.678741 54.809387 62.998749 52.602722 C 63.90274 52.002686 64.78009 51.357361 65.625427 50.677368 C 67.161407 49.493347 68.498749 47.738708 67.364075 46.196045 C 66.584076 45.133362 65.178741 45.165344 64.470764 45.506714 C 62.732086 46.342712 60.981415 47.149353 59.222748 47.945374 C 55.650757 49.753357 53.258759 50.100037 50.362762 50.540039 C 47.465424 50.981384 46.080078 50.572021 44.732086 50.324036 C 43.382751 50.077393 38.302765 48.650696 38.302765 48.650696 C 38.092072 48.526733 37.452087 48.398682 37.660095 47.597351 C 37.766754 47.202698 38.358765 47.141357 38.612091 47.204041 C 38.612091 47.204041 44.758759 48.052063 47.164093 48.497375 C 48.277405 48.457397 49.288086 48.065369 50.253418 47.562683 C 50.56543 47.401367 50.821411 47.114685 51.068085 46.852051 C 51.880096 45.988037 51.742767 44.685364 50.790741 44.004028 C 50.294739 43.650696 49.761414 43.381348 49.177429 43.206726 C 46.290741 42.342712 43.437408 41.369385 40.538757 40.546692 C 39.149414 40.150696 37.756073 39.736023 36.334747 39.505371 C 34.312073 39.180054 32.270752 38.960022 30.208099 39.261353 L 22.318756 40.258728 C 21.666748 40.364014 21.044098 41.086731 20.9841 41.789368 L 20.112091 57.329346 C 20.108093 57.580017 20.329407 57.758728 20.542755 57.832031 C 20.653412 57.869385 20.80542 57.920044 20.890747 57.874695 C 21.63208 57.474731 22.344086 57.014709 23.102753 56.656067 C 23.757416 56.348022 24.461426 56.144043 25.209412 56.306702 C 25.209412 56.306702 35.121429 57.948059 40.412079 59.105347 C 42.900085 59.649353 46.138763 60.558716 48.504089 59.640015 C 50.425415 58.894714 52.53476 58.002686 52.53476 58.002686"/>
        </g>
        <g id="g573">
            <path id="path575" fill="#080e17" stroke="none" d="M 15.842773 57.041382 C 15.77475 57.386719 15.585419 57.709351 15.432098 58.034729 C 15.265411 58.389404 14.921417 58.554688 14.580078 58.652039 C 14.237427 58.748047 13.865417 58.777405 13.505432 58.781372 C 11.813416 58.793396 10.121429 58.786682 8.429413 58.786682 C 8.428101 58.796021 8.428101 58.806702 8.428101 58.81604 C 6.736084 58.7854 5.045441 58.773376 3.354767 58.713379 C 2.845428 58.696045 2.482758 58.370728 2.260101 57.896057 C 2.1521 57.670715 2.057434 57.445374 2.125427 57.201355 L 3.921417 41.744019 C 3.957428 41.388062 4.061432 41.037354 4.153412 40.689392 C 4.270752 40.253357 5.060089 39.598694 5.501434 39.590698 C 6.468079 39.569397 7.444092 39.474731 8.39743 39.582703 C 10.801422 39.850708 13.216095 39.962708 15.624084 40.156067 C 15.994751 40.185364 16.340088 40.334717 16.5961 40.588013 C 16.946747 40.93335 17.229431 41.401367 17.154755 41.881348"/>
        </g>
        <g id="g577">
            <path id="path579" fill="#ffffff" stroke="none" d="M 13.364105 54.760071 C 13.364105 53.717346 12.518768 52.870728 11.474762 52.870728 C 10.432098 52.870728 9.585449 53.717346 9.585449 54.760071 C 9.585449 55.804016 10.432098 56.650696 11.474762 56.650696 C 12.518768 56.650696 13.364105 55.804016 13.364105 54.760071"/>
        </g>
        <g id="g581">
            <path id="path583" fill="#080e17" stroke="none" d="M 48.18811 3.752014 C 38.868103 3.752014 31.31076 11.308044 31.31076 20.629395 C 31.31076 29.950684 38.868103 37.505371 48.18811 37.505371 C 57.50943 37.505371 65.06543 29.950684 65.06543 20.629395 C 65.06543 11.308044 57.50943 3.752014 48.18811 3.752014 M 48.18811 6.774719 C 55.826782 6.774719 62.044098 12.98938 62.044098 20.629395 C 62.044098 28.268066 55.826782 34.482727 48.18811 34.482727 C 40.549438 34.482727 34.333435 28.268066 34.333435 20.629395 C 34.333435 12.98938 40.549438 6.774719 48.18811 6.774719"/>
        </g>
        <g id="g585">
            <path id="path587" fill="#080e17" stroke="none" d="M 49.220093 19.936035 C 45.496094 19.138733 44.62677 18.242737 44.62677 16.646729 L 44.62677 16.598694 C 44.62677 15.074707 46.026764 13.865356 48.228119 13.865356 C 49.80011 13.865356 51.178772 14.301392 52.605438 15.34137 C 52.77478 15.461365 52.944092 15.510681 53.162781 15.510681 C 53.669434 15.510681 54.081451 15.098694 54.081451 14.590698 C 54.081451 14.22937 53.862762 13.962708 53.669434 13.817383 C 52.380096 12.890686 51.020111 12.374695 49.322784 12.218689 L 49.322784 10.082703 C 49.322784 9.682678 48.996094 9.356018 48.598785 9.356018 L 48.285431 9.356018 C 47.88678 9.356018 47.56012 9.682678 47.56012 10.082703 L 47.56012 12.204041 C 44.724121 12.476013 42.714783 14.313354 42.714783 16.768066 L 42.714783 16.81604 C 42.714783 19.597351 44.50412 20.854736 48.39743 21.701355 C 51.95343 22.452026 52.798767 23.345398 52.798767 24.918701 L 52.798767 24.965393 C 52.798767 26.634705 51.30011 27.844055 49.026764 27.844055 C 46.873444 27.844055 45.277435 27.190735 43.68277 25.837402 C 43.561432 25.716064 43.342773 25.618713 43.10144 25.618713 C 42.594788 25.618713 42.18277 26.030701 42.18277 26.562683 C 42.18277 26.876038 42.328094 27.1427 42.545441 27.289368 C 44.064117 28.49469 45.694763 29.222717 47.56012 29.46405 L 47.56012 31.553345 C 47.56012 31.952026 47.88678 32.278687 48.285431 32.278687 L 48.598785 32.278687 C 48.996094 32.278687 49.322784 31.952026 49.322784 31.553345 L 49.322784 29.534729 C 52.4841 29.3974 54.733429 27.564026 54.733429 24.773376 L 54.733429 24.72406 C 54.733429 22.13739 52.992096 20.758728 49.220093 19.936035"/>
        </g>
    </g>
</svg>
