<svg width="61" height="51" viewBox="0 0 61 51" xmlns="http://www.w3.org/2000/svg" xmlns:xlink="http://www.w3.org/1999/xlink">
    <g id="carfront-copy">
        <path id="path271" fill="#080e17" stroke="none" d="M 48.130798 32.962708 C 46.150757 32.962708 44.546753 31.358704 44.546753 29.378723 C 44.546753 27.400024 46.150757 25.794678 48.130798 25.794678 C 50.109436 25.794678 51.714783 27.400024 51.714783 29.378723 C 51.714783 31.358704 50.109436 32.962708 48.130798 32.962708 M 12.292114 32.962708 C 10.313416 32.962708 8.709412 31.357361 8.709412 29.378723 C 8.709412 27.400024 10.313416 25.794678 12.292114 25.794678 C 14.270752 25.794678 15.876099 27.400024 15.876099 29.378723 C 15.876099 31.357361 14.270752 32.962708 12.292114 32.962708 M 16.474792 7.87738 L 43.949463 7.87738 L 47.533447 18.628052 L 12.889465 18.628052 Z M 59.480103 18.628052 C 59.480103 16.657349 57.86676 15.044067 55.896118 15.044067 L 52.092102 15.044067 L 48.956116 6.534729 C 48.502747 5.301392 47.120117 3.925354 45.885437 3.476013 C 45.885437 3.476013 41.56012 1.904053 30.212097 1.904053 C 18.864075 1.904053 14.538757 3.476013 14.538757 3.476013 C 13.302795 3.925354 11.921448 5.301392 11.466797 6.536011 L 8.332092 15.044067 L 4.529419 15.044067 C 2.557434 15.044067 0.944092 16.657349 0.944092 18.628052 C 0.944092 20.598694 2.557434 22.212036 4.529419 22.212036 L 5.690796 22.212036 L 4.757446 24.748047 C 4.302795 25.981384 3.932129 28.064026 3.932129 29.378723 L 3.932129 44.90802 C 3.932129 47.536011 6.081421 49.686707 8.709412 49.686707 C 11.337463 49.686707 13.488098 47.536011 13.488098 44.90802 L 13.488098 42.52002 L 46.936096 42.52002 L 46.936096 44.90802 C 46.936096 47.536011 49.085449 49.686707 51.714783 49.686707 C 54.342773 49.686707 56.492126 47.536011 56.492126 44.90802 L 56.492126 29.378723 C 56.492126 28.064026 56.12146 25.981384 55.666748 24.748047 L 54.732117 22.212036 L 55.896118 22.212036 C 57.86676 22.212036 59.480103 20.598694 59.480103 18.628052"/>
    </g>
</svg>
