<svg width="57" height="59" viewBox="0 0 57 59" xmlns="http://www.w3.org/2000/svg" xmlns:xlink="http://www.w3.org/1999/xlink">
    <g id="pedestrianincrosswalk-copy">
        <g id="g1029">
            <path id="path1031" fill="#080e17" stroke="none" d="M 29.770752 10.938721 C 32.048096 11.114685 34.036072 9.413391 34.21344 7.153381 C 34.389404 4.87738 32.701416 2.890686 30.428101 2.713379 C 28.149414 2.536011 26.161438 4.225342 25.985413 6.498718 C 25.808105 8.773376 27.502747 10.761353 29.770752 10.938721"/>
        </g>
        <g id="g1033">
            <path id="path1035" fill="#080e17" stroke="none" d="M 26.277405 12.626709 C 27.088074 12.068054 28.089417 11.686707 29.170776 11.769348 C 30.589417 11.892029 31.761414 12.762695 32.456055 13.838684 L 36.624084 22.090698 L 42.301392 26.000061 C 42.792053 26.366699 43.078735 26.980042 43.037415 27.634705 C 42.956055 28.654724 42.057434 29.417358 41.021423 29.33606 C 40.722778 29.32135 40.477417 29.200012 40.178772 29.064026 L 33.981445 24.801392 C 33.790771 24.638733 33.641418 24.460022 33.518738 24.242737 L 31.952087 21.150696 L 30.089417 29.389404 L 37.413391 38.037354 C 37.576111 38.31073 37.685425 38.610718 37.753418 38.922729 L 39.728088 49.366699 C 39.714722 49.598694 39.756104 49.748047 39.741394 49.938721 C 39.618774 51.477356 38.270752 52.622681 36.730774 52.498718 C 35.465393 52.404053 34.510742 51.450684 34.212097 50.292053 L 32.346741 40.501404 L 26.406738 33.993347 L 25.017395 40.338684 C 24.976074 40.638733 24.581421 41.265381 24.457397 41.522705 L 18.761414 51.13739 C 18.182739 52.022705 17.234741 52.58136 16.138733 52.498718 C 14.600098 52.37738 13.449402 51.029358 13.573425 49.48938 C 13.605408 49.053345 13.789429 48.604065 13.946777 48.29071 L 19.256104 39.385376 L 23.669434 19.776062 L 20.781433 22.117371 L 19.256104 29.105347 C 19.054749 29.988037 18.236084 30.725403 17.269409 30.6427 C 16.248108 30.560059 15.47876 29.676025 15.553406 28.641357 C 15.566772 28.558716 15.580078 28.477356 15.594727 28.396057 L 17.418762 20.253357 C 17.513428 19.885376 17.720093 19.584045 17.990723 19.353394"/>
        </g>
        <path id="path1037" fill="#080e17" stroke="none" d="M 0.329468 41.986694 L 0.329468 45.365356 L 4.577454 45.365356 L 4.577454 41.986694 Z"/>
        <path id="path1039" fill="#080e17" stroke="none" d="M 8.71875 41.986694 L 8.71875 45.365356 L 12.966919 45.365356 L 12.966919 41.986694 Z"/>
        <path id="path1041" fill="#080e17" stroke="none" d="M 25.604126 41.986694 L 25.604126 45.365356 L 29.853455 45.365356 L 29.853455 41.986694 Z"/>
        <path id="path1043" fill="#080e17" stroke="none" d="M 42.60144 41.986694 L 42.60144 45.365356 L 46.850769 45.365356 L 46.850769 41.986694 Z"/>
        <path id="path1045" fill="#080e17" stroke="none" d="M 50.989441 41.986694 L 50.989441 45.365356 L 55.237427 45.365356 L 55.237427 41.986694 Z"/>
        <path id="path1047" fill="#080e17" stroke="none" d="M 0.329468 54.298706 L 0.329468 57.674744 L 4.577454 57.674744 L 4.577454 54.298706 Z"/>
        <path id="path1049" fill="#080e17" stroke="none" d="M 8.71875 54.298706 L 8.71875 57.674744 L 12.966919 57.674744 L 12.966919 54.298706 Z"/>
        <path id="path1051" fill="#080e17" stroke="none" d="M 17.214783 54.298706 L 17.214783 57.674744 L 21.464111 57.674744 L 21.464111 54.298706 Z"/>
        <path id="path1053" fill="#080e17" stroke="none" d="M 34.21344 54.298706 L 34.21344 57.674744 L 38.461426 57.674744 L 38.461426 54.298706 Z"/>
        <path id="path1055" fill="#080e17" stroke="none" d="M 25.604126 54.298706 L 25.604126 57.674744 L 29.853455 57.674744 L 29.853455 54.298706 Z"/>
        <path id="path1057" fill="#080e17" stroke="none" d="M 42.60144 54.298706 L 42.60144 57.674744 L 46.850769 57.674744 L 46.850769 54.298706 Z"/>
        <path id="path1059" fill="#080e17" stroke="none" d="M 50.989441 54.298706 L 50.989441 57.674744 L 55.237427 57.674744 L 55.237427 54.298706 Z"/>
    </g>
</svg>
