<svg width="60" height="66" viewBox="0 0 60 66" xmlns="http://www.w3.org/2000/svg" xmlns:xlink="http://www.w3.org/1999/xlink">
    <g id="phoneinhand-copy">
        <path id="path491" fill="#080e17" stroke="none" d="M 44.77478 6.149353 L 44.77478 39.434692 L 27.402771 39.434692 L 27.402771 6.149353 Z M 44.77478 39.434692 Z M 35.938782 45.205383 C 34.909454 45.205383 34.07608 44.328064 34.07608 43.244019 C 34.07608 42.161377 34.909454 41.284058 35.938782 41.284058 C 36.968079 41.284058 37.804108 42.161377 37.804108 43.244019 C 37.804108 44.328064 36.968079 45.205383 35.938782 45.205383 M 43.428101 2.153381 L 28.525421 2.153381 C 26.368103 2.153381 24.604126 3.917358 24.604126 6.074707 L 24.604126 42.96405 C 24.604126 45.121399 26.368103 46.886719 28.525421 46.886719 L 43.428101 46.886719 C 45.585449 46.886719 47.349457 45.121399 47.349457 42.96405 L 47.349457 6.074707 C 47.349457 3.917358 45.585449 2.153381 43.428101 2.153381"/>
        <g id="g493">
            <path id="path495" fill="#080e17" stroke="none" d="M 18.666779 11.088074 C 16.772095 14.226685 11.334778 24.006714 9.322784 27.001404 C 7.861435 29.177368 7.580109 31.364075 8.072098 33.862732 C 8.770767 37.414734 9.260101 41.005371 9.884094 44.573364 C 10.272095 46.794739 10.057434 48.782715 8.746765 50.773376 C 6.492111 54.200073 4.486771 57.793396 2.404099 61.332031 C 1.932098 62.136047 1.573441 63.006714 1.132111 63.906738 C 4.582779 64.438721 22.173431 64.398743 25.309448 63.850708 C 26.434784 62.022705 27.648102 60.084045 28.821442 58.118713 C 29.468109 57.036072 30.296112 56.333374 31.558777 55.944031 C 33.162781 55.449402 34.832092 54.888062 36.194763 53.949402 C 38.826782 52.134705 41.428101 50.260071 43.95343 48.294739 C 40.673431 48.312073 31.208099 48.302734 29.246765 48.266724 C 25.421448 48.194702 23.557434 46.448059 23.148102 42.572021 C 23.072113 41.854736 23.086761 41.128052 23.076111 40.405396 C 23.00412 36.037354 21.702759 32.125366 18.794769 28.802734 C 18.561432 28.536072 18.390778 28.212036 17.918762 27.506714 C 19.829437 23.584045 20.977448 21.31604 22.685425 17.37738 C 23.86145 14.665405 21.697449 10.905396 18.666779 11.088074"/>
        </g>
        <g id="g497">
            <path id="path499" fill="#080e17" stroke="none" d="M 55.118774 14.99469 C 56.629425 14.338684 57.221436 12.864014 56.825439 11.404053 C 56.434784 9.972046 55.112091 9.036072 53.472107 9.32135 C 52.413452 9.506714 50.521454 10.220032 49.10144 10.72406 L 49.10144 17.16272 C 51.497437 16.468018 53.768097 15.58136 55.118774 14.99469"/>
        </g>
        <g id="g501">
            <path id="path503" fill="#080e17" stroke="none" d="M 55.017426 24.982727 C 56.632111 24.982727 57.952118 23.661377 57.952118 22.048035 C 57.952118 20.43335 56.632111 19.112061 55.017426 19.112061 L 49.10144 19.112061 L 49.10144 24.982727"/>
        </g>
        <g id="g505">
            <path id="path507" fill="#080e17" stroke="none" d="M 55.017426 26.81604 L 49.10144 26.81604 L 49.10144 32.685364 L 55.017426 32.685364 C 56.632111 32.685364 57.952118 31.365356 57.952118 29.750732 C 57.952118 28.136047 56.632111 26.81604 55.017426 26.81604"/>
        </g>
        <g id="g509">
            <path id="path511" fill="#080e17" stroke="none" d="M 52.768097 39.453369 C 54.06012 39.453369 55.116119 38.396057 55.116119 37.105347 C 55.116119 35.814697 54.06012 34.757385 52.768097 34.757385 L 49.10144 34.757385 L 49.10144 39.453369"/>
        </g>
    </g>
</svg>
