<svg width="55" height="56" viewBox="0 0 55 56" xmlns="http://www.w3.org/2000/svg" xmlns:xlink="http://www.w3.org/1999/xlink">
    <g id="gears-copy">
        <g id="g903">
            <path id="path905" fill="#080e17" fill-rule="evenodd" stroke="none" d="M 23.494781 32.860046 C 21.921448 31.282715 19.741425 30.31073 17.337433 30.31073 C 14.937439 30.31073 12.758759 31.282715 11.185425 32.860046 C 9.608093 34.43335 8.636108 36.613342 8.636108 39.014709 C 8.636108 41.417358 9.608093 43.596069 11.185425 45.169373 C 12.758759 46.742676 14.937439 47.718689 17.337433 47.718689 C 19.741425 47.718689 21.921448 46.742676 23.494781 45.169373 C 25.068115 43.596069 26.042786 41.417358 26.042786 39.014709 C 26.042786 36.613342 25.068115 34.43335 23.494781 32.860046 M 19.18277 37.169373 C 18.710785 36.69873 18.061432 36.405396 17.337433 36.405396 C 16.618774 36.405396 15.965454 36.69873 15.494781 37.169373 C 15.021454 37.641357 14.730774 38.293396 14.730774 39.014709 C 14.730774 39.736023 15.021454 40.388062 15.494781 40.857361 C 15.965454 41.326721 16.618774 41.621399 17.337433 41.621399 C 18.061432 41.621399 18.710785 41.326721 19.18277 40.857361 C 19.6521 40.388062 19.945435 39.736023 19.945435 39.014709 C 19.945435 38.293396 19.6521 37.641357 19.18277 37.169373 M 17.337433 33.33606 C 15.76944 33.33606 14.350769 33.973389 13.324097 34.998718 C 12.298767 36.025391 11.661438 37.446716 11.661438 39.014709 C 11.661438 40.580017 12.298767 42.001343 13.324097 43.028015 C 14.350769 44.05603 15.76944 44.690735 17.337433 44.690735 C 18.905426 44.690735 20.326782 44.05603 21.352112 43.028015 C 22.381439 42.001343 23.016113 40.580017 23.016113 39.014709 C 23.016113 37.446716 22.381439 36.025391 21.352112 34.998718 C 20.326782 33.973389 18.905426 33.33606 17.337433 33.33606 M 27.408112 9.593384 C 28.377441 10.796021 28.88678 12.368042 28.706787 14.025391 C 28.529449 15.684021 27.698761 17.113342 26.496094 18.08136 C 25.293427 19.05072 23.722778 19.564026 22.06543 19.384033 C 20.406769 19.204041 18.976105 18.372009 18.008118 17.169373 C 17.038788 15.966736 16.529449 14.394714 16.705444 12.737366 C 16.882782 11.08136 17.717438 9.652039 18.920105 8.682678 C 20.118774 7.712036 21.693451 7.201355 23.350769 7.381348 C 25.008118 7.558716 26.438782 8.390686 27.408112 9.593384 M 24.116119 12.246704 C 24.404114 12.608032 24.558777 13.080017 24.506775 13.57605 C 24.452118 14.070679 24.200104 14.500061 23.841431 14.786682 C 23.482788 15.08136 23.00943 15.233398 22.513428 15.180054 C 22.017426 15.129395 21.590759 14.87738 21.298767 14.518677 C 21.008118 14.156067 20.854767 13.685364 20.909454 13.189392 C 20.962769 12.693359 21.212097 12.264038 21.573425 11.973389 C 21.932098 11.682678 22.405426 11.530701 22.901428 11.582703 C 23.398773 11.63739 23.822784 11.886719 24.116119 12.246704 M 23.129425 9.466736 C 24.206787 9.582703 25.140106 10.125366 25.77478 10.912048 C 26.406769 11.696045 26.73877 12.721375 26.621429 13.802734 C 26.505432 14.884033 25.962769 15.817383 25.177429 16.448059 C 24.39212 17.080017 23.368103 17.414734 22.286774 17.294678 C 21.206787 17.181396 20.276093 16.636047 19.641449 15.853394 C 19.005432 15.069397 18.677429 14.042725 18.790771 12.962708 C 18.908112 11.881348 19.452118 10.949402 20.236115 10.31604 C 21.020111 9.682678 22.046783 9.350708 23.129425 9.466736 M 25.177429 4.582703 L 25.221436 2.782715 C 24.421448 2.445374 23.549438 2.352051 22.602783 2.501404 L 22.214783 4.258728 C 21.609436 4.29071 21.017426 4.38269 20.44278 4.526733 L 19.584106 2.946716 C 18.725433 3.054688 17.920105 3.40802 17.177429 4.012024 L 17.720093 5.726685 C 17.462769 5.894714 17.214783 6.07605 16.972107 6.269348 C 16.746765 6.452026 16.529449 6.6427 16.322784 6.84668 L 14.784119 5.906677 C 14.093445 6.430725 13.576111 7.13739 13.234772 8.030701 L 14.56012 9.245361 C 14.290771 9.773376 14.072113 10.332031 13.908112 10.916016 L 12.105438 10.869385 C 11.772095 11.66803 11.676117 12.540039 11.828094 13.48407 L 13.584106 13.873352 C 13.614777 14.480042 13.704102 15.072021 13.854767 15.644043 L 12.270782 16.504028 C 12.378784 17.366699 12.734772 18.169373 13.336121 18.912048 L 15.050781 18.369385 C 15.217438 18.626709 15.401428 18.874695 15.594788 19.114685 C 15.77478 19.342712 15.969452 19.560059 16.169434 19.765381 L 15.230774 21.304016 C 15.757446 21.998718 16.462769 22.513367 17.354767 22.854675 L 18.569427 21.532043 C 19.0961 21.797363 19.6521 22.017395 20.23877 22.181396 L 20.194763 23.980042 C 20.993439 24.32135 21.86676 24.410706 22.809448 24.26001 L 23.198761 22.506714 C 23.80545 22.474731 24.39743 22.38269 24.969452 22.238708 L 25.828094 23.817383 C 26.690765 23.710693 27.492096 23.353394 28.237427 22.753357 L 27.696106 21.034729 C 27.952118 20.868042 28.201447 20.688049 28.440094 20.496033 C 28.665436 20.314697 28.884094 20.118713 29.089447 19.916016 L 30.628113 20.858704 C 31.322784 20.334717 31.840118 19.626709 32.181427 18.730713 L 30.854767 17.52002 C 31.125427 16.992065 31.340118 16.43335 31.506775 15.849365 L 33.30545 15.894714 C 33.644104 15.096069 33.737427 14.22406 33.588104 13.278687 L 31.83078 12.890686 C 31.80011 12.2854 31.705444 11.693359 31.561432 11.120056 L 33.141449 10.258728 C 33.03476 9.3974 32.680115 8.594727 32.076111 7.853394 L 30.36145 8.394714 C 30.194763 8.138733 30.012115 7.888062 29.818787 7.64801 C 29.640106 7.422729 29.446777 7.205383 29.242767 6.997375 L 30.184113 5.461365 C 29.65744 4.766724 28.95343 4.24939 28.057434 3.90802 L 26.845428 5.23468 C 26.318787 4.965393 25.756104 4.748047 25.177429 4.582703 M 46.506775 19.826721 C 47.476105 21.029358 47.988098 22.604065 47.808105 24.26001 C 47.632111 25.918701 46.797424 27.349365 45.594788 28.318726 C 44.39212 29.284058 42.820099 29.796021 41.162781 29.616028 C 39.505432 29.440063 38.078766 28.608032 37.109436 27.401367 C 36.140106 26.202698 35.62677 24.628052 35.804108 22.970703 C 35.9841 21.313354 36.816101 19.885376 38.018768 18.916016 C 39.221436 17.946716 40.794769 17.434692 42.45343 17.612061 C 44.109436 17.792053 45.537445 18.624023 46.506775 19.826721 M 43.216095 22.480042 C 43.506775 22.842712 43.658783 23.313354 43.606781 23.808044 C 43.554779 24.305359 43.301453 24.733398 42.94278 25.024048 C 42.581451 25.313354 42.112091 25.46936 41.614777 25.416016 C 41.118774 25.361389 40.690765 25.110718 40.400116 24.752014 C 40.110779 24.392029 39.956116 23.918701 40.010773 23.422729 C 40.06543 22.925354 40.31076 22.498718 40.672119 22.208069 C 41.03476 21.917358 41.50412 21.765381 42.000092 21.818726 C 42.497437 21.873352 42.925446 22.121399 43.216095 22.480042 M 42.228119 19.700012 C 43.308105 19.817383 44.242767 20.358704 44.873444 21.145386 C 45.505432 21.929382 45.838776 22.956055 45.722778 24.036011 C 45.605438 25.117371 45.061432 26.05072 44.277435 26.681396 C 43.493439 27.312012 42.468109 27.64801 41.38678 27.532043 C 40.304108 27.414734 39.374786 26.869385 38.742767 26.086731 C 38.108093 25.301392 37.776093 24.278687 37.89212 23.196045 C 38.006775 22.116028 38.550781 21.185364 39.334778 20.55072 C 40.121429 19.916016 41.148102 19.582703 42.228119 19.700012 M 44.27478 14.817383 L 44.320099 13.017395 C 43.521454 12.680054 42.649445 12.585388 41.705444 12.737366 L 41.316101 14.49469 C 40.710785 14.525391 40.118774 14.614685 39.544098 14.764038 L 38.68277 13.181396 C 37.824097 13.288025 37.021454 13.6427 36.276093 14.245361 L 36.821442 15.960022 C 36.564117 16.128052 36.313446 16.309387 36.074768 16.504028 C 35.846771 16.685364 35.630768 16.876038 35.424103 17.080017 L 33.882782 16.140015 C 33.194763 16.666687 32.674774 17.372009 32.333435 18.264038 L 33.661438 19.478699 C 33.393433 20.006714 33.172119 20.562683 33.00943 21.14801 L 31.208099 21.101379 C 30.870758 21.90271 30.777435 22.777344 30.926758 23.718689 L 32.68277 24.108032 C 32.716095 24.716064 32.806763 25.305359 32.956116 25.878723 L 31.369446 26.737366 C 31.477448 27.600037 31.837433 28.401367 32.437439 29.144043 L 34.1521 28.605347 C 34.320099 28.862732 34.500092 29.106689 34.694763 29.348022 C 34.876099 29.574707 35.068115 29.793396 35.272095 29.998718 L 34.332092 31.537354 C 34.85611 32.232056 35.56543 32.746704 36.456116 33.088013 L 37.670776 31.764038 C 38.197449 32.034729 38.754761 32.24939 39.341431 32.414734 L 39.292114 34.216064 C 40.094757 34.553345 40.969452 34.646729 41.910767 34.497375 L 42.297424 32.740051 C 42.904114 32.706726 43.496094 32.614685 44.068115 32.470703 L 44.930786 34.05072 C 45.792114 33.944031 46.594788 33.590698 47.336121 32.985352 L 46.797424 31.270691 C 47.054779 31.104065 47.30011 30.921387 47.538788 30.72937 C 47.766785 30.546692 47.981445 30.352051 48.190765 30.149353 L 49.729431 31.092041 C 50.42276 30.568054 50.937439 29.862732 51.278778 28.966736 L 49.957428 27.756042 C 50.222778 27.225403 50.441437 26.665344 50.605438 26.086731 L 52.404114 26.128052 C 52.746765 25.332031 52.837433 24.458679 52.685425 23.513367 L 50.932098 23.124023 C 50.898773 22.518677 50.806763 21.926697 50.662781 21.353394 L 52.24411 20.49469 C 52.134766 19.632019 51.782776 18.829346 51.177429 18.088013 L 49.460114 18.629395 C 49.293427 18.372009 49.113434 18.121399 48.921448 17.881348 C 48.73877 17.656067 48.545441 17.438721 48.341431 17.232056 L 49.282776 15.694702 C 48.760101 15.002686 48.050781 14.485352 47.156097 14.1427 L 45.94812 15.46936 C 45.41745 15.200012 44.857452 14.981384 44.27478 14.817383 M 19.520111 26.02002 C 20.382782 26.164063 21.220093 26.392029 22.017426 26.696045 L 23.550781 24.608032 C 24.882782 24.960022 25.977448 25.592041 26.837433 26.504028 L 25.726776 28.853394 C 26.049438 29.120056 26.357452 29.401367 26.654785 29.700012 C 26.968109 30.012024 27.265442 30.340027 27.546783 30.685364 L 29.92276 29.646729 C 30.900116 30.616028 31.530762 31.710693 31.818787 32.932068 L 29.68277 34.406677 C 29.981445 35.206726 30.205444 36.040039 30.345428 36.905396 L 32.920105 37.192017 C 33.285431 38.521362 33.285431 39.786682 32.920105 40.986694 L 30.334778 41.196045 C 30.190765 42.061401 29.962769 42.894714 29.65744 43.692017 L 31.746765 45.225403 C 31.393433 46.557373 30.758759 47.653381 29.846771 48.514709 L 27.497437 47.401367 C 27.232117 47.725342 26.950775 48.032043 26.654785 48.329346 C 26.340118 48.6427 26.010773 48.940063 25.666779 49.221375 L 26.708099 51.597351 C 25.73877 52.574707 24.644104 53.206726 23.42276 53.493347 L 21.944092 51.357361 C 21.148102 51.657349 20.31076 51.880066 19.449432 52.021362 L 19.162781 54.594727 C 17.833435 54.957397 16.564117 54.957397 15.368103 54.594727 L 15.156097 52.009399 C 14.293427 51.862732 13.460114 51.636047 12.662781 51.333374 L 11.125427 53.421387 C 9.794769 53.069397 8.694763 52.434692 7.840118 51.521362 L 8.95343 49.173401 C 8.629425 48.906677 8.318787 48.625366 8.025452 48.329346 C 7.708099 48.018677 7.412109 47.689392 7.133453 47.34137 L 4.754761 48.38269 C 3.776093 47.413391 3.141449 46.318726 2.857452 45.097351 L 4.990784 43.620056 C 4.694763 42.824036 4.470764 41.985352 4.333435 41.124023 L 1.756104 40.837402 C 1.394775 39.505371 1.394775 38.240051 1.756104 37.042725 L 4.345428 36.830688 C 4.489441 35.968018 4.716095 35.134705 5.021454 34.337402 L 2.933441 32.800049 C 3.285431 31.46936 3.91745 30.370728 4.829437 29.514709 L 7.178772 30.628052 C 7.444092 30.305359 7.725433 29.993347 8.025452 29.700012 C 8.336121 29.38269 8.665436 29.088013 9.00943 28.805359 L 7.968109 26.430725 C 8.941437 25.452026 10.036102 24.820068 11.253448 24.533386 L 12.732117 26.665344 C 13.530762 26.369385 14.365448 26.145386 15.230774 26.008057 L 15.517426 23.430725 C 16.845428 23.069397 18.112091 23.069397 19.312103 23.430725"/>
        </g>
    </g>
</svg>
