<svg width="56" height="62" viewBox="0 0 56 62" xmlns="http://www.w3.org/2000/svg" xmlns:xlink="http://www.w3.org/1999/xlink">
    <g id="train-copy">
        <g id="g105">
            <path id="path107" fill="#080e17" stroke="none" d="M 1.878777 60.706726 L 7.496109 60.706726 L 9.957443 46.496033 L 7.148109 46.496033"/>
        </g>
        <g id="g109">
            <path id="path111" fill="#080e17" stroke="none" d="M 52.24411 60.706726 L 46.62677 60.706726 L 43.816101 46.496033 L 46.6241 46.496033"/>
        </g>
        <g id="g113">
            <path id="path115" fill="#080e17" stroke="none" d="M 44.753448 60.49469 L 9.466774 60.49469 L 9.785446 58.173401 L 44.32811 58.173401"/>
        </g>
        <g id="g117">
            <path id="path119" fill="#080e17" stroke="none" d="M 44.010773 55.016052 L 10.104111 55.016052 L 10.422775 52.96936 L 43.585449 52.96936"/>
        </g>
        <g id="g121">
            <path id="path123" fill="#080e17" stroke="none" d="M 45.602768 24.072021 L 38.282776 24.072021 C 37.698776 24.072021 37.221436 23.593384 37.221436 23.010681 L 37.221436 10.426697 C 37.221436 9.842712 37.698776 9.364014 38.282776 9.364014 L 43.457443 9.364014 C 44.041443 9.364014 44.518768 9.842712 44.518768 10.426697 L 46.664108 23.010681 C 46.664108 23.593384 46.186768 24.072021 45.602768 24.072021 M 43.301437 33.353394 C 42.205444 33.353394 41.316101 32.465393 41.316101 31.370728 C 41.316101 30.273376 42.205444 29.386719 43.301437 29.386719 C 44.396103 29.386719 45.284103 30.273376 45.284103 31.370728 C 45.284103 32.465393 44.396103 33.353394 43.301437 33.353394 M 39.333435 35.8974 C 38.237442 35.8974 37.349442 35.009399 37.349442 33.913391 C 37.349442 32.817383 38.237442 31.929382 39.333435 31.929382 C 40.429443 31.929382 41.316101 32.817383 41.316101 33.913391 C 41.316101 35.009399 40.429443 35.8974 39.333435 35.8974 M 17.106773 23.010681 C 17.106773 23.593384 16.62944 24.072021 16.045441 24.072021 L 8.725441 24.072021 C 8.141441 24.072021 7.664108 23.593384 7.664108 23.010681 L 9.808105 10.426697 C 9.808105 9.842712 10.286774 9.364014 10.869446 9.364014 L 16.045441 9.364014 C 16.62944 9.364014 17.106773 9.842712 17.106773 10.426697 Z M 12.905441 35.8974 C 11.809441 35.8974 10.92144 35.009399 10.92144 33.913391 C 10.92144 32.817383 11.809441 31.929382 12.905441 31.929382 C 14.001442 31.929382 14.889442 32.817383 14.889442 33.913391 C 14.889442 35.009399 14.001442 35.8974 12.905441 35.8974 M 8.937439 33.353394 C 7.842773 33.353394 6.953445 32.465393 6.953445 31.370728 C 6.953445 30.273376 7.842773 29.386719 8.937439 29.386719 C 10.03344 29.386719 10.92144 30.273376 10.92144 31.370728 C 10.92144 32.465393 10.03344 33.353394 8.937439 33.353394 M 11.929443 6.074707 C 12.485443 6.074707 12.936111 6.525391 12.936111 7.082703 C 12.936111 7.638733 12.485443 8.089355 11.929443 8.089355 C 11.372108 8.089355 10.92144 7.638733 10.92144 7.082703 C 10.92144 6.525391 11.372108 6.074707 11.929443 6.074707 M 15.273445 5.650696 C 15.830772 5.650696 16.280106 6.101379 16.280106 6.657349 C 16.280106 7.214722 15.830772 7.665344 15.273445 7.665344 C 14.717445 7.665344 14.265442 7.214722 14.265442 6.657349 C 14.265442 6.101379 14.717445 5.650696 15.273445 5.650696 M 30.876106 11.634705 L 30.876106 22.486694 C 30.876106 23.072021 30.398773 23.548035 29.814774 23.548035 L 24.000107 23.548035 C 23.414772 23.548035 22.938774 23.072021 22.938774 22.486694 L 22.938774 11.634705 C 22.938774 11.05072 23.414772 10.573364 24.000107 10.573364 L 29.814774 10.573364 C 30.398773 10.573364 30.876106 11.05072 30.876106 11.634705 M 38.948105 5.650696 C 39.505447 5.650696 39.9561 6.101379 39.9561 6.657349 C 39.9561 7.214722 39.505447 7.665344 38.948105 7.665344 C 38.393448 7.665344 37.941437 7.214722 37.941437 6.657349 C 37.941437 6.101379 38.393448 5.650696 38.948105 5.650696 M 42.292114 6.074707 C 42.849442 6.074707 43.301437 6.525391 43.301437 7.082703 C 43.301437 7.638733 42.849442 8.089355 42.292114 8.089355 C 41.737442 8.089355 41.285446 7.638733 41.285446 7.082703 C 41.285446 6.525391 41.737442 6.074707 42.292114 6.074707 M 45.794769 5.230713 C 45.794769 4.646729 45.317444 4.169373 44.733444 4.169373 C 44.733444 4.169373 34.316101 3.121399 26.94944 3.100037 L 26.709442 3.100037 C 19.342773 3.121399 8.92411 4.169373 8.92411 4.169373 C 8.341446 4.169373 7.862778 4.646729 7.862778 5.230713 C 7.862778 5.230713 2.39344 26.890686 2.39344 31.281372 C 2.39344 35.669373 5.366776 43.180054 5.366776 43.180054 C 5.486778 43.66803 5.844109 44.241394 6.428108 44.241394 L 11.468109 44.241394 L 11.468109 48.332031 C 11.468109 48.917358 11.944107 49.394714 12.529442 49.394714 L 41.036102 49.394714 C 41.620102 49.394714 42.097443 48.917358 42.097443 48.332031 L 42.097443 44.241394 L 47.230774 44.241394 C 47.813446 44.241394 48.118774 43.565369 48.292114 43.180054 C 48.292114 43.180054 51.264114 35.669373 51.264114 31.281372 C 51.264114 26.890686 45.794769 5.230713 45.794769 5.230713"/>
        </g>
        <g id="g125">
            <path id="path127" fill="#ffffff" stroke="none" d="M 24.000107 23.549377 L 29.816109 23.549377 C 30.400108 23.549377 30.877441 23.070679 30.877441 22.488037 L 30.877441 11.636047 C 30.877441 11.052063 30.400108 10.573364 29.816109 10.573364 L 24.000107 10.573364 C 23.416107 10.573364 22.938774 11.052063 22.938774 11.636047 L 22.938774 22.488037 C 22.938774 23.070679 23.416107 23.549377 24.000107 23.549377"/>
        </g>
    </g>
</svg>
