<svg width="66" height="69" viewBox="0 0 66 69" xmlns="http://www.w3.org/2000/svg" xmlns:xlink="http://www.w3.org/1999/xlink">
    <g id="broom-copy">
        <g id="g1077">
            <path id="path1079" fill="#080e17" stroke="none" d="M 10.905441 57.917358 C 10.152107 58.042725 8.542778 57.666687 7.824112 57.7854 C 6.212112 56.746704 6.025444 56.012024 6.917442 53.993347 C 5.812111 53.730713 4.596107 53.7547 3.896111 53.16803 C 3.42411 52.772034 3.682777 51.508057 3.606773 50.524048 C 2.652107 50.273376 2.146774 50.518738 0.954773 50.206726 C 3.422775 44.190735 10.520111 38.48938 15.485443 34.918701 C 15.485443 34.918701 30.760109 50.297363 30.978775 50.412048 C 27.938774 54.200073 18.614777 60.788025 16.430779 67.412048 C 15.42411 66.117371 14.10144 63.548035 14.10144 61.473389 C 13.226776 61.448059 12.346779 61.422729 11.289444 61.393372 C 11.18811 60.172058 11.100113 59.101379 11.013443 58.032043 L 11.10144 57.838684"/>
        </g>
        <g id="g1081">
            <path id="path1083" fill="#080e17" stroke="none" d="M 33.105446 35.700073 L 62.796112 7.602722 C 63.906769 6.493347 63.592102 4.362732 62.481445 3.252014 C 61.372116 2.141357 59.240112 1.828064 58.130768 2.938721 L 30.066772 32.654724 C 26.028107 29.456055 21.396111 28.626709 19.112106 30.909363 L 16.604111 33.418701 L 32.205444 49.021362 L 34.824112 46.620056 C 37.100113 44.344055 36.281441 39.72937 33.105446 35.700073"/>
        </g>
        <g id="g1085">
            <path id="path1087" fill="#ffffff" stroke="none" d="M 60.532104 7.410706 C 59.958771 7.982727 59.032104 7.982727 58.458771 7.410706 C 57.885437 6.837402 57.885437 5.910706 58.458771 5.337402 C 59.032104 4.764038 59.958771 4.764038 60.532104 5.337402 C 61.104111 5.910706 61.104111 6.837402 60.532104 7.410706"/>
        </g>
    </g>
</svg>
