<svg width="44" height="70" viewBox="0 0 44 70" xmlns="http://www.w3.org/2000/svg" xmlns:xlink="http://www.w3.org/1999/xlink">
    <g id="parkingmeter-copy">
        <g id="g863">
            <path id="path865" fill="#080e17" stroke="none" d="M 5.550781 21.506714 C 6.048096 13.009399 13.097412 6.244019 21.717407 6.244019 C 30.336121 6.244019 37.38678 13.009399 37.882751 21.506714 Z M 21.717407 2.013367 C 10.425415 2.013367 1.272095 11.166687 1.272095 22.458679 C 1.272095 28.697388 4.07074 34.280029 8.477417 38.030701 L 8.477417 47.970703 C 8.477417 48.305359 9.042786 48.896057 9.766785 49.601379 L 17.222778 58.085388 L 17.222778 68.009399 C 17.222778 68.344055 17.496094 68.618713 17.832092 68.618713 L 25.602783 68.618713 C 25.937439 68.618713 26.210754 68.344055 26.210754 68.009399 L 26.210754 57.881348 L 33.858765 49.601379 C 34.513428 49.002686 35.444092 48.305359 35.444092 47.970703 L 35.444092 37.608032 C 39.569458 33.866699 42.160095 28.466736 42.160095 22.458679 C 42.160095 11.166687 33.008118 2.013367 21.717407 2.013367"/>
        </g>
        <g id="g867">
            <path id="path869" fill="#ffffff" stroke="none" d="M 16.348145 36.946716 L 11.85614 36.946716 C 11.521423 36.946716 11.246765 36.672058 11.246765 36.337402 L 11.246765 26.768066 C 11.246765 26.43335 11.521423 26.160034 11.85614 26.160034 L 16.348145 26.160034 C 16.6828 26.160034 16.957458 26.43335 16.957458 26.768066 L 16.957458 36.337402 C 16.957458 36.672058 16.6828 36.946716 16.348145 36.946716"/>
        </g>
        <g id="g871">
            <path id="path873" fill="#080e17" stroke="none" d="M 14.029419 35.505371 C 13.714722 35.505371 13.456055 35.248047 13.456055 34.93335 L 13.456055 28.120056 C 13.456055 27.804016 13.714722 27.546692 14.029419 27.546692 C 14.344055 27.546692 14.602722 27.804016 14.602722 28.120056 L 14.602722 34.93335 C 14.602722 35.248047 14.344055 35.505371 14.029419 35.505371"/>
        </g>
        <g id="g875">
            <path id="path877" fill="#ffffff" stroke="none" d="M 33.001465 33.185364 C 33.001465 31.677368 32.105408 30.384033 30.824097 29.7854 L 30.576111 26.34668 C 30.576111 25.610718 29.976074 25.008057 29.240112 25.008057 C 28.505432 25.008057 27.902771 25.610718 27.902771 26.34668 L 27.592102 29.818726 C 26.345459 30.432068 25.47876 31.702698 25.47876 33.185364 C 25.47876 34.669373 26.345459 35.941345 27.594788 36.553406 L 27.902771 40.025391 C 27.902771 40.760071 28.505432 41.362732 29.240112 41.362732 C 29.976074 41.362732 30.576111 40.760071 30.576111 40.025391 L 30.817444 36.589355 C 32.104126 35.990723 33.001465 34.697388 33.001465 33.185364"/>
        </g>
        <g id="g879">
            <path id="path881" fill="#080e17" stroke="none" d="M 21.717407 12.200012 L 21.716125 12.200012 C 21.28009 12.200012 20.924072 11.842712 20.924072 11.406677 L 20.924072 8.974731 C 20.924072 8.538696 21.28009 8.181396 21.716125 8.181396 L 21.717407 8.181396 C 22.153442 8.181396 22.509399 8.538696 22.509399 8.974731 L 22.509399 11.406677 C 22.509399 11.842712 22.153442 12.200012 21.717407 12.200012"/>
        </g>
        <g id="g883">
            <path id="path885" fill="#080e17" stroke="none" d="M 16.365417 13.418701 C 15.98407 13.634705 15.498779 13.500061 15.282776 13.121399 L 14.081421 11.006714 C 13.86676 10.628052 13.998779 10.141357 14.377441 9.925354 C 14.758789 9.709351 15.245422 9.842712 15.460083 10.222717 L 16.664124 12.33606 C 16.877441 12.716064 16.745422 13.202698 16.365417 13.418701"/>
        </g>
        <g id="g887">
            <path id="path889" fill="#080e17" stroke="none" d="M 12.862732 17.152039 C 12.63739 17.525391 12.145447 17.645386 11.772095 17.421387 L 9.690735 16.16272 C 9.317444 15.937378 9.196106 15.446716 9.421448 15.073364 C 9.648071 14.701355 10.13739 14.578735 10.509399 14.805359 L 12.592102 16.062683 C 12.965393 16.289368 13.085449 16.778687 12.862732 17.152039"/>
        </g>
        <g id="g891">
            <path id="path893" fill="#080e17" stroke="none" d="M 26.808105 13.418701 C 27.186768 13.634705 27.673462 13.500061 27.889465 13.121399 L 29.090759 11.006714 C 29.306763 10.628052 29.173462 10.141357 28.7948 9.925354 C 28.414795 9.709351 27.928101 9.842712 27.712097 10.222717 L 26.50946 12.33606 C 26.2948 12.716064 26.428101 13.202698 26.808105 13.418701"/>
        </g>
        <g id="g895">
            <path id="path897" fill="#080e17" stroke="none" d="M 30.31073 17.152039 C 30.536072 17.525391 31.025391 17.645386 31.400085 17.421387 L 33.481445 16.16272 C 33.854736 15.937378 33.977417 15.446716 33.750732 15.073364 C 33.524109 14.701355 33.034729 14.578735 32.661438 14.805359 L 30.580078 16.062683 C 30.205444 16.289368 30.085449 16.778687 30.31073 17.152039"/>
        </g>
        <g id="g899">
            <path id="path901" fill="#080e17" stroke="none" d="M 23.865479 18.993347 L 25.701477 10.446716 L 21.720093 18.541382 C 19.662781 18.693359 18.03479 20.392029 18.03479 22.486694 C 18.03479 24.682678 19.814758 26.462708 22.00946 26.462708 C 24.205444 26.462708 25.984131 24.682678 25.984131 22.486694 C 25.984131 20.966736 25.120117 19.661377 23.865479 18.993347"/>
        </g>
    </g>
</svg>
