<svg width="43" height="70" viewBox="0 0 43 70" xmlns="http://www.w3.org/2000/svg" xmlns:xlink="http://www.w3.org/1999/xlink">
    <g id="streetcar-copy">
        <g id="g237">
            <path id="path239" fill="#080e17" stroke="none" d="M 32.054779 49.217346 L 10.450779 49.217346 C 6.706779 49.217346 3.642778 46.154724 3.642778 42.410706 L 3.642778 9.244019 C 3.642778 5.501343 6.706779 2.437378 10.450779 2.437378 L 32.054779 2.437378 C 35.798779 2.437378 38.861446 5.501343 38.861446 9.244019 L 38.861446 42.410706 C 38.861446 46.154724 35.798779 49.217346 32.054779 49.217346"/>
        </g>
        <g id="g241">
            <path id="path243" fill="#ffffff" stroke="none" d="M 19.053444 27.484009 L 7.70278 27.484009 C 6.953445 27.484009 6.341444 26.872009 6.341444 26.122681 L 6.341444 14.772034 C 6.341444 14.022705 6.953445 13.409363 7.70278 13.409363 L 19.053444 13.409363 C 19.80278 13.409363 20.41478 14.022705 20.41478 14.772034 L 20.41478 26.122681 C 20.41478 26.872009 19.80278 27.484009 19.053444 27.484009"/>
        </g>
        <g id="g245">
            <path id="path247" fill="#ffffff" stroke="none" d="M 35.125443 27.484009 L 23.774776 27.484009 C 23.025444 27.484009 22.412109 26.872009 22.412109 26.122681 L 22.412109 14.772034 C 22.412109 14.022705 23.025444 13.409363 23.774776 13.409363 L 35.125443 13.409363 C 35.873444 13.409363 36.486778 14.022705 36.486778 14.772034 L 36.486778 26.122681 C 36.486778 26.872009 35.873444 27.484009 35.125443 27.484009"/>
        </g>
        <g id="g249">
            <path id="path251" fill="#ffffff" stroke="none" d="M 27.798779 8.808044 L 13.030777 8.808044 C 12.282776 8.808044 11.670776 8.196045 11.670776 7.446716 L 11.670776 7.288025 C 11.670776 6.537354 12.282776 5.925354 13.030777 5.925354 L 27.798779 5.925354 C 28.548111 5.925354 29.16011 6.537354 29.16011 7.288025 L 29.16011 7.446716 C 29.16011 8.196045 28.548111 8.808044 27.798779 8.808044"/>
        </g>
        <g id="g253">
            <path id="path255" fill="#ffffff" stroke="none" d="M 11.705448 34.261353 C 11.705448 32.780029 10.504112 31.578674 9.024113 31.578674 C 7.54278 31.578674 6.341448 32.780029 6.341448 34.261353 C 6.341448 35.742676 7.54278 36.942688 9.024113 36.942688 C 10.504112 36.942688 11.705448 35.742676 11.705448 34.261353"/>
        </g>
        <g id="g257">
            <path id="path259" fill="#ffffff" stroke="none" d="M 36.486778 34.261353 C 36.486778 32.780029 35.285442 31.578674 33.805443 31.578674 C 32.324112 31.578674 31.122776 32.780029 31.122776 34.261353 C 31.122776 35.742676 32.324112 36.942688 33.805443 36.942688 C 35.285442 36.942688 36.486778 35.742676 36.486778 34.261353"/>
        </g>
        <g id="g261">
            <path id="path263" fill="#080e17" stroke="none" d="M 5.852112 64.73468 L 8.934776 57.794678 L 34.040112 57.794678 L 36.950775 64.73468 Z M 13.428112 47.676025 L 29.797443 47.676025 L 32.552109 54.24939 L 10.509445 54.24939 Z M 36.992111 57.794678 L 31.501442 46.794678 C 31.289444 45.517395 30.176109 44.538696 28.840111 44.538696 L 14.378777 44.538696 C 13.048111 44.538696 11.940109 45.506714 11.720112 46.776062 L 2.282778 64.788025 L 2.282778 65.17334 C 2.282778 66.661377 3.493444 67.872009 4.980112 67.872009 L 37.794777 67.872009 C 39.282776 67.872009 40.492111 66.661377 40.492111 65.17334 L 40.492111 64.802673"/>
        </g>
    </g>
</svg>
