<svg width="72" height="45" viewBox="0 0 72 45" xmlns="http://www.w3.org/2000/svg" xmlns:xlink="http://www.w3.org/1999/xlink">
    <g id="bike-copy">
        <path id="path267" fill="#080e17" stroke="none" d="M 56.918762 41.385376 C 52.156128 41.385376 48.137451 38.1427 46.949402 33.750732 C 57.698792 33.761353 58.65741 34.312012 58.808105 32.446716 C 58.792114 31.904053 58.590759 31.532043 53.912109 21.177368 C 54.864075 20.888062 55.873413 20.72937 56.917419 20.72937 C 62.612122 20.72937 67.245422 25.361389 67.245422 31.057373 C 67.245422 36.753357 62.613403 41.385376 56.918762 41.385376 M 51.272095 22.416016 L 55.166748 31.044067 L 46.590759 31.018677 C 46.605408 27.422729 48.465454 24.2547 51.272095 22.416016 M 43.437439 31.010681 L 40.929443 31.002686 L 47.437439 13.917358 L 49.962769 19.513367 C 46.066772 21.868042 43.454773 26.138733 43.437439 31.010681 M 38.041443 30.636047 L 21.729431 12.861389 L 44.672119 12.820068 Z M 24.729431 31.278687 C 24.729431 36.974731 20.096069 41.606689 14.401428 41.606689 C 8.708069 41.606689 4.073425 36.974731 4.073425 31.278687 C 4.073425 25.584045 8.706787 20.952026 14.400085 20.952026 C 14.914795 20.952026 15.418762 20.990723 15.912109 21.064026 C 12.622742 31.438721 13.017456 30.257385 12.997437 31.132019 C 12.981445 31.870728 13.576111 32.454712 14.325439 32.505371 C 15.668091 32.369385 15.365417 32.592041 18.720093 21.90271 C 22.264099 23.538696 24.729431 27.125366 24.729431 31.278687 M 56.918762 17.57605 C 55.410767 17.57605 53.961426 17.828064 52.60675 18.2854 C 51.556091 15.957397 50.328125 13.233398 48.890747 10.033386 L 49.808105 7.512024 L 52.961426 7.453369 L 52.961426 4.817383 L 41.094788 4.817383 C 40.057434 6.237366 41.514771 6.230713 46.769409 7.396057 L 45.853455 9.976013 L 22.406738 9.976013 C 23.986755 4.460022 23.096069 4.862732 30.204102 4.874695 L 30.204102 2.180054 C 20.418762 2.276062 22.114746 1.172058 16.873413 18.029358 C 16.073425 17.880066 15.246765 17.797363 14.400085 17.797363 C 6.966736 17.797363 0.918762 23.845398 0.918762 31.278687 C 0.918762 38.713379 6.966736 44.76001 14.400085 44.76001 C 21.834778 44.76001 27.882751 38.713379 27.882751 31.278687 C 27.882751 25.717346 24.496094 20.930725 19.676086 18.873352 C 19.969421 17.950684 20.284119 16.965393 20.622742 15.913391 C 40.345459 36.716064 32.946777 33.342712 43.56012 33.765381 C 43.610779 33.765381 43.660095 33.765381 43.709412 33.764038 C 44.966736 39.905396 50.412109 44.540039 56.918762 44.540039 C 64.353455 44.540039 70.400085 38.492065 70.400085 31.057373 C 70.400085 23.624023 64.353455 17.57605 56.918762 17.57605"/>
    </g>
</svg>
