<svg width="53" height="49" viewBox="0 0 53 49" xmlns="http://www.w3.org/2000/svg" xmlns:xlink="http://www.w3.org/1999/xlink">
    <g id="poll-opinion-survey-copy">
        <path id="path741" fill="#080e17" stroke="none" d="M 4.814728 20.781372 L 4.814728 45.174683 L 47.808105 45.174683 L 47.808105 20.781372 Z M 4.814728 45.174683 Z M 50.960083 17.629395 L 50.960083 48.326721 L 1.664124 48.326721 L 1.664124 17.629395 Z"/>
        <g id="g743">
            <path id="path745" fill="#080e17" stroke="none" d="M 4.470764 19.189392 L 1.664124 17.630737 L 7.154785 2.221375 L 45.696106 2.221375 L 50.958801 17.630737 L 48.081421 19.016052 L 43.604126 5.373352 L 9.212097 5.373352"/>
        </g>
        <g id="g747">
            <path id="path749" fill="#080e17" stroke="none" d="M 33.740112 12.46936 L 19.032135 12.46936 C 18.477448 12.46936 18.025452 12.017395 18.025452 11.462708 C 18.025452 10.909363 18.477448 10.456055 19.032135 10.456055 L 33.740112 10.456055 C 34.293457 10.456055 34.746765 10.909363 34.746765 11.462708 C 34.746765 12.017395 34.293457 12.46936 33.740112 12.46936"/>
        </g>
    </g>
</svg>
