<svg width="68" height="40" viewBox="0 0 68 40" xmlns="http://www.w3.org/2000/svg" xmlns:xlink="http://www.w3.org/1999/xlink">
    <g id="carside-copy">
        <g id="g653">
            <path id="path655" fill="#ffffff" stroke="none" d="M 58.057434 31.829346 C 58.057434 30.293396 56.812073 29.048035 55.27478 29.048035 C 53.740112 29.048035 52.494751 30.293396 52.494751 31.829346 C 52.494751 33.365356 53.740112 34.612061 55.27478 34.612061 C 56.812073 34.612061 58.057434 33.365356 58.057434 31.829346"/>
        </g>
        <g id="g657">
            <path id="path659" fill="#080e17" stroke="none" d="M 40.533447 14.385376 C 40.318726 14.40271 40.102722 14.446716 39.88678 14.446716 C 38.477417 14.444031 37.066772 14.432068 35.65741 14.422729 C 35.548096 14.421387 35.438721 14.422729 35.33075 14.422729 L 35.33075 14.420044 C 33.812073 14.420044 32.293396 14.42804 30.77478 14.412048 C 30.456055 14.409363 30.130737 14.340027 29.820068 14.253357 C 29.492065 14.164063 29.166748 13.898682 29.021423 13.605347 L 29.041443 9.3974 C 29.073425 8.870728 29.557434 8.34137 30.056091 8.293396 C 30.377441 8.26001 30.700073 8.208069 31.024109 8.206726 C 32.434753 8.196045 33.845398 8.197388 35.254761 8.202698 C 36.049438 8.202698 36.729431 8.454712 37.284058 9.054688 C 38.166748 10.009399 40.45343 12.828064 40.940063 13.606689 C 41.062744 13.801392 40.762756 14.369385 40.533447 14.385376 M 9.88678 9.862732 C 10.326721 8.886719 11.125427 8.38269 12.166748 8.237366 C 12.381409 8.208069 12.600098 8.197388 12.817444 8.197388 C 15.649414 8.19873 18.481445 8.19873 21.313416 8.213379 C 21.63208 8.216064 21.950745 8.306702 22.269409 8.364014 C 22.633423 8.432068 22.798767 8.737366 22.95874 9.009399 C 23.064087 9.188049 23.096069 9.426697 23.110779 9.638733 C 23.192078 10.834717 23.212097 12.032043 23.094727 13.226685 C 23.084106 13.334717 23.034729 13.437378 23.016113 13.542725 C 22.957397 13.865356 22.429443 14.340027 22.094727 14.362732 C 21.769409 14.385376 21.444092 14.421387 21.118774 14.422729 C 19.377441 14.429382 17.634766 14.426697 15.890747 14.426697 L 15.890747 14.414734 C 14.041443 14.414734 12.189392 14.420044 10.337402 14.409363 C 10.013428 14.409363 9.689392 14.34668 9.365417 14.312012 C 9.170776 14.29071 8.78009 13.793396 8.801392 13.598694 C 8.902771 12.753357 9.432068 10.868042 9.88678 9.862732 M 66.141418 23.098694 C 66.138733 22.414734 65.846741 21.837402 65.442749 21.308044 C 65.038757 20.777344 64.538757 20.364014 63.925415 20.104065 C 63.222778 19.81073 62.534729 19.449402 61.804077 19.270691 C 60.210754 18.885376 58.712097 18.236023 57.164063 17.728027 C 55.202759 17.086731 53.261414 16.38269 51.302734 15.730713 C 50.554749 15.48407 49.929443 15.061401 49.430725 14.473389 C 48.516113 13.394714 47.584106 12.325378 46.752075 11.184021 C 45.533447 9.508057 44.173401 7.950684 42.86676 6.348022 C 42.110779 5.420044 41.270752 4.561401 40.338745 3.802734 C 39.568054 3.178711 38.712097 2.753357 37.716064 2.566711 L 9.37207 2.696045 C 9.056091 2.768066 8.737427 2.865356 8.449402 3.009399 C 7.166748 3.657349 6.057434 4.536011 5.24408 5.725403 C 4.505432 6.806702 3.950745 7.98407 3.638733 9.270691 C 3.176086 11.173401 2.721436 13.077393 2.169434 14.954712 C 1.797424 16.22406 1.580078 17.490723 1.585388 18.81073 C 1.596069 21.529358 1.588074 24.253357 1.597412 26.973389 C 1.598755 27.409363 1.642761 27.842712 1.677429 28.277344 C 1.730774 28.965393 2.068054 29.513367 2.558777 29.972046 C 3.121399 30.497375 3.789429 30.858704 4.512085 31.121399 C 5.228088 31.380066 5.950745 31.626709 6.6521 31.920044 C 7.276062 32.178711 7.71875 32.656067 8.037415 33.248047 C 8.088074 33.342712 8.141418 33.444031 8.166748 33.546692 C 8.317444 34.16803 8.561401 34.728027 8.877441 35.242676 C 10.181396 37.626709 12.71344 39.242676 15.622742 39.242676 C 19.314758 39.242676 22.396057 36.638733 23.13739 33.16803 C 23.562744 32.90271 24.097412 32.837402 24.716064 32.888062 L 46.590759 32.833374 C 46.997437 32.817383 47.350769 32.980042 47.634766 33.248047 C 48.406738 36.678711 51.466736 39.242676 55.130737 39.242676 C 58.901428 39.242676 62.030762 36.526733 62.686768 32.946716 C 62.722778 32.842712 62.761414 32.741394 62.796082 32.636047 C 62.940063 32.208069 63.217407 31.881348 63.557434 31.600037 C 63.976074 31.253357 64.432068 30.944031 64.80542 30.553345 C 65.576111 29.753357 66.140076 28.825378 66.148071 27.66803 C 66.161438 26.144043 66.148071 24.621399 66.141418 23.098694"/>
        </g>
        <g id="g661">
            <path id="path663" fill="#ffffff" stroke="none" d="M 58.285461 31.878723 C 58.285461 30.342712 57.0401 29.097351 55.501465 29.097351 C 53.966797 29.097351 52.721436 30.342712 52.721436 31.878723 C 52.721436 33.414734 53.966797 34.660034 55.501465 34.660034 C 57.0401 34.660034 58.285461 33.414734 58.285461 31.878723"/>
        </g>
        <g id="g665">
            <path id="path667" fill="#ffffff" stroke="none" d="M 18.209473 31.878723 C 18.209473 30.342712 16.964111 29.097351 15.428101 29.097351 C 13.89209 29.097351 12.64679 30.342712 12.64679 31.878723 C 12.64679 33.414734 13.89209 34.660034 15.428101 34.660034 C 16.964111 34.660034 18.209473 33.414734 18.209473 31.878723"/>
        </g>
    </g>
</svg>
