<svg width="74" height="58" viewBox="0 0 74 58" xmlns="http://www.w3.org/2000/svg" xmlns:xlink="http://www.w3.org/1999/xlink">
    <g id="escalatordown-copy">
        <g id="g937">
            <path id="path939" fill="#080e17" stroke="none" d="M 31.264111 12.297363 C 33.753445 12.297363 35.770779 10.278687 35.770779 7.79071 C 35.770779 5.302734 33.753445 3.284058 31.264111 3.284058 C 28.77478 3.284058 26.757446 5.302734 26.757446 7.79071 C 26.757446 10.278687 28.77478 12.297363 31.264111 12.297363"/>
        </g>
        <g id="g941">
            <path id="path943" fill="#080e17" stroke="none" d="M 35.725445 20.409363 L 35.725445 17.57074 C 35.725445 11.52002 26.802776 11.585388 26.802776 17.57074 L 26.802776 29.153381 L 26.821445 29.153381 L 18.390778 37.584045 C 17.596111 38.378723 17.498777 38.412048 15.937445 38.412048 C 15.936111 38.414734 10.782776 38.412048 10.782776 38.412048 C 5.597444 38.412048 2.488111 43.073364 2.488111 47.025391 C 2.488111 50.976013 5.597444 55.970703 11.24411 55.970703 L 20.42411 55.970703 C 22.59211 55.970703 25.217445 55.1427 27.384109 53.102722 L 54.264111 26.304016 C 54.838776 25.794739 55.156113 25.636047 56.144112 25.636047 L 62.782776 25.636047 C 65.976112 25.636047 70.497444 22.014709 70.497444 16.794739 C 70.497444 11.629395 65.94278 8.185364 62.518776 8.174683 L 52.040112 8.174683 C 49.873444 8.174683 47.086777 9.060059 45.42411 10.721375"/>
        </g>
        <g id="g945">
            <path id="path947" fill="#080e17" stroke="none" d="M 43.854778 56.461365 L 53.268108 56.461365 C 55.861443 56.461365 55.960114 52.472046 53.268108 52.472046 L 48.442776 52.472046 L 57.62011 43.296021 C 59.654778 41.260071 56.777443 38.31604 54.616112 40.477356 L 45.576111 49.544067 L 45.576111 44.766724 C 45.589443 42.174683 41.566776 42.074707 41.560112 44.766724 L 41.560112 54.122681 C 41.560112 55.518738 42.497444 56.461365 43.854778 56.461365"/>
        </g>
        <g id="g949">
            <path id="path951" fill="#ffffff" stroke="none" d="M 52.677444 12.634705 L 62.106781 12.634705 C 64.400108 12.634705 65.94278 15.200073 65.94278 16.72937 C 65.94278 18.258728 64.848114 21.113403 62.044113 21.113403 L 56.376114 21.113403 C 53.976112 21.113403 52.912113 21.449402 51.529446 22.832031 L 24.445446 49.916016 C 23.350777 51.013367 21.960112 51.449402 20.176113 51.449402 L 11.244112 51.449402 C 8.949444 51.449402 6.928112 49.508057 6.928112 46.957397 C 6.928112 44.409363 8.856112 42.980042 10.849445 42.980042 L 16.977446 42.980042 C 18.762777 42.980042 19.936113 42.470703 20.956112 41.450684 L 48.498779 13.909363 C 49.632111 12.776062 50.750778 12.634705 52.677444 12.634705"/>
        </g>
    </g>
</svg>
