<svg width="58" height="58" viewBox="0 0 58 58" xmlns="http://www.w3.org/2000/svg" xmlns:xlink="http://www.w3.org/1999/xlink">
    <g id="railtracks-copy">
        <g id="g953">
            <path id="path955" fill="#080e17" stroke="none" d="M 42.565445 41.570679 L 41.460114 33.132019 L 43.113445 33.132019 L 44.436111 41.570679 Z M 15.789444 41.570679 L 16.716114 33.132019 L 39.521446 33.132019 L 40.449444 41.570679 Z M 13.673445 41.570679 L 11.802778 41.570679 L 13.125446 33.132019 L 14.778778 33.132019 Z M 15.245445 19.602722 L 16.549446 19.602722 L 15.813446 25.233398 L 14.362778 25.233398 Z M 16.796112 9.708069 L 17.845444 9.708069 L 17.41478 12.988037 L 16.281448 12.988037 Z M 38.037445 19.602722 L 38.656113 25.233398 L 17.584114 25.233398 L 18.201443 19.602722 Z M 19.288113 9.708069 L 36.950779 9.708069 L 37.31078 12.988037 L 18.928112 12.988037 Z M 39.444111 9.708069 L 39.957443 12.988037 L 38.822777 12.988037 L 38.393444 9.708069 Z M 40.993446 19.602722 L 41.874779 25.233398 L 40.426777 25.233398 L 39.689445 19.602722 Z M 55.689445 52.918701 L 52.957443 41.570679 L 46.222778 41.570679 L 44.796112 33.132019 L 50.925446 33.132019 L 49.022781 25.233398 L 43.460114 25.233398 L 42.509445 19.602722 L 47.666779 19.602722 L 46.07478 12.988037 L 41.390778 12.988037 L 40.836113 9.708069 L 45.285446 9.708069 L 44.053444 4.596069 L 39.970779 4.596069 L 39.55611 2.144043 L 38.258778 2.144043 L 38.64278 4.596069 L 37.724113 4.596069 L 37.402779 2.144043 L 36.120113 2.144043 L 36.389446 4.596069 L 19.849445 4.596069 L 20.118778 2.144043 L 18.836109 2.144043 L 18.514778 4.596069 L 17.597446 4.596069 L 17.981445 2.144043 L 16.681446 2.144043 L 16.268112 4.596069 L 12.912113 4.596069 L 11.680113 9.708069 L 15.402779 9.708069 L 14.849445 12.988037 L 10.892113 12.988037 L 9.298779 19.602722 L 13.73078 19.602722 L 12.777447 25.233398 L 7.94278 25.233398 L 6.041447 33.132019 L 11.441444 33.132019 L 10.014778 41.570679 L 4.009445 41.570679 L 1.277447 52.918701 L 8.097446 52.918701 L 7.432112 56.84668 L 9.409445 56.84668 L 10.025444 52.918701 L 12.18811 52.918701 L 11.673445 56.84668 L 14.112112 56.84668 L 14.544111 52.918701 L 41.696114 52.918701 L 42.126778 56.84668 L 44.56678 56.84668 L 44.052113 52.918701 L 46.213444 52.918701 L 46.829445 56.84668 L 48.806778 56.84668 L 48.141441 52.918701"/>
        </g>
        <g id="g957">
            <path id="path959" fill="#ffffff" stroke="none" d="M 17.981445 2.144043 L 9.410778 56.848022 L 11.673445 56.848022 L 18.836109 2.144043"/>
        </g>
        <g id="g961">
            <path id="path963" fill="#ffffff" stroke="none" d="M 38.257446 2.144043 L 46.82811 56.848022 L 44.565445 56.848022 L 37.402779 2.144043"/>
        </g>
    </g>
</svg>
