<svg width="44" height="62" viewBox="0 0 44 62" xmlns="http://www.w3.org/2000/svg" xmlns:xlink="http://www.w3.org/1999/xlink">
    <g id="mapmarker-copy">
        <path id="path913" fill="#080e17" stroke="none" d="M 21.686768 29.941406 C 17.313416 29.941406 13.754761 26.384033 13.754761 22.009399 C 13.754761 17.634766 17.313416 14.074707 21.686768 14.074707 C 26.062805 14.074707 29.622803 17.634766 29.622803 22.009399 C 29.622803 26.384033 26.062805 29.941406 21.686768 29.941406 M 21.686768 1.38269 C 10.297424 1.38269 1.061462 10.617432 1.061462 22.009399 C 1.061462 30.657349 6.394775 38.042725 13.94812 41.105347 C 14.337463 41.262695 14.645447 41.567993 14.809448 41.954712 L 20.954773 60.314697 C 21.078796 60.609375 21.365417 60.798706 21.686768 60.798706 C 22.002808 60.798706 22.2948 60.609375 22.414795 60.314697 L 28.564087 41.954712 C 28.726807 41.567993 29.036133 41.265381 29.425415 41.106689 C 36.980103 38.04541 42.316101 30.657349 42.316101 22.009399 C 42.316101 10.617432 33.080139 1.38269 21.686768 1.38269"/>
    </g>
</svg>
