<svg width="58" height="60" viewBox="0 0 58 60" xmlns="http://www.w3.org/2000/svg" xmlns:xlink="http://www.w3.org/1999/xlink">
    <g id="restroom-copy">
        <g id="g751">
            <path id="path753" fill="#080e17" stroke="none" d="M 49.328094 58.525391 L 7.80542 58.525391 C 4.24411 58.525391 1.33078 55.612061 1.33078 52.05072 L 1.33078 8.496033 C 1.33078 4.934692 4.24411 2.021362 7.80542 2.021362 L 49.328094 2.021362 C 52.889435 2.021362 55.802765 4.934692 55.802765 8.496033 L 55.802765 52.05072 C 55.802765 55.612061 52.889435 58.525391 49.328094 58.525391"/>
        </g>
        <g id="g755">
            <path id="path757" fill="#ffffff" stroke="none" d="M 41.049438 13.93335 C 43.192078 13.93335 44.928101 12.128052 44.928101 9.900024 C 44.928101 7.674744 43.192078 5.870728 41.049438 5.870728 C 38.905426 5.870728 37.169434 7.674744 37.169434 9.900024 C 37.169434 12.128052 38.905426 13.93335 41.049438 13.93335"/>
        </g>
        <g id="g759">
            <path id="path761" fill="#ffffff" stroke="none" d="M 52.036102 31.569397 L 48.109436 16.690735 C 48.029419 15.596069 46.889435 14.728027 45.489441 14.728027 L 36.437439 14.728027 C 35.30542 14.728027 34.342773 15.298706 33.973419 16.094727 C 33.94809 16.136047 33.92276 16.176025 33.909424 16.217346 L 33.864105 16.390686 C 33.864105 16.392029 33.862762 16.392029 33.862762 16.393372 L 29.858765 31.569397 C 29.698761 32.096069 30.250763 32.693359 31.090759 32.904053 C 31.929443 33.114685 32.73877 32.857361 32.896088 32.330688 L 35.102753 25.857361 L 35.582764 29.206726 L 33.986755 50.776062 C 33.884094 51.652039 34.580109 51.906677 35.541443 52.000061 L 36.989441 52.1427 C 37.950775 52.236023 38.813416 51.602722 38.916107 50.725342 L 40.869415 31.29071 L 41.069427 31.29071 L 43.804108 50.725342 C 43.908081 51.602722 44.770752 52.236023 45.730774 52.1427 L 47.180084 52.000061 C 48.140106 51.906677 48.83609 51.652039 48.733429 50.776062 L 46.365417 29.206726 L 46.824097 25.957397 L 48.997437 32.330688 C 49.154755 32.857361 49.965424 33.114685 50.804108 32.904053 C 51.642761 32.693359 52.194763 32.096069 52.036102 31.569397"/>
        </g>
        <g id="g763">
            <path id="path765" fill="#ffffff" stroke="none" d="M 23.878754 31.901367 L 20.26944 18.478699 C 20.262756 18.177368 20.178772 17.896057 20.045441 17.640015 L 19.95343 17.301392 C 19.822754 16.868042 19.142761 16.470703 18.332092 16.558716 C 18.28009 16.554688 18.229431 16.542725 18.177429 16.542725 L 10.94809 16.542725 C 10.868103 16.542725 10.793427 16.557373 10.717438 16.565369 C 9.878754 16.449341 9.164093 16.856018 9.029419 17.301392 L 5.104095 31.901367 C 4.95343 32.40271 5.393433 32.950684 6.085419 33.122681 C 6.776093 33.297363 7.458771 33.030701 7.612091 32.529358 L 10.029419 25.31604 L 10.39743 27.424011 L 7.521423 39.636047 L 9.746765 39.636047 L 9.120087 51.014709 C 9.045441 51.850708 9.578766 52.069397 10.318756 52.124023 L 11.430756 52.209351 C 12.170776 52.262695 12.83078 51.629395 12.906769 50.793396 L 13.757446 39.636047 L 14.636108 39.636047 L 15.206757 50.914673 C 15.233429 51.748047 15.880096 52.365356 16.653442 52.292053 L 17.820099 52.182678 C 18.592102 52.109375 19.161438 51.880005 19.136108 51.046692 L 18.854767 39.636047 L 20.660095 39.636047 L 18.440094 27.424011 L 18.902771 25.170715 L 21.372101 32.529358 C 21.524109 33.030701 22.206757 33.297363 22.89743 33.122681 C 23.590759 32.950684 24.029419 32.40271 23.878754 31.901367"/>
        </g>
        <g id="g767">
            <path id="path769" fill="#ffffff" stroke="none" d="M 20.298767 14.798706 C 20.298767 14.798706 18.681427 14.456055 18.288086 11.266724 C 18.285431 11.246704 18.277435 11.228027 18.27475 11.210693 C 18.281433 11.122681 18.288086 11.033386 18.288086 10.944031 C 18.288086 8.814697 16.62677 7.045349 14.577423 7.045349 C 12.529419 7.045349 10.869415 8.772034 10.869415 10.901367 C 10.869415 11.009399 10.874756 11.117371 10.882751 11.222717 L 10.869415 11.222717 C 10.506744 13.438721 9.481415 14.740051 9.089417 14.798706 C 8.698761 14.857361 20.298767 14.798706 20.298767 14.798706"/>
        </g>
        <g id="g771">
            <path id="path773" fill="#ffffff" stroke="none" d="M 27.222778 48.840027 L 26.868103 48.840027 C 26.409454 48.840027 26.033447 48.46405 26.033447 48.004028 L 26.033447 10.736023 C 26.033447 10.276062 26.409454 9.900024 26.868103 9.900024 L 27.222778 9.900024 C 27.681458 9.900024 28.058777 10.276062 28.058777 10.736023 L 28.058777 48.004028 C 28.058777 48.46405 27.681458 48.840027 27.222778 48.840027"/>
        </g>
    </g>
</svg>
