<svg width="63" height="70" viewBox="0 0 63 70" xmlns="http://www.w3.org/2000/svg" xmlns:xlink="http://www.w3.org/1999/xlink">
    <g id="lightbulbon-copy">
        <g id="g977">
            <path id="path979" fill="#080e17" stroke="none" d="M 23.077446 52.301392 C 23.065445 52.265381 20.588112 45.658691 18.77211 42.644043 C 17.153442 39.957397 15.698776 37.197388 15.000107 34.078735 C 12.894775 24.702698 18.56411 16.312073 28.072113 15.064026 C 30.200111 14.784058 32.481445 14.813354 34.570778 15.258728 C 44.074783 17.286682 48.817444 25.261353 46.312103 35.129395 C 45.817444 37.082703 43.993439 40.665405 43.00145 42.436035 C 40.810776 46.352051 39.16011 50.938721 38.625443 52.29071 C 38.092117 53.6427 34.890778 53.500061 35.068115 51.828064 C 35.253448 50.094727 35.418777 50.286682 35.992111 48.804016 C 36.725449 46.906738 37.752106 44.480042 38.689438 42.669373 C 39.62944 40.854736 40.840103 39.165405 41.62944 37.293396 C 42.41478 35.432068 43.097443 33.446716 43.342773 31.457397 C 44.029449 25.920044 40.953445 21.222717 35.701447 19.332031 C 32.780113 18.277405 29.792107 18.212036 26.844109 19.012024 C 20.426781 20.752014 16.94278 26.778687 18.461441 33.292053 C 19.089447 35.986694 20.469444 38.333374 21.77211 40.73468 C 23.197441 43.360046 24.458778 46.077393 25.705444 48.796021 C 26.27478 50.033386 26.478775 50.366699 26.606773 51.718689 C 26.784111 53.57605 23.569443 53.784058 23.077446 52.301392"/>
        </g>
        <g id="g981">
            <path id="path983" fill="#080e17" stroke="none" d="M 34.978775 58.954712 L 26.29744 58.954712 C 25.673439 58.954712 25.16011 58.442688 25.16011 57.81604 C 25.16011 57.189392 25.673439 56.677368 26.29744 56.677368 L 34.978775 56.677368 C 35.605438 56.677368 36.117447 57.189392 36.117447 57.81604 C 36.117447 58.442688 35.605438 58.954712 34.978775 58.954712"/>
        </g>
        <g id="g985">
            <path id="path987" fill="#080e17" stroke="none" d="M 34.978775 63.508057 L 26.29744 63.508057 C 25.673439 63.508057 25.16011 62.996033 25.16011 62.369385 C 25.16011 61.742737 25.673439 61.230713 26.29744 61.230713 L 34.978775 61.230713 C 35.605438 61.230713 36.117447 61.742737 36.117447 62.369385 C 36.117447 62.996033 35.605438 63.508057 34.978775 63.508057"/>
        </g>
        <g id="g989">
            <path id="path991" fill="#080e17" stroke="none" d="M 32.638779 4.400024 L 32.638779 10.557373 C 32.638779 11.31073 32.022774 11.925354 31.270775 11.925354 L 30.718773 11.925354 C 29.966774 11.925354 29.349442 11.31073 29.349442 10.557373 L 29.349442 4.400024 C 29.349442 3.648071 29.966774 3.032043 30.718773 3.032043 L 31.270775 3.032043 C 32.022774 3.032043 32.638779 3.648071 32.638779 4.400024"/>
        </g>
        <g id="g993">
            <path id="path995" fill="#080e17" stroke="none" d="M 19.366776 7.013367 L 22.090775 12.536072 C 22.425446 13.209351 22.145439 14.036072 21.470772 14.368042 L 20.976112 14.612061 C 20.301445 14.945374 19.476112 14.666687 19.142776 13.990723 L 16.417442 8.468018 C 16.084106 7.796021 16.364105 6.96936 17.040108 6.636047 L 17.534775 6.393372 C 18.209442 6.060059 19.03344 6.340027 19.366776 7.013367"/>
        </g>
        <g id="g997">
            <path id="path999" fill="#080e17" stroke="none" d="M 7.846779 15.658691 L 13.382774 18.352051 C 14.060112 18.681396 14.345444 19.504028 14.014778 20.180054 L 13.773445 20.677368 C 13.444107 21.354736 12.621445 21.638733 11.944107 21.309387 L 6.408112 18.616028 C 5.730774 18.286682 5.448112 17.46405 5.776108 16.788025 L 6.018776 16.29071 C 6.346779 15.613403 7.170776 15.329346 7.846779 15.658691"/>
        </g>
        <g id="g1001">
            <path id="path1003" fill="#080e17" stroke="none" d="M 4.044113 29.926697 L 10.200111 30.052063 C 10.953445 30.066711 11.556107 30.694702 11.540108 31.446716 L 11.529442 32.000061 C 11.513443 32.752014 10.88678 33.354736 10.133446 33.340027 L 3.97744 33.214722 C 3.225441 33.200012 2.621445 32.572021 2.637444 31.818726 L 2.648109 31.266724 C 2.664108 30.514709 3.292107 29.910706 4.044113 29.926697"/>
        </g>
        <g id="g1005">
            <path id="path1007" fill="#080e17" stroke="none" d="M 6.250778 42.586731 L 12.196106 40.985352 C 12.922775 40.789368 13.674774 41.22406 13.873444 41.950684 L 14.014778 42.48407 C 14.210777 43.209351 13.778778 43.965393 13.049438 44.160034 L 7.106773 45.761353 C 6.377441 45.957397 5.624107 45.524048 5.428108 44.797363 L 5.282776 44.262695 C 5.089439 43.536072 5.522774 42.782715 6.250778 42.586731"/>
        </g>
        <g id="g1009">
            <path id="path1011" fill="#080e17" stroke="none" d="M 42.509445 7.013367 L 39.785446 12.536072 C 39.452103 13.209351 39.730774 14.036072 40.405441 14.368042 L 40.901443 14.612061 C 41.574783 14.945374 42.400116 14.666687 42.733444 13.990723 L 45.458771 8.468018 C 45.792114 7.796021 45.512115 6.96936 44.837448 6.636047 L 44.341446 6.393372 C 43.666779 6.060059 42.842773 6.340027 42.509445 7.013367"/>
        </g>
        <g id="g1013">
            <path id="path1015" fill="#080e17" stroke="none" d="M 54.030777 15.658691 L 48.494781 18.352051 C 47.817444 18.681396 47.532104 19.504028 47.862778 20.180054 L 48.104111 20.677368 C 48.433441 21.354736 49.256104 21.638733 49.933441 21.309387 L 55.469437 18.616028 C 56.145447 18.286682 56.429443 17.46405 56.10144 16.788025 L 55.85878 16.29071 C 55.530777 15.613403 54.706772 15.329346 54.030777 15.658691"/>
        </g>
        <g id="g1017">
            <path id="path1019" fill="#080e17" stroke="none" d="M 57.833435 29.926697 L 51.678772 30.052063 C 50.925446 30.066711 50.322769 30.694702 50.337448 31.446716 L 50.349442 32.000061 C 50.364105 32.752014 50.992111 33.354736 51.74411 33.340027 L 57.901443 33.214722 C 58.652115 33.200012 59.256104 32.572021 59.240112 31.818726 L 59.229446 31.266724 C 59.214783 30.514709 58.585449 29.910706 57.833435 29.926697"/>
        </g>
        <g id="g1021">
            <path id="path1023" fill="#080e17" stroke="none" d="M 55.628113 42.586731 L 49.681442 40.985352 C 48.9561 40.789368 48.201447 41.22406 48.005447 41.950684 L 47.861435 42.48407 C 47.666779 43.209351 48.100113 43.965393 48.82811 44.160034 L 54.77211 45.761353 C 55.500107 45.957397 56.253433 45.524048 56.449448 44.797363 L 56.593445 44.262695 C 56.789444 43.536072 56.354767 42.782715 55.628113 42.586731"/>
        </g>
        <g id="g1025">
            <path id="path1027" fill="#080e17" stroke="none" d="M 26.229439 65.6427 C 26.926773 67.312012 28.573441 68.488037 30.496109 68.488037 C 32.420105 68.488037 34.068108 67.312012 34.765442 65.6427"/>
        </g>
    </g>
</svg>
