<svg width="54" height="50" viewBox="0 0 54 50" xmlns="http://www.w3.org/2000/svg" xmlns:xlink="http://www.w3.org/1999/xlink">
    <g id="tapcard-copy">
        <g id="g365">
            <path id="path367" fill="#080e17" stroke="none" d="M 25.24411 28.622681 C 25.768097 29.420044 26.349426 29.914734 27.064117 30.161377 L 27.742767 29.842712 L 27.742767 27.446716 L 25.240112 28.617371 C 25.241425 28.620056 25.241425 28.620056 25.24411 28.622681"/>
        </g>
        <g id="g369">
            <path id="path371" fill="#080e17" stroke="none" d="M 24.508118 27.238708 L 27.741425 25.725342 L 27.741425 23.329346 L 24.154785 25.006714 C 24.110779 25.817383 24.224091 26.524048 24.508118 27.238708"/>
        </g>
        <g id="g373">
            <path id="path375" fill="#080e17" stroke="none" d="M 24.470764 23.177368 L 27.741425 21.646729 L 27.741425 19.965393 C 27.474762 20.049377 27.212097 20.133362 26.940094 20.222717 C 25.704102 20.626709 24.77478 22.300049 24.470764 23.177368"/>
        </g>
        <g id="g377">
            <path id="path379" fill="#080e17" stroke="none" d="M 38.721436 27.87738 C 37.888092 28.016052 36.068115 28.909363 34.306763 29.776062 C 32.378784 30.725403 30.833435 31.450684 29.629425 31.858704 C 28.86145 32.117371 28.233429 32.245361 27.742767 32.212036 C 27.736115 32.210693 27.725433 32.213379 27.718781 32.212036 C 26.024109 32.060059 24.701447 31.228027 23.668091 29.661377 C 22.261444 27.530701 21.946777 25.693359 22.545441 23.044067 C 22.589447 22.849365 22.674774 22.600037 22.78009 22.330688 C 22.894775 22.030701 23.042755 21.704041 23.232117 21.360046 C 23.874756 20.186707 24.925446 18.896057 26.354767 18.42804 C 26.825439 18.274719 27.286774 18.126709 27.742767 17.98407 L 27.742767 12.121399 C 25.006775 12.798706 22.39743 13.470703 20.929443 13.929382 C 17.237427 15.08136 15.474762 20.326721 13.726776 23.633362 C 12.372101 26.19873 11.090759 28.620056 9.753448 30.480042 C 6.241425 35.356018 2.998779 37.481384 1.833435 38.138733 L 8.868103 49.318726 L 8.974762 49.31073 C 11.161438 49.178711 16.634766 48.673401 20.253448 46.822693 C 21.94809 45.956055 23.553436 44.644043 25.412109 43.126709 C 26.930756 41.885376 28.650757 40.478699 30.740112 39.057373 C 30.781433 39.029358 30.821442 39.002686 30.86145 38.974731 C 31.80545 38.333374 32.749451 37.701355 33.673431 37.093384 C 37.852112 34.345398 41.62677 32.045349 43.170776 31.116028 C 42.164093 29.269348 40.588104 27.562683 38.721436 27.87738"/>
        </g>
        <g id="g381">
            <path id="path383" fill="#080e17" stroke="none" d="M 50.228119 2.386719 L 30.916107 2.386719 C 30.205444 2.386719 29.628113 2.962708 29.628113 3.674683 L 29.628113 29.850708 C 30.869446 29.364014 32.398773 28.612061 33.474762 28.082703 C 35.848114 26.912048 37.368103 26.190735 38.412109 26.014709 C 38.660095 25.974731 38.916107 25.952026 39.166779 25.952026 C 41.318787 25.952026 43.329437 27.466736 44.828094 30.214722 L 45.690765 31.801392 L 44.142761 32.732056 C 43.12677 33.345398 40.408112 34.99469 37.138763 37.094727 L 50.228119 37.094727 C 50.937439 37.094727 51.514771 36.518738 51.514771 35.806702 L 51.514771 3.674683 C 51.513428 2.962708 50.937439 2.386719 50.228119 2.386719"/>
        </g>
    </g>
</svg>
