<svg width="61" height="56" viewBox="0 0 61 56" xmlns="http://www.w3.org/2000/svg" xmlns:xlink="http://www.w3.org/1999/xlink">
    <g id="warning-copy">
        <g id="g333">
            <path id="path335" fill="#080e17" stroke="none" d="M 26.609436 21.838684 L 26.609436 26.012024 L 28.402771 36.225403 C 28.438782 36.516052 28.768112 36.812012 29.094772 36.812012 L 30.636108 36.812012 C 30.964111 36.812012 31.294769 36.516052 31.332108 36.225403 L 33.124115 25.938721 L 33.124115 21.838684 C 33.124115 21.470703 32.79744 21.144043 32.428101 21.144043 L 27.305435 21.144043 C 26.937439 21.144043 26.609436 21.470703 26.609436 21.838684"/>
        </g>
        <g id="g337">
            <path id="path339" fill="#080e17" stroke="none" d="M 29.83078 40.178711 C 27.962769 40.178711 26.388107 41.789368 26.388107 43.694702 C 26.388107 45.560059 27.962769 47.134705 29.83078 47.134705 C 31.733444 47.134705 33.342773 45.560059 33.342773 43.694702 C 33.342773 41.789368 31.733444 40.178711 29.83078 40.178711"/>
        </g>
        <g id="g341">
            <path id="path343" fill="#080e17" stroke="none" d="M 7.836105 49.153381 L 29.854767 11.012024 L 51.876099 49.153381 Z M 58.038773 50.101379 L 31.961441 4.934692 C 31.528107 4.184021 30.725433 3.718689 29.854767 3.718689 C 28.989441 3.718689 28.184113 4.184021 27.753448 4.934692 L 1.521439 50.369385 C 1.086777 51.120056 1.086777 52.046692 1.521439 52.800049 C 1.953445 53.55072 2.758774 54.016052 3.624115 54.016052 L 56.112106 54.016052 C 57.454773 54.016052 58.544098 52.925354 58.544098 51.585388 C 58.544098 51.025391 58.354767 50.512024 58.038773 50.101379"/>
        </g>
    </g>
</svg>
