<svg width="49" height="62" viewBox="0 0 49 62" xmlns="http://www.w3.org/2000/svg" xmlns:xlink="http://www.w3.org/1999/xlink">
    <g id="bus-copy">
        <path id="path975" fill="#080e17" fill-rule="evenodd" stroke="none" d="M 38.000111 47.421387 C 38.000111 46.505371 38.741444 45.762695 39.658779 45.762695 L 43.861443 45.762695 C 44.778778 45.762695 45.522781 46.505371 45.522781 47.421387 C 45.522781 48.337341 44.778778 49.08136 43.861443 49.08136 L 39.658779 49.08136 C 38.741444 49.08136 38.000111 48.337341 38.000111 47.421387 M 8.689445 48.701355 L 4.482779 48.701355 C 3.565445 48.701355 2.822779 47.958679 2.822779 47.041382 C 2.822779 46.125366 3.565445 45.38269 4.482779 45.38269 L 8.689445 45.38269 C 9.604111 45.38269 10.346779 46.125366 10.346779 47.041382 C 10.346779 47.958679 9.604111 48.701355 8.689445 48.701355 M 45.308113 12.961365 L 45.308113 32.712036 C 45.308113 33.722717 44.257446 34.542725 42.962776 34.542725 L 5.870777 34.542725 C 4.574778 34.542725 3.525444 33.722717 3.525444 32.712036 L 3.525444 12.961365 C 3.525444 11.949341 4.574778 11.129395 5.870777 11.129395 L 42.962776 11.129395 C 44.257446 11.129395 45.308113 11.949341 45.308113 12.961365 M 3.360113 4.997375 C 3.360113 4.820007 4.417444 4.674683 5.721445 4.674683 L 43.050781 4.674683 C 44.35611 4.674683 45.410774 4.820007 45.410774 4.997375 L 45.410774 8.46936 C 45.410774 8.646729 44.35611 8.792053 43.050781 8.792053 L 5.721445 8.792053 C 4.417444 8.792053 3.360113 8.646729 3.360113 8.46936 Z M 45.377441 1.425354 L 2.713446 1.425354 C 1.533445 1.425354 0.578779 2.381348 0.578779 3.560059 L 0.578779 51.981384 C 0.578779 52.916016 1.181444 53.708008 2.017447 53.996033 L 2.017447 58.833374 C 2.017447 60.012024 2.972113 60.966675 4.152113 60.966675 L 7.493446 60.966675 C 8.672112 60.966675 9.626778 60.012024 9.626778 58.833374 L 9.626778 54.116028 L 38.516109 54.116028 L 38.516109 58.833374 C 38.516109 60.012024 39.472111 60.966675 40.652111 60.966675 L 43.992111 60.966675 C 45.169441 60.966675 46.126778 60.012024 46.126778 58.833374 L 46.126778 53.977356 C 46.934776 53.67334 47.512108 52.896057 47.512108 51.981384 L 47.512108 3.560059 C 47.512108 2.381348 46.557442 1.425354 45.377441 1.425354"/>
    </g>
</svg>
