<svg width="65" height="59" viewBox="0 0 65 59" xmlns="http://www.w3.org/2000/svg" xmlns:xlink="http://www.w3.org/1999/xlink">
    <g id="email-copy">
        <g id="g471">
            <path id="path473" fill="#080e17" stroke="none" d="M 28.278748 17.348022 C 28.278748 19.07074 29.304077 20.352051 31.025391 20.352051 C 33.37207 20.352051 35.092102 17.898682 35.092102 15.589355 C 35.092102 13.868042 34.030762 12.658691 32.381409 12.658691 C 29.962738 12.658691 28.278748 15.150696 28.278748 17.348022 M 43.409424 23.760071 C 40.697449 27.753357 36.557434 29.438721 31.832092 29.438721 C 25.456085 29.438721 18.533417 25.041382 18.533417 16.212036 C 18.533417 8.921387 24.505432 2.986694 32.710754 2.986694 C 38.609436 2.986694 45.130737 6.246704 45.130737 13.757385 C 45.130737 21.268066 38.316101 23.942688 35.898743 23.942688 C 34.87207 23.942688 33.957397 23.320068 33.920105 22.037354 L 33.846741 22.037354 C 32.930725 23.064026 31.648071 23.942688 30.145416 23.942688 C 27.105408 23.942688 24.468079 21.452026 24.468079 17.898682 C 24.468079 13.061401 27.840088 9.069397 32.014771 9.069397 C 33.773438 9.069397 35.240112 9.874695 36.265442 11.413391 L 36.704102 9.654724 L 39.782776 9.654724 L 37.766724 18.557373 C 37.65741 18.960022 37.510742 19.473389 37.510742 19.804016 C 37.510742 20.133362 37.65741 20.352051 38.060059 20.352051 C 39.89209 20.352051 42.200073 18.410706 42.200073 13.868042 C 42.200073 7.896057 37.034729 6.357361 32.712097 6.357361 C 26.594757 6.357361 22.344086 11.010681 22.344086 16.212036 C 22.344086 21.890686 26.33609 26.068054 31.832092 26.068054 C 34.726746 26.068054 37.986755 25.701355 40.294739 23.760071"/>
        </g>
        <g id="g475">
            <path id="path477" fill="#080e17" stroke="none" d="M 24.556122 22.73468 C 23.600098 21.568054 22.918762 20.144043 22.582764 18.538696 L 18.705444 18.538696 C 18.94278 20.108032 19.420105 21.505371 20.080109 22.73468"/>
        </g>
        <g id="g479">
            <path id="path481" fill="#080e17" stroke="none" d="M 26.701447 22.73468 L 33.13208 22.73468 C 33.389465 22.517395 33.629456 22.282715 33.846802 22.038696 L 33.918762 22.038696 C 33.926758 22.297363 33.970764 22.529358 34.045471 22.73468 L 39.818787 22.73468 C 41.385437 21.873352 42.986755 20.514709 44.016113 18.538696 L 41.012085 18.538696 C 40.181458 19.782715 39.050781 20.353394 38.06012 20.353394 C 37.656128 20.353394 37.510803 20.133362 37.510803 19.802734 C 37.510803 19.473389 37.656128 18.961365 37.765442 18.558716 L 37.770752 18.538696 L 34.158752 18.538696 C 33.428101 19.600037 32.322754 20.353394 31.025452 20.353394 C 29.732117 20.353394 28.832123 19.629395 28.462769 18.538696 L 24.497437 18.538696 C 24.660095 20.31604 25.500122 21.780029 26.701447 22.73468"/>
        </g>
        <g id="g483">
            <path id="path485" fill="#080e17" stroke="none" d="M 5.033447 53.48407 L 5.033447 22.960022 L 31.832092 39.881348 L 58.630798 22.960022 L 58.630798 53.48407 Z M 46.825439 18.538696 C 46.536133 20.040039 46.190796 21.548035 45.905457 22.73468 L 51.130798 22.73468 L 31.832092 34.920044 L 12.533447 22.73468 L 17.506775 22.73468 C 16.982788 21.52002 16.577454 20.128052 16.372101 18.538696 L 0.837463 18.538696 L 0.837463 57.680054 L 62.825439 57.680054 L 62.825439 18.538696"/>
        </g>
    </g>
</svg>
